<mxfile host="app.diagrams.net" modified="2022-04-25T21:11:37.206Z" agent="5.0 (Macintosh; Intel Mac OS X 10_15_7) AppleWebKit/605.1.15 (KHTML, like Gecko) Version/15.4 Safari/605.1.15" etag="Cp23gmsB9zEB9R9y0ott" version="17.4.6" type="github">
  <diagram id="k364arCdmwFCV6oe1WjC" name="Page-1">
    <mxGraphModel dx="2313" dy="2035" grid="1" gridSize="10" guides="1" tooltips="1" connect="1" arrows="1" fold="1" page="1" pageScale="1" pageWidth="1100" pageHeight="850" math="0" shadow="0">
      <root>
        <mxCell id="0" />
        <mxCell id="1" parent="0" />
        <mxCell id="BL0fxwx5DuhP13sKB6l1-1" value="management" style="points=[[0,0],[0.25,0],[0.5,0],[0.75,0],[1,0],[1,0.25],[1,0.5],[1,0.75],[1,1],[0.75,1],[0.5,1],[0.25,1],[0,1],[0,0.75],[0,0.5],[0,0.25]];outlineConnect=0;gradientColor=none;html=1;whiteSpace=wrap;fontSize=12;fontStyle=0;container=1;pointerEvents=0;collapsible=0;recursiveResize=0;shape=mxgraph.aws4.group;grIcon=mxgraph.aws4.group_aws_cloud_alt;strokeColor=#232F3E;fillColor=none;verticalAlign=top;align=left;spacingLeft=30;fontColor=#232F3E;dashed=0;" parent="1" vertex="1">
          <mxGeometry x="-1039" y="-40" width="679" height="560" as="geometry" />
        </mxCell>
        <mxCell id="wFLVEbgck72JYmoCqQcz-30" value="" style="edgeStyle=orthogonalEdgeStyle;rounded=0;orthogonalLoop=1;jettySize=auto;html=1;fontFamily=Tahoma;fontSize=14;fontColor=#333333;opacity=80;" parent="BL0fxwx5DuhP13sKB6l1-1" source="wFLVEbgck72JYmoCqQcz-8" target="OT4UGk9DmzGM-0W16wZx-3" edge="1">
          <mxGeometry relative="1" as="geometry">
            <mxPoint x="700.0079272133212" y="277.5050000000001" as="targetPoint" />
            <Array as="points">
              <mxPoint x="769" y="284" />
              <mxPoint x="769" y="284" />
            </Array>
          </mxGeometry>
        </mxCell>
        <mxCell id="wFLVEbgck72JYmoCqQcz-8" value="argocd-management" style="sketch=0;outlineConnect=0;fillColor=#9933FF;strokeColor=none;dashed=0;verticalLabelPosition=bottom;verticalAlign=top;align=center;html=1;fontSize=12;fontStyle=0;aspect=fixed;pointerEvents=1;shape=mxgraph.aws4.role;shadow=0;opacity=85;" parent="BL0fxwx5DuhP13sKB6l1-1" vertex="1">
          <mxGeometry x="519" y="249.30000000000004" width="100" height="56.41" as="geometry" />
        </mxCell>
        <mxCell id="wFLVEbgck72JYmoCqQcz-10" value="" style="group" parent="BL0fxwx5DuhP13sKB6l1-1" vertex="1" connectable="0">
          <mxGeometry x="27" y="35" width="1092" height="485" as="geometry" />
        </mxCell>
        <mxCell id="wFLVEbgck72JYmoCqQcz-1" value="" style="fillColor=#E9F3E6;strokeColor=none;dashed=0;verticalAlign=top;fontStyle=0;fontColor=#232F3D;" parent="wFLVEbgck72JYmoCqQcz-10" vertex="1">
          <mxGeometry x="9" y="5" width="364" height="480" as="geometry" />
        </mxCell>
        <mxCell id="BL0fxwx5DuhP13sKB6l1-6" value="" style="sketch=0;points=[[0,0,0],[0.25,0,0],[0.5,0,0],[0.75,0,0],[1,0,0],[0,1,0],[0.25,1,0],[0.5,1,0],[0.75,1,0],[1,1,0],[0,0.25,0],[0,0.5,0],[0,0.75,0],[1,0.25,0],[1,0.5,0],[1,0.75,0]];outlineConnect=0;gradientDirection=north;dashed=0;verticalLabelPosition=bottom;verticalAlign=top;align=center;html=1;fontSize=12;fontStyle=0;aspect=fixed;shape=mxgraph.aws4.resourceIcon;resIcon=mxgraph.aws4.eks;gradientColor=none;fillColor=none;strokeColor=#548C82;" parent="wFLVEbgck72JYmoCqQcz-10" vertex="1">
          <mxGeometry width="60" height="60" as="geometry" />
        </mxCell>
        <mxCell id="wFLVEbgck72JYmoCqQcz-4" value="" style="shape=image;verticalLabelPosition=bottom;labelBackgroundColor=default;verticalAlign=top;aspect=fixed;imageAspect=0;image=data:image/png,iVBORw0KGgoAAAANSUhEUgAAAZoAAAIICAYAAABXQCi2AAAAAXNSR0IArs4c6QAAAERlWElmTU0AKgAAAAgAAYdpAAQAAAABAAAAGgAAAAAAA6ABAAMAAAABAAEAAKACAAQAAAABAAABmqADAAQAAAABAAACCAAAAABO/67qAABAAElEQVR4Aey9B5hk11kmfM5NVdXV1XmiNEqWbEuyJcuSg2TZKxnjIBywjYSNWRZYwmLCAwu7/xI9+lkWWD9gDBjWhgW8i/lhhKOkccD2SM5WsII1ozCSRtJo8kzPdHfFG8753/dW10xPd8XuulW3qu+VeqrqhnPP+U54z5eFSI6EAgkFEgokFEgokFAgoUBCgYQCCQUSCiQUSCiQUCChQEKBhAIJBepQQNY5l5xKKLDOKKCl1o2bfOutIpwnl71RpISD/06ebHjzaG5S3/MFUcQNSohbxQc+8IG6JYcFVv+pe73hC5ILCQUGkAIJ0AxgpyVV7oACGiCy5PZbb71VXvmOD4xZwckxbdk5YfgzprZmDCmmldTTUhoTQulJIWUuwKc0hCOVmBSGlELrFIpytFha4pLC8VWK8HVF3K6U0iUtRQEPLuBSXkp5UgpjVglNpJoFFB3TUh4LPH8uKBvzz8+Nzv3yW4RbK7GKQ2dVv3Yp+UwoMFAUSIBmoLorqWxdCiyCSch5fECIax8+khGGPWU66c0VV12ohdxmCHm+VsGFAJAtKGMCA38CcDGOxd8yTUsYphn+EUO0BhSQxcEf/q1+54vD3zzT/ECZuAGQw9vwnb/Dc4ufWmmhlC8CPxAaaIT3FaVhzKL4UwClo6jvcwC2p/H2/bZh7lNSPDdppWdfdbHIo43gkqpIhzJbV6Z5VZOrCQV6QoFwLvTkTclLEgp0gQJYlcMxi/VWvvF5kVo4VZrRMrhYCeNiqYJLIa+6VBvGNqn0VizvY6ZlmZZtEyPwBwBRCgwLP7GM85N14sW+HAQgvBj/GGCdADYhIBnhpyGCwBe+56LJOo/bDuLGA2CYHveleMQx5BOlysKTm0r+kS9de27lA2gFm5CAT186MnlpCwqEk7bFPcnlhAJ9oQBBhVzKZZfdJsW1Nzuj5cpWXXAvNWz7pSrwX2YY8kUqUBdgdR1PpTOoI6VbABIVCBWAWyAH0jcQ6Q7JapyQaYDjwp+EjI/A5JZLBMg5nNyHBu8FX3avcNXDvu0+WhKTh2++TPioQRWVE86nO52RlLJqCiRAs2rSJQ92mwIhsGAZvew2sCLXQqyVL70Y564KAv1qvOulYEMuMk07ZzlOyIUEABMAzlAASqe0JADxz4DYz4TYj+DjVcrAHHUS3NHjoMwD0lPf1un0A8Wc89TN54oK3gGVEN+UiNw6pXdy/9ookADN2uiXPL0GChBY8Li8DX/jD4vpQORfoqVxHfiQa8GbvBSnt6bSaayiAmKkKqhAoxGCzBpeO7SP1sAH4kIwOlbI2fmeVwDB9oGe31FCfs0R+r7JyuiTTz99m7r55psVnglFbkNLlKRhsaBAAjSx6Ib1U4nt27Vx2WVCbrhcZPLe/GXYjb8W++zXQeB1NSy1znFS6ZBDCXw/XCgHXfTV756FFV3I8RB8wO1Q57MAXmg3LOzugj3CLlPpB/JXjc7uuVXo7dtD0EmAp9+dNoTvT4BmCDs1Tk2qcS133SWM/MbyVsv3r8N2+w0AltdgwXsBgMUmmBBYAuhWgDI9qf7p13AG1F7JTyMULFXPLF4LxU2obJsVo5qIkqywKeDOKOM6845lhVRFWctORviTBgcwjwhFbp5bpnHEfsOU39K++Lwh/K85s+P7b7iBPkAUsyXcToRdsa6KbnfyrCuiJI1dGwUILrfdJoyTF91vbMm86IVOYNygDPFmLFuvNCxzI/QsABYvtKrqNscSAghH9WnwgLGwgTdjuTchPwLX5EtaMktpWqZQMCioUMWB3ylco8EXOADh4byLczglYF0cGoWlUWrL+QKmgboQKo7MAOZwgVKpQAkL58FR0JhZVGDVbOBCyq+eg7sOzZ2FyXtwkCThCl97WXRgJENuh1Z5Ibfje8cBi9+F39CdsPn+sn1pat8NqDbqgRoloBP2TvLPqihQG8urejh5KKFAjQIhuGBBvupJYT3tF1/ie+otWJYBLvJldiqd5VoFfQEWNHAtazxqGFIFE66BNA8GiBgyMLFhdyzpWrahbFOkHcuo2JAa4VraNKXGdc80gDlSWKzGIpDwK2yL8S8Lr7OytwuIIeOzfFYR/U6XHVpXc9UOoxHg0wMQAXS1jT/gj/Yqnk55vgaTp1XF146P80AoA0BUe6aKeChz+avYkNUetGoj6LBUcDunALPfgeTtU76X/8oBd//+n7v66gC0rsLhal+SPLcuKdDNcbouCbieGx2CCziXiy4Sxols8QqCC5b8myAuejnMjVMEFR+cC31XVntw3a8CCpY/jFawIoFlCANg4qVsaaUck58SXIhl4xxABC4mi9ZVqExtKT4DFNUhf+b3amvWnecIktUjbGkImuFvVJCMDQEm0NrzPG0RfFwfLJGnjArca3DOAAgBuaoAFD6H4molLha8qg+ydpYN6z4cnls5gd9fgUDtk0U1f9fk7KZZiNcIOtVKr+oNyUPriQLdGJPriV5JW7GG79iBBfzyPeZk+bwXuLZ8C9abd2B5e6WTyqRDcPHcUP7TKbGWggrWOXIfAhyJ7ziGkXGkD0Cx8d2HyMsGoJCD4fgFrADawpfx6/CtfVUwApqwjVVgCmVwlLl5ENIBeHSpomS5ovndJPiASwIxQqLUY9CqF9r8l5wOCL9o+Rc8DSC/w/P9fzVGcvfkLxb+zRSvJaDTJjXX520J0KzPfu+41bQW2/LW+80XZl48XRbiDVAe34J99OvsdGacHAvFYqEWvIOSTwMLRiFARQNUgpQjZTZtAlSEnXIMZZmh3oTLazhWw+X2NLB08LIhvLWKORTWVREF/yqAjKSEsuQpUSoFsuhq4XpUFp0JHFp9bnUEofWaZTnCrZR8WAtAn6P+2Tatzz1d2n3o0B1XB7BcWz37uroqJU8NAAUSoBmATupXFcEdyLvuussUF9xglRbyr4Ju/BYoi38IVkvn03oJprKhErnd+nE5pLCFYS4tcCSObQSZtCFG8JdxDA2OxUSxi6BSXT6HkUNpl16ruS+c0KAgqUd6Yw8Arge6HnA8eVfpQklJAo8fQMePziR8r2YRIJdF0Ro/MQ4OYWx8Bu/7p/NE+p7du0Vwyy1y7cq41RAgeSaWFFjNGItlQ5JKdY8C27U23nq/MA9lylvAYLwVxlLvhSLg1VDqWwQXxuBq9wglWRhl1JsAWBRARWczUo44hgDHQlSBMRjVMPg34VTaJWtH94HGIZgQeEBiBT2PLpYBPKVAF8pauq4yeI3IxHs7PRiQ1LZT1OVU8IK7UfzHS2bwhQ1Hx+ZvhC4HhYbFd1pucv/wUGAVw2p4Gp+05GwK7IBJbuGuZ+xN0zOvghbmx8DQvN1xUpvJVRBg2uYusKxwswyxlwKnokazhhhNmzrthGKwRWAJF72zK5D86gkFasBDAIBlmy5XlF4oK1EoBrLkKlnT73QKOuRubCcVWhZCV/d9reTHYTm+Y7qSOXz11cJP9Dg96d5YviQBmlh2S+8qRfHYx+4X1tbcwrgd2G+Bs+FPwkzsteBebN+rhArgtmrDPStFYhaAJW2o3KipRwAs4Fq4XoXWXxTmhBxOWwUmN/WCAlXQ4TJA6zUYE0AaugDdzkIxECVwO77ClmEVnA7FaozBBibneYyAf7Kk+fFZ4Ty55zbhJ3qcXvRsvN6RAE28+qNntdkO8djNe+DzEixcBLeS92CZ+THHci6BrF14AJi2uJdFcKFIbHTEVLkRQ2RTpmSoLexe4fORAEvPOrRLL6oCD3Q76Drk8iGnoxcKShbLwao4Heb6ocUaTaRVoD+phPcxIzP+yD0XC2974pPTpV6LfzEJ0MS/j7pawx07tDl6lbBkaeHlcEr5SRT+LttJz9BTnz4vrY6QIwHnAguxGuciRjOmhHMkuRZcScClFQ0H5frZoKPVHLic+UIAM2qFdD/o7A4aUjWRToHDKefhC/Vpt+T9lTU29kACOB0QcYBv7WSsDHAzk6rv2rXLOpa62B7JTb0ell0/A+e7NyPOWJrcC3O3NDvIuPCgzmUkJfX4qKVyGcNwbLA/CbhUiTPk/9ZAh747pYpWJ/OItV0IDEQu6Ei0RkdQbGxEpVwuAXA+iac/IuxMAjjDPn6GvH3rvnm7dmnrWO5kdjRlvxnSrJ/HRvTfQWFreKGBUAuXByIM/FvSNsAlawXjo4jjkoKbJM7yUqJvWZ/DK9S6AV4gWhMLJaXmFnxZLCmjxWg6i1g0j4ehSQg4CHVzmy3Fn3nOyJ63XCzcxGjgLFINxY+EoxmKblzZCALMqYlTwJf02yHQ+kV4VrySznaQlbfUvxBE4OeiRjOGmhgzRS4DVS5EYwCWUO+y8m3JmfVIgRqXQ30OIhOo2flALIDLceEcSnq0s7jUAAfjch65iP4J8Uj/4nwx+iRSSXgJ4AzPqGpnLAxPa9dBS3ZpAMyDp0ahNXmbbRu/BNn4KzFhQ4Bp1vyaeAxOk4rcy8SYITMOAr2E3Euid2lGu+QaBajhH7gcrU8u+OIUuJyKx41J9VorGtVEaq5bOg6O6aNSyY/SLPqaa2RrxWGrwpPrfadAAjR974LuVOAMB2O/HZP2/bAeoyd/S4Ch6SqkGBoisWAyZ0H/YiKSv4D7A2QjiWysO52zjkqpcTleoBUMB/TsvG/QTDocSm2sNlXnT1ipee4+lPXhbDbzf/ynxcKNN8r2vYTXEb0HpaltdP2gNGV91pNOluUvHUlPbcneZFnmryKO8XXtcDA1gMlmzGBq3BJjI8g0Dy99cjYJvqzPsdTNVtcAB86fDHujjs15RqGIvJ4cYG2sOpZlYwNkCj/w7g0C94NTk+N3XHuuqGBsd6IK6maTkrLWQIE2unwNpSePRkYBcBvGHfcfSlvpqddCYf+f4WT5RvosUAfT6mA4mBzEY9Pjpsimwf8AYzQF7a0eTK4nFFgFBSh/5fBiyJsTc9DjFAPq+9o6GGmAiXkwxj+DMv545OiRh2644QICTpsltPWa5KaIKZAATcQE7nbxABh51zMidWpu/ooRx/k1ZEZ8t2Wn7DAtb4vZSxEZTJOD6TFLj6SZcFIazO6YHAkFekGBFYADw4F2OBxy6DDFp5/XHMJQfyzveR85X00cTPQ3vei17rwjAZru0LEnpezYrZ2RoHKuaahfgpzrpy3LGq/GMWwOFuBYFHQvihzMSAreC1DdJgDTky5LXlKHAgQcAIxGqBt9/BT8cWocTovViKI0B1EGKq67Vyv/Dy1d3DH3+NfKt9xyS3NHsDp1SE71lgItura3lUneVp8CoS/MxvmxrDJ+HCH6f9W07As9lyH6m8wvYA85mNGsqWbGbXjxSwv4kpgn1ydxcrYPFKA/DuOrLRShwzkFHQ5SGJDDoX6n2cF001VRr/4cgln8gZnNPHTTJdLFM813XM0KTa5FSoEWXRrpu5PCW1Bg+/btxhv/4wdSx0/O32Ab1u8AYK4Lk4w1CRXDmYYdI0Rjpto4ZdODn9GSExFZC1onl/tHAXI4NBpAtAF1HIBTdpFSrUV1KE6zUykm3DuJdNcfLnjzf7Vh7rGTN954Y2Kd1oJ2/bjcqj/7UafknaDAbojJnvQXLnRM8zdgpvzv4WyZQpyoprQhyKRTMtg44aiJrIEkYokOpinBkouxogDRBUna9OycL2YXAn5vuT7RHJoWaoHnfVdp4/fyC6mv33ytKCfGArHq2nYMDeNV4WGvDYNepq44PmK56Z9AmPX/inDr51X1MM2tOm1bBjNjNkyV4QdjCAsWOsmRUGDgKECwIbpUPK2OnvQFnD9hEYkTLSAntE4L/DKEZ39d0aUPjb9k6tCNMvG9icsAaNF9canm+qjHrn06XZyfv9Iwre34ezM1pk0jKgNMoB/VEzkr2DBhMR2yCYBJ9DDrY7gMdSurgCP1fMHXR08GsoA0Ba0aXAtn4/v+w8p3PxC4+S+99eotpYS7aUW56K+37Lzoq5C8gU6XY3vmx5Wy/hOcWn4d1mRTFfrDhLafjeij4QNj+ZumbY08MCZuhalowsY0olZyfjApUNPfnJjz9fE5XyINNTGo6bHoe+PCsO1jIpB/nJnNHE4iCzQlWeQXW/VZ5BVY7y8gF5PP518NZf+tpmW+DruxlmH7bUuqDZMQk42Z0PRLcDEJwKz3cTTM7Q8XKfxDcdqRWU/O5QOpIE5rhjghd2PTWMB90Nfe70xNjH31um2SSs5ksvRhsCRA0wei85XUxYjL58ezgfV+0zJ+A/qY0CemWXUwsfTYiBlsnrEXxWSLMaSaPZRcSygwJBRYBBY9txDoIyd9WXJVM6wJW13V3QQlHeg/H80Ef3L44tHZW6Rs4hcwJMSKWTMSoOlDh+zcq1PaLb0MWcP+AH4xPxByMc18YlDHlGMEm2CuTGsybOUSMVkf+i15ZTwoQHEaRGjU3SBopwfT/ea2AhBHCxjViCDwvq4q/m9mTp24/8YbL2xuwhmPpg5NLRKg6WFXbt+ujX93sxgpBvn/gLhkv4e/ja7bfLzTJ2Zi1PY3TptGCmlhEmuyHnZY8qrYUoCsDP7Xp/LgbmZ9WQZ306qyTLSGTd0shGe3po3M3919myhu354E6WxFt25cb9k53XhJUoYQH71P2+dnKucrrW7FDuvHqOgPgua+ZSEXM22ryazJqMoJF5MMpIQCyyhQ424ANjSFbqm7YeDZqqm0/v+8iveBg8HYMz+f5LxZRtXu/0yApvs0XVHit/brzPyp4uuRQfB/Wo59mQfHy2YWYuyUiVHL27zBlo4Fn5jmLjQr3pecSCiwnihA7obzab6g1OET4G685rqbMKqAk6aT56PaUL8xfmpk13XXydJ6olmv25oATYQUp6jsNW89mfNHUr8stfHf4KufZYyyhgfYFjg5q01TDiIsw+UZ0ZWbAVLDcvp0oeavgDon46pPfbCeX0vuhpZphwA2cwUfQufm1LARoFMFCvCk/lCkR/7ink+IfCJKa06z1V5NFoTVUq7Fc7uQUrnyvcoFygn+CEEA300xmQoaG7twTowiCdnWGVshR4wVqAFZrCnTQ2xE05QwgRP0XYByVpoB8uUAeOg8moyxFmMludw9ClS5G6FPzAf6KEyhkcoGwcobl8+I0AjvhJw33qfgLPDf9hVTiSitMblWfaVJF6y6zHX/IH1jCguF65Hx8kMIhPmSMEZZE18XRlmeHreDTZPQ9huD4xeTNmWQRmQCB2kIYEFnAXCALwLaVemVAxUUlba8QKQwIJJxtu5nRe8IwMGGNBphorVDxzxZrLQwFAA6ORCl+b77mBd4/7mcH7vrlkSU1tUOSxaArpJTiF279WhZF38CJsj/HTukSeQ+b/oGx5Zqy4wTjGeppRyM8DEIB61zltQZeItiADG9TSgj549QXMEvQByolirznq4UlRjFb2BRvI8Voj8wZIxbz0UL8bbYKDaPrWx4hDctXoXTIJ5D6HtBb3ZcWcwKmXB5DcnX1QsUpTFI56ETnoB1Gruy6WHDBBrGOvN+EPy/E3b2Y695kcjXxkTTB5OLLSnQdNK0fDq54TQFqI+5+q0LU1bG+l0Mzl/CimQ0syrjmM/B+RKiMo0YZQiC2WIWnH5Tf79g8upJW+oU0z+3qArzjeAe95QbFIuBHMNC3Tew4YLBBT5cOEBr1ItjH1gILNCC+jBGqneJK7jo4F+eKOA6PsK0KTbuDyCIyeLTYgErDjwJVMkTUFA47wgAyhbemQHd8A5RwVlWwsZvlKEVPdjxiUjbzORwRsy49PuK9yQn2qbA4p5Hzy4ofeSEK332YJOD0aAxtNHrwd97Qel3S1dOH04cPJsQrM1LTYneZhnr/jYmJstPzF9o2dafwDHsbVT4cwvc6MAOWU3nzGDLjI1I/mJgfGO4cuagixmzF7fmjRq45DwbCH1TcdbTnqflOPPp9OIgoEDJiw9YvGIBx1vJWkL3BfWvkhUgQhaZ6MtY0H1cG+HCjhs94g+wwMG9BMWwsrgG7AhBk+jEZPX15w0vMJfXmQZyVSPHV4U51AE/FLAFmbtggyhkwQTbCxKlLWlg96xHCM54hsgDsxC8HgTkyxLgOUPU1XwjEZHJUx88HvrcNC2CfW0jdXTguV/3A/fXiub492+5PEys1vS55GJjCnAMJ8caKBDmjXEXXuHY5kcsJ3WlW25sJckFyDKF2jLl+IhTZnMB4iI2KAcHy4aUoS2shZ3UGgupKPr6BMBmHF8pIuzaUSUhZfAhx6JhbkEOBNyI8n3oiGCYADBRI/juYgWnE0XIOpCLQIAFwgBX8bA+XGB4RNUnK8o/8z5WgI0AqaQLaEHl+ENWAEoZsEQufqf4PGpMDqkKfEs4oLDiyT9NKUDm0YVV2kHobeYKraNBOwAbGPA8E/jur01M5r6IWGmNJ3fTNycXqzMrocOqKLDjW/szI7npt4Db/nNkgTnHY8TlJkfaMfytG2yKzEzsngeO9g4kCjMpaP87XOC4JwdXUTzmaTdQcqIZt9eEfGcugbkgm0LWAaDi+UqZ4E7cQMPGL4B4CxxJ9ZLgeh0eXJyjApAzFVv7t7CeLIbghzrjE9ohcEFgDMEBgdORHhrlQPYGsRxFcOCPIZIkaHbaL2uv7eCVQJKCUWSsNHXilNdSmrCYNhq5P4Pf8edKf/eO6zcsDF6r+1/j2jzsf00GrAY7dh8dzenMT0jD+iMsDjmklG3YAlzXoxkjIMgAbOCAyQ3sYB2sMZT/YsquipA6rT1ooBZ8dXzB0xs7ebaGDwQOcCUKul2K4gIvCCwgSqjwwAJLpqk6lquLcyevGIh7lwLQYrMDBL3zyQLB3M8D4ljoHsuirJLmC/g3AZ76XcuBwjl5Yt4XcPDkToXkbXhQb8Pxq/3gwzDc/+9vumzsJJ9v+EByYQUFmpB3xb3JiUUK7Nx7YsyoOL+OKf5bOGU1U/pzoZzMWR5ABptRibwxgzk+WessVrKJVQIN178iNpGzFTWOSVpffMbRWCUPuBWNgLtwb8D208MPcCxgVRTYqVBsx9V03R9cHTmeSDJ8h4eiUFCfKYBN4MBSHjI2Gi2Y5HlwY0KyZSOG4FIoKbX/mGu48ABrdpBjJHejAvdfPOH+19LuLx+45ZZbGjvGNStsHV5LBl8nnY7Jevv9h6ad9MSt0jTfHzphNlFuQyasN006wYZJrNBCMDnZwB6s+lo4Gmq8vUCfOFJRGSyKVL6foQV2hzQSCKBagSMO5GuBgIYe4KLChG64EY+AhEufOfN08q1GgUUagbJElQAGBeR0FPycDGxzkOFbYmuO/xLQqVGMSjGBdAPiAOS6+VLz0DUYhoJ6G+hsvoZMA7/oHBl97MYbk3TRp4nZ5AsXwORogwJY/+TOPYVNWA3/1Eml3kt9zFmL5bIywG2rrdNMTmZbtGgd9DWSsAAdjZjhP6s4CBTU0xytaMrF4cRJbEGqaoCLD0MwKG8MisJwD82mE45lFTRe8QhozjGKDx/6nMA2TB/dB8ShmI0580ILinW/BoAOFMeq54/5ch6BOTnWmx1OKsNIAo9AmPbzc8a++265/PLmznLNClsn19b9IGunn7dj8XvFo+VtsH/9C9tOvS0M7d8AOcIFGU6Y58zYwfioRX3M0NCYqz+BJuTP2iHckns4mYkrh0tBERvIrAvbYw9cDERi1GITvYaGTkuaHZ+v6IDFjVEAkZrnmGbgIPqKjYx7WFlxitA/PGO1U8KH4xMD9PBsoI7PeRiTzUsIE6qp4FmvrH7hxNzRXT+V5LdpSrBkcjclTzj5jM99b/4iJ21/zLKcG91KEwtHiIDSjlTnbnR0NiVhWtui8AG8POlIQe/DTprGQYZ9tTpV8f2DZR+OK9rGogaVVTL8+jIEFkEH1Pctw3QhWhMpKHaANjC5D4F/XXZMFWyFPn6KOW6YUK35KGcyNYzjY75X+ZViYeyzSdiaxqN5XQ6oxuQ4+wrTLacvz7/Y1sb/wqC6PoxZdvYtZ/1CMEwPICPTqcG0LDurMXV+cNqNwIkGIdk6AhqKJY4CZI5XlIW5C+6l+QSu8+rkVFQUqIIOY+RArGZ6iF8nHdOAyQcY1+q1dbdGEHBmYZF26LhHXWFTVttiuHUNg8rA/3Xh5j7xtmtkMaquGuRy190garezCDLZiwqXybT8OMRlVzXlZFAofGP8czba3BkOTDiZdmmx9D6KzabbFJ+BZdEVOCAcKHpizlN8NBlvS4kZp+9cXbmDh/UaOipIQ5+DjK40l2boHXrDrqu+o5iY2TsPIk4aLNKaMt+M/gzalT0d/IYTjP7Dm66UCF2UHEspsK4Gz9KGN/segsxL3cugpgbIOACZJumWMTnHx6xg24YUooXogbYsa0aT2jXyImOYVznYMDXjSzAzNSI4+/vznigEsLqtFZB8xp8CVdBBqBzppTCo02H8LwFGh+aB6wdwCDb5olLPH/dkpUWqaKi6AMcG1I7+7+Rl8a9uuXxjPv4d3bsaJvN/Ga2pO/jyY4XLfd/4B2TDfHkzkOFiOpEz1TkbHJpJDZSPDK2QQhl0KJOnKKy9BYReG6BRMGEb8KuBATfNZZccpAnK1fOwUYY+xoC7/mpsB5aUmHztGwWqojPalnsOTKURC8eE5RoNB2jAcVa/962OEb+YYFOsaPXckYpRaeFrEzp2wolWBd5v581yAjZL+mZdDJYl7W36dTtA5prv5V9kpc1/RB6ZpiCD2aemRg2Iy+AaB28urK1Ny47DRUwanUboEmAEY5cg2JOGabE0iogL48GxDwp7tqPxmACIuF6g5jxfcHc7aRtqAiFpHDiihnADDMJc9I+XEUvKhRkzQ6PEoeFJHdZIgXAjQtUaLNUMdwQDCIAD31BEpG42Xtb41rg8TgavXFFi/1EPoBPmi2hYtTNgE/x2xsz+1Y2Xy4SzAbWSdWBxyHCB/eKeygtghPu/Tct5XTOdDHftUznD27oxhd36YIjLmKRsFAKsFDgQdPpSiy9yIAoA4SI8jIF5FFqE1WYS20oIxS26BJBBAFyKTxjyPgxtTMCCIRrKYzBLaVTgcYnyEi6mRsAh/MR4CKocjiFScATFGCE3P9RrSQg2mCTPH3VFsQwLgSYHwQZHgAnymwtG/q8TMVoCNOFw4ST50lOlc4OK+Afbcl7fCmRmxk1/87RNq5zYczJEQuhT1IgFFADANOK7QqRApJe8r71iICyEfQnFI3Ci9D0QqOwFBuKMMXTMigVlaZkrLoYUTv4ZRgqEgIO9RQbsDTgd+IG24IgHnAhkz11MgueOQO9Yah79uQY22Hb9VqKzqbNoDPhYWFX1d+3Oby4H8qNWynl7M50Mlli9YdxaBBks2ktX2FW9ObqHuOBnTBHkKOag/qiNVwE4cRf1K6q0vxTAp1JnGRIGHAqV+byYHAkFVlAA/mJI6U2RGszUJDJ7w4pgWDkcgk0FjmD7j/htgQ2YfR8pK35DVTJ/s55Nn9f94vGpR+en077xYXj6vs+tMMx/gyV5gHQywBYFLgaplqtisgYtWrFg8AQ5m8Ml33u+iDBZPEHwiTOiso7JEQ8KwGgAgAOjAcMKnT+HdHNyhrNxGZSz6RpqIkM75l8JMWt+dSF/6v/ect22Jh7f8ejGKGrRlEhRvDBOZTIKsyo5f+A4qV/yPWbFbLwkT+ZMOmNiHY5vBGZ25gh0MTkoTSDjaouLWd4f1Nc8ueCpgq/glpkcCQU6oAA2JZxDMBRx00hNnbYY3yZMdDd0Q2kpZ5OHGK1ZAy342YAseUimf1anDn/6pksuaZ64qgOSD8qt4aZ1UCrbzXp+8aHDWeE6v2pbdlOQ4cRBmP8AJsw064ytCTN1MZOOEUw4yJCzSpAhNwMdTYBw/okyv5uDbb2UhbnCBReiNAeWjM48okFAt1eGMSJW4paxKgeKSgwv5UArdd4mW4ymm/uU+T5Cx0oxKgzzL1V56xvuu0/TCXZdHesSaP5+1760J7PvM6T924jt2JSTmcjZABk7TN2OeRTLg1zMTAoKfwRJRAVXPaOR+0UfLfuyRdSNWNIgqVSMKMCJAlcB6M0z837gzFUCF8YlsNmK6wxaHe3YGqil5LmICDKSar6UEmwMaU4j0sJfH8stvGrHouXm6t48eE81p87gtadljXfBcmrj9PSbbNP5Y4x7R6n6uYu4A8tlTJ+DCG6JseRkyMWM2zJAoEvZrsK/EYEgCtAIE+PnESpm3Q2KRkRJzq+RAiGHY8JdPnOq4hkFT5XACXjY3sd0y9Z5cwk2KYRk2gbOBtlzG6p4WTLF87BG2yY942O5RwqXQ1rSTOLWeWVi/MS6WlO2Y5dVeWj+5fA1+zB8mycaZsbERMAOJQQZrLoAmfj1IDx4AsQcUzmbVsuNzZbbqTmtzUqBDg4WPZo/r5vB3w5tknu6QwGMK7sUqPSc6/uw2qKOgvmTYzizOm8v14cMQAabUp1ONV8umMfKtFOXwtngL3c+Wj6v87cN5hPrCmhe+cjchdqyPgLl3PncXdQ7OPLT4BLO2WhJx5aMNhyrgygwagFk4JfN2Jao35qAgQ8jFg0CX/oCzpqJbiZWvT1EleFEojgN3M2C55sLrl+GlbCHFsZshq2O5tTZIHq7RGBdDW1u00bRhQLR4F+LIFB/cvt98zOre+NgPbVugOYL39JTEDD9T0RivqaRrwxHPNhfgIwtMikzdvlkKN6Csj+AuAyeCmvjYmrDFA6ZCtGV1ZyLzL+1k8lnQoEIKQDMIXeTma94AaJ701hgKLgbgs1oWhowHNJw525KQTqFW7b9biRk+N3PPnYs1/TmIbi4LtaWLz6ks2q09P8gftm7wuyYDToOir1g64yloJsxmWY4Tgd0jYqisqwVisrWLHMIORk42kFcpo6Vg8QhM06dPfR1Cdlw6UPitOAFFoYgpGmKplnxmnSr6AcuG+NZQ26Zhm63OdZAZ+MJBO79RdvP/Mdd+3R6Fa8bmEeGHmh27N7t+GLhvaZl/Jrve+De649lZFBXW6YsNZY1LYiSWgyRHvYvqgvHSz2FIGUAmzWLylhzqGR0BQ4z+zHDj1fAycSntT0kbPKqvlMAcxHD2y76QXoeuhs3gO5GhiH0+l61tVSAYDM5ZopNUzYTyjU84LIGXg7GN4Z1q7tQfPOuXWGIp4b3D/KFoQaa7du1MR6c92rDMv8HhrSNTq3bV1RKbhy3gqlx28ItTYZG3ccjO8mKjEGUN+Ug0Q3jSHXlTVLDsix4Fh6Zs5UgTGrVlWKTQhIKrIYC1Y0fYuuLDAwFrIILURrSUAy6oQCbtWHCEjPjVlMtahAEWHDkmLaMD+WnilcMqyVabBbV1YzRVs98/oHSBdpSn4Qs9OW09qh7AGSmx0wPvjL0QWluMlK3gGhOhvoYWyKMjAwZjrWCDLkY6GP0LFSwhxHYzWOemKHu/Wj6JSk1QgpwQGKbj4jglawNQTe2+njbwI5SVhyCA/H8MV+fXPCbTjcnlRaeW/5GyjHf8wMvGjkQIZX7UvTQcjQ7v4PwMmbw+3Yq1Rhk4Ns4ljGCLdNOrEAGQcY09TFwwAz7Z60ggy2VBgMTPJt31fNFH34NCcj0ZbYlL21OgSp3Y7hKU3ejaCgAOS+5m+bPxfQq5y2tdrZMW0z1HsoJG1WVBkq2k76+7AbbP/uYHjrjgKEEmp0796bEaOqnYcb8Pq9BGmYOgjQsuLbC6z9OvjLMG0NRWaiPWetmDtwaJq06WvL8pxc8edJV4Q5xMKdtoyka9XlSq9Ff1O9en+WT2tCTpua9wM5XPKgT1cCK0oidjB5wzowNx06IFZrsGj3XFaZp/7Tl5X8qXMOGqPuHDmiol0HMmOsNafweuHCGK6/bXY5tBOcCZFLwlSF7G4cDoWTUJPxjwNGsTR8DgIE2SiH0h//MgqsPlnzml0nMl8/q5EXw4G659ncWsFO0DtdtJEkI/xBBQtb+eA5CkXDZOGvsLCkr3IXzHcmxBgpYCCWQroawUQPrc8Mhgk2t3DoDs+cmoWppHIAhZ5iGvV2es+X67fi+BtrF6tGhmwm331c6z0qpT5tN9DLoSXXutOXDMsSGhUjfaUDFZxaWZePY+WB9WpONJ8a0LvnKP4KYZcyYiXwyoY4nVqOuL5UhCODF3FOAwhLwIbBRphRdBh4ENACSwA2sStGQXkWagaeEVwkMr6KlXzGQfIjcYHjAlMhXdlopOyW1nbaUZUtlpXWQyiCClQ3LDdidwIwxTDVXA5yloyzc14T/1IpMPptRAPMD1HSzlqmRYA32l/2fs82q2+gaJ+KxOV8cOu4DTxr3P1KWiMDzHvKU9863Xzmxr1F5g3R+6fAfpHrXrSv9ZTyz+KGUnfrZhlkyMWg3TjB5mUWv/763nxVAcjJ/zAr1MavmZAhWkGnrk5UggF8M5dzr3GwZlCVxOZ/Z0SGP5wnDc7VVyQurMIdoj4dNZ/5YYM8dMfBpWKU5zy7lTaNSMAyvrCWdqcjFoBAsDKd3l6B1dX8CXbUysWtxMsj8lVV+Oqf90SmzMrY5cCc3G+7EZu2OzUg/MyYARFIjaB6CXYnQ5rXqDnVmyQzXncaLT90Bv55OVndgHowEggwMBdD0MPb+IJLg4HFPnADgNDucVAb7nPInxpzsL1z/YrnQ7N5BuNb3hbZbRMJCYN758MKPW5b9t4jIDBCpY8qMeTyRszwEwGNE/L5bmHGHk4OTKOKVcS1bNcigWRopZEIuhkExF5fYbpF2cMoJuQdUl7tF9L8R+AhuVxCpwqxyTuyX6SP7ROb4Mzp18rB08ieEUS6Ak6mQ9tUjfB5gwFkRfq9Oj9rlxbvCj+oVfMW7uDsNgQzx4qr3aJhxmELZGe3lJkRl4lxdmdxKwJHuxCZdGd8ovbEZEWRyQmFB0YaNP7538d0sJHxpvTdX37A+/w27KoAlZmXUsZgcCnM4Rj5vbXQKh1UA80+kg9YLxcbpoCnaMBCcRCjvV54tj37s56+RFB0O7HF6vgxsCxYrfufD+ZfCEPh2wzDPD+CYWe9Ip4zgws2OgH7G7LdehiAzBokL4pZBj7Q6zopcDHQv8Oz3+Wdi/K5DMRkIyVEMIhrQnYhKSTrFUyp9/BkxcuAxnT30uEgDZKz8SQi8XIizODJgZAhKVb3pwhP1hkvrc/C3A2+DPQ0AgX1IxAmPkF0J6xQCUFX2XgUvuEOB+5HByJguA3zKG87T5U0XisrMNlEZ3yBD8LFTAB5s2rkq8S8BnbP7AhwlQll4OQQVg7cjUHqwwIaTtFzR+pnDrixDQttoBDI7Jzr/iOt7P/z2K8e+i8EwsDuPRm08u2Nj/usbMAecc/P/10ln3uGW62dKRao/dd4mR42NGH2PYca1YwJKwSz8ZNYCMkhQFkDRr+ehWkCRQ9GX7Q21xdZy2kG0ZXgl4SycUNmDj+vssw/J3IE9wj51WEL8BWDhvbAXJ8fQbRL52hc+uJdOCwbwcHfBuocHuJ8AYjd3YoMobbxIFs+7VJc2v0CUJzaHwKMtcjx4TQI6VXot/guKlEdTluEQbDrtg7NK6v0Pgs1cQennjrihhLZRDehf43uVu5DN55abXp471ui+uJ8f+MWJYRvKG/I/J037L5TvQ2e7EvTBYutNU5a3cYqe/2dk7f3oHG6kJ6Avpo/Mypq2XaPQu//5oieLcLzkEro+jkWAQfgGI/C0nZ8Fx/KEHn3qXpl77mGROnkIxmA+ZQ5gNSiGinx4KwGXdoEoXaD/ml5W5XwIPpDdh8ADjmfjNlE473JR2Ha5KG68QPq5KYjj0gnoLBns8FNxc5jWMBJwwNkM1FTg8Dwy6+sjs17TsWM7jkDitN8/cuzo//ipGy8sL2n+wHxt2sBBaMWdu0++zBCpO7F13VovvwxxZ2rM8pArAp7wkFvUAaJetbMbIIPm6FMwWwbImP56EZWFO3kuwkpYbkGnj+9XY0/fK8ae+I6EzkVKci4QNYW7/l515tL3IP01HD8oi+vaQlc1XqC5a4DgSRldmdoi8hdcIRYuukoUt1wsvdwMQCcFeCOgojJ9HNdLSdHz7xgboIA7AiOBtGmkQYqBWtM4n5+DCG2uQKOT+geSpaFVckEFwbtvekn2yxSZ178zvmcbtS2+NV5SM3r/66zzccdJ/3C90P/sDeplLtri0Gmqr8p/aOhhvgxOBtZlqx0lDMF3oqKCQwXPhNCF3PdwH4sciYTOzSqe0qMH9qiJR78mcs88JK3CCawvFIktipT6SwnEwQYiUIy2Sn1b0+oDRKrA48N6LSXcDdv0/AuuEfMXXy0pYvNHxoWmPD8EZJa02hHWtBbxvVjdiPgj8I3LwksbFcWgGIyDVa+4Wu875MqKC5Fqg0lNk2fk0Lq3VJHvePc12UOD0boztWzQrDM3xPUbc25nH8n/LCIifaSRyIx6GViYqYlRy4SlR9/aSkRADhn4yqxuK8KKQ9EfHC77wdGSP3Dy6I7H0OJsk7Aag3WYzj19v5585Ksy+/zuqt4Fi2oXmYeOq9fwARhmCI9+nA03pw0fbf8CCqduB38Kep38tkvF3KWvEQsXXkWLNqEcRJsPF16WuI4AB20GHgNoDBcm0JwjBJyBOLg+nMwr/fyRCu3mGx4IUQMRWuWPRSr7gZsukQ2CNzZ8vK8X+rb4rrXVd3x/4VLTMD8PNhJWZnVs0rGmb56kXsayuSFc6/tW+zzn/MRaQAYFIHy6PlzyPYT0H/K8MdVuMlSgrfmjYnzvd9TU978ss4efgO4lgB/K4q59tZ3Ri+d6AjaLDaFRQVDV6cBqTZ8C4Mxdep0obbhAwnk01PVUsabJ6tULmvTyHbBIyxiylHUs5LvsvwtDJ00/dNzTcOjkklH3oAgNKoIF7QfvfMuV2a9iRzEwHduoTXUbGpeTt98HXXqq8Nd2Kv0T9azMSH0kL/Mv2OIgFWX/BhuJO+7AhLnKyXRMa8piGavs+bwrTnmKG5+Oy4hLnzWvx2LLsGg6xZNq7Ml79PQDn5fZA4/hAsIIhWaeA9T0XoLNImFrXA78c/Tci68TJ196oyxuvUQEqSwAB1LG9aXDUWnTrOQccDZSDoRjJ9HFg9L12cOeLpQaxxFFkGDhu5VvCk+8c5Cs0AZo9lZnFJT58vaH596VctKfQC6HVL0cMzZktedvsnU2zXTM/QF97Dx0zhYKDpmY5Z0DBAYePP11sD/vGXNeAOOageuq5thSu4p20cjbLM2L0Wce1Bu+9zk9+szDAFVyMJSADOjRB7AhpWArCzmrJ4LRyZDDmb3iDbJ47gsBOCO4uK4Ah2BTyDom4tRKOHD3T3Te7gjmTnKhqPWzEKHRqbPREVqhVSq/vdHLffCaAXHkHLjV65P3FbZkHH2n5ThX1csxQy4AYbmDDZM20zH3rX05ywjGsZ/CcCHQdHSwDeVAqf2I7Q8fGYQx6Ojxwbg5BE6YzSGW2MihvWrmvs/Jice/KQ2/PHgcTAOKQ+Ae6DAUZOhr0+CuaE6HxgMAHD87pU9e8Xpx4mU/KOkYGupw+Mo+bcCiaW2DUhH3AZZoeehsRjAJB2LXwql+5KSvD8PkudG0D63QtD4aKHHTW6/I3t+g9bE63agtsapkrTIfvU/bW+38b6dSqQ/UAxnOnfFRMzh/M0KlwuqxX3NpxJIaUZjJxnQuRAXIgJPx9ucr5gKsmAaqg2od1eqTXAz0MM78ET35wBfFxod2Cmv+OINRgmLD02K0BLkiYY2GsED9aljI4cA3x5vcrI9f/UNi9orXS8Rhq1qp9WuCtBofXbrORYD8XcYwiqMAG/yMvTUahz+YUkYNEAuFxiK0xURpn84Yoz9x4+Uy3yWSRVbMQM3qnQ8WrpKm+CIWow2q5lW9hDSWJRVMmXU6ZTIG0pIrvfuaNoSaQjIZ7KA6NmMmJ1NCyNZnC54AM4NYTr2rd0/exFmEbjHhC5N7+nvBpu/8i5F9fo8h0KlVz/2e1KLXL9Ewe4ZjZ+hM2LceDXU4mBPFbS/WR179bjn/wldgBR6r4l+f5kpPOqI65lSKjp0prBADYI3GeV9AfgSaPMMOqC6ZCKLSgDGt5/7kD1059gmuHXVvjMnJvg38TttPAwDDzv9dKpP50Uq9MDMg9NYZ20eebnr/96VdNAmbThkKo7ljkGH0glKgvGeg+C96GixZpxSK+f3QD0hs71OzBzTEZHrDQ1+QElGSQy4m5lXvQvU0zJ4VbNQpRu1rzyIlgtBWSoOzEUdf/U5Z3nwhuBtwksMMNiHJtcqYRgnBOGH/PRicDaMGNBOhWbYDP2H/kfycfPMt18U7/XNfB30HE1je+fD825F9bgd0rM5yAwBC+RiszM7fgizjyHjWjzkDcNHgZJgZ02iwCWnYXO5GEBdTgZPReV9ZHSt1GpYchwsYYvjfcMt6bN/9atPX/1FmDz4GW8CY+sJERTIkHIAIjf/2XXwTxlmDE2xl4zZ95LXvFScvvR5BPserENiPyRMVzVeWq2D2XAHgMKdNrKcZF2bkktL7DriyUG7uyOm6ld8/4I7+fpwjPLM9sT92fGv/1Ghu6g7Ltq+tp5uhY+aFWxzVLyszjthJx8COKdTJdExT5Kr190NcNu8NGchU2TJtLxzXM/ffrjfe8xnDrCxA2T8QetnuzwvmrnCxLYINRPcL77xECd0NLPv07Mt+UBx5zY8wkjSWX/gqoZpDfKhR23KR0yb2sdEoQptH4M1nDzd25AwNA5Q+pnz9xh+6avTBuPZbLAZ8M+IA1I2R7MR7QNBrEcW0zq1Sz4yZQRbblH6YMhNVkE+GIENxWUcgw5sRJTx4vuDJYQQZKvzhC6O23fEnesvX/9E03eL6BRmOXMTaE5SvhpoqfvT3CB1gke58+r475AX/+odi/InvaukiZuPQyW2X0lkaBT8wK77iYhJrvQYlI7msISbHmKOx/oH4Z8JyUhvAJ/86NuTw0o3n0dHC2I8m7HqoeG7ZUF9GEqAX+XXyzGRSpn8RRGYm/FUa9kaEFc/Cwowh/wExHdGSNzOXDDgZdXIIORmaLY898W219e6/l+njzxnaciLshQErGmLSbkR87marqbthzLQjr30PrNNukkEWorRwdWu0xHXz7b0uC0pUQyDqs6lgN5SKs48NMd/1tH76YEVWvPohTqAv4OaghISP7/ihl47+W6+p2c77Ys3R7Nq1yyoa+mdM26kLMnD7VxsnTQ1bkr6AjIOYjmMAGQyGjkCGHcPYZQeKXgCP/yEK8w8ygBh2aV5tvOeT6vw7/9RIzz6fgMzymYhsXQiJGiv5FMWZVikvtn7pb8W5X/ob7Zw4gFoDZIaSu4GqTAsn7yLlOUK+x9lii5vnFDLwbpiwG1o4AWAEYomCm9H/ZdduPbp8uMXhd6yBZn7q6hdA2PAziACwglbsgPERIwyY2anyfUVhqzgBjb1GoEwBR5eO7QoZFvFI2fdnhylhGdEWRg3O/LFg667/rbbs+jvDdEvV+GSroO9QP8JtCZx58V+8wKa6M5bT994uz//sh9TIgSdCp46hBBssIFC2A2wgfFIK3pEd7xV7NkS5vk3mDDk60thrw3NdAWOp1xf8/FvjyKHFFmjug3OmJeQv2FbqHMXAgcsO+swgYCZ5yZ63gUNyDMnLENuiYyEvxow+DhOzIyXf4dK8rFmD+ZPNwMRNHd0XnHfnn+np+29H1xkAmZ53zeDQj/oaiF1RYf7F50BfUsyZe/Je4/xP/bHIPQXHc270hmSoLie0r3Uq7wcK/iord7PLb+7jbxOWARsnLNFI/AFwgTjQMKUpf+2Le+Yn+1jVuq+O7UpwLFW41DCNH0cOhhUVJzczPW6qjCPpM7PietQnoJdBhFiwJfVFpg1fzznMpGWIxNyx4UDDQvt9AY1Cs6D0f1Sdf8cH5djeb1mhVdmQLkxdJTdM8aHEjRVXU2sfwSZz5Clxwac/qCce/Qa2/9jsobrDd2gJwwAHUmzaA8ayL0hzLnNZhKWeyMG5ucGS52GttEzrFYh9/q64cTWxHDm7d2sHbO374ZA0XS8CQCYlg5lxbgd7v5pRL4NAmXxxR9wIHTIXPE29DDJj6uFw+ifIaKVz+76nzr/9gyJ7YA8UZonSv+3FmBiNsUQitv1MD2/UsAC2547J8z77p2Lq4a9qyU1f76dcL1pslBCgF4DDXW2DZbwX1Wj+DpIeMRy1XbVcXHlziEAUYOtf+fyT+ZmVN/TvTCyB5ik9f6VpGu+px81goOuZCUshMXNjgWVE9KSkbMKBMzuXhg7ewQFS8hXMmF0Jw5GhARlsrfTYU/f6227/E1iWPQvCJCDTwbCo3koRmhkGkuhkSHX8mtU+wBQNVmlBbrvjL8TM/TvFMINNIQgMWIK6XKpXS68onyOO0DBguom5M9dM07JeKoriR+LE1cQOaHaAmzGUfL9tp8ZpTbH0IKFH0iI0AOjHSAAng9gwnYEM6+8FyClT9ERxWIJkEjnByYzt/W6wbeeHzNTc4fUSSmbpcOzedxNggxh53SuwuyUxXbZZKchzvvRRgM2dgqm1h5GzgRgexgG+hvW535G4orvkblna9Jgp0uBqGq+BuGbIX/j8A/HhamIHNBk59xJYT7yzXgQAsAJ6wzhUAD0OM8MOTUM0Ct0Mx19HY5AWZofLQQCHTOrzBv8ACSguG3/yXv+8L/yZ4cwfTUBmrb0KkkKExpEVa7BBGCGx9Yt/AzHaVxZ1NsMwoM/uPLispPKe8uH8Hcu+4Gbbxjo0A3Pns2t+5he5GuhqXoqY4TfHhauJFdDQ0kwG5s/Ytl2Xm8mNmMH4qN3zCABMPj4OK7NwjT3Tny2/4X59ouIpWJlVl5GWT8T8BuIsxWVP3uOTk4EpszHQycniRG6K0GLmW7OcPCFn45XFOTv/Skw9cpcOQ9VwTAzRQbiHb00K+aBiq68h2EzkDDGCwIoN0YaLlRSx4WpiBTSH7fyLTMO8mTbhyw/GM4MiTIF4Pa/zGELMgFPtyCmU02/BU8GhIjJFdsgFLW97LH5zQQFw5p55AOKyD1c5GcbF6s3B+VT7680be/2WkKvB2Mby3etXd/I+gg11Nufs/Gsxvvfeal05NobogI7GKHgBjHZEvZhXfW8piW7BugiR6hs6cYZcje1cbjjGO3B73zuo54t2o15iFABYS/yUZTkzyy3NiOBjGUONjhg9N2fOAOCQyKwj7SDnHTNkHih4BizMYDsw6AdagOAL2f171LbP/7nhLBwxow2MCXIbpha2o0QqpUU644vMCP7w6aQwy2yEsw0txGO9KHfc6zRmhOl8x8/1+AEaCNj5E/LcO/5SZJ/bLcjqD9MBpp1tshcqCDqKbEJxbBvNnceypswiARbXxwYHXDD0z336gX2IJ9Tfo2db0lbNnB97+QW2aby3nqUZuZnpSThn9ji0N63Mxqn9xzLbuC9XtgyDQB0tK1XwNTYeK68P3Bk0InXsmWDbFz8iYF0WmQkzfTy1A2DJZLUYGdEykw3gtmvDjCaAHAC9gV7wYbdHh4FC3sKfFMWiAR+PYaAyhwWABn8K/8UkwnOjscqNRur4fnnuzo/oZ37kN2V55jzq7hrdPnjniTBSOAXPryCHDTfksdmU14hJ501Y4OpC2a07/gMYbcAC7eUZMfNGPLOj9lw/PmNBvO3b4UNuiffZTmpLXW5mxAhG04bZa+fMUfBYQOLQ9rTdzuFyOFsJAvwhNU67T8X4PohKEOY/2PZv/0uPHNhjReMnAwCxodyc2ajEBZcocdElUpxznqmnplMiN27IkWxaZkZS+EyJsQkppjekxbYLDXHRC4XYdp4So6NM2NHJXiC+BCegYmMV3wqeqZnGHgAcDazR/kbbhZPkes9cHIZv8HdDpEq7olQsTZ4XuRrRiKshZ2ZI08R9P3f7fQdH+tklsRgZl910bCPCJ7yvXkwzcjNAbe71elpXcqTgTDuCCt6MYMzBQThlYkva0/pGMoiwcMCsVW25++MwAPi2HQnIkEtJYw6cq9nHvwAAQABJREFUd6FW5wE8xsYsxtJA4nTs7LHe4o+J7mp/tXM4YQjHMcWmLYa48BIEg5ri4jwMYEOgwXZlMNrCMTGx++ty89f/WUsfKo3Opkwkw7arhWphFVzfgBlaLEVo2MzCAg26mgYrFZl/hLa/3rJHru0qXTosLBaLYTadeQd0M5eQ1Vt6cA0ag6UZEJuo3LODRMnByoyd2MlroTwMDpZ8ZO0dAqdMjFzkk1HT93w6mHnw89FZl6UzWlzwAgUuheSuggs7vp2D9wWwD8mMGPq8F8hFsGnnyXjfw01VTEPT1CUc9gUbvv0pMfXQV7iJHjqwQaR1GyFqPOjfYxcPjesidNcNdTW00kbCyJSW1k/Tqrdu//XgZN+BZjGs9U/WQ+RQN0NuhvLRNteetdKMrxmBzwxCzXQmMsNu+ljZR5iZYQj7j+0RlO1jT3wr2PKtfwY1QP96HbRWYkMsJ849X4mxcXIwqy6N3I50bANlgTtKo6AeDZZV17jlg+BqMDUHhasB5yuhJ9v61X/Qo/v3QODU92WlJYE7vEHCFc7BH6M8x25wURE8hWgBjaZoaMUr5VuOZ/KQNffn6PuIKAfF15mWfbXvLeNmQI9cxgiyKYSa6SFtwlhmCDPTgBOtWxN2cN7XwbFygC6n7cCAH1goMkeeDM75yt+YEJ2Bm4lgmFBxPDWtxNTUmkDmNKUJVCMjhti4mYr0wT+QFjzufjVLiUyzZ/vkEeOcL/+tduaOY2uITcRwHRZMniViMMZOhMbhPjZq0q+m7sin3tt2nElMkR/bjm1AP7qlLy+tNZThZmCg9ZMmQgFUee7aFYxTOK9NjWO2waa9XUnKmadX/20UDBSmSP0ea1AsM2UeKroScty+0rNB9To7jQXCLM0HW+/6O50+gcyYMGWN5DBgRbhpEwInEJu7dCjsD6Y3SJhDx07EsYoWIo3AYEEmjQNGn/yesfGbt9E6cOhEaBCNhyI09GXdBX0VfdyVR7g+wi6uGtm5QYmh/lsat7zi3mMbG9wS6em+Low5VXgx9L4/uNykmb0ITkZlM7SY6F2fpiAkGoHIopM3gpvRJ+A0s+BDpdO9JTPSTm9YOBsA074N934mGH8c4f6xcERysE9zY0qMjHaHm6lVkuXaEKGNjdN6oHZ2cD+pqxkQ8VmNyORsNtzzWT3++Le1HjYrNGxAy35gY0NJK7Rak2PxyTVrHFxNGtKYehVCIlFm4XwBRMtvqXc96nN9AxqaNPtKvAepACaWB8+kDn4qZyv4sfSsfhw2Y1YoMmt7BHGwFRD6H7qZoRCZaWmK3DPf8zd+51/hzUE/07ZJ0dk4JSCMT3SXmzldA3RKbixme87TlevsCwfYIBkFsHUQsxqVoty66//oFNNBD5MIDeMW2xe74EKApuOVKI1TyoFj+QTAht9XHDiJ4QQFk3zfrn06veJ6xCd6tpAvb8dVbz66wTTFu5ebNJNGaUcGuSxdw3tz8D2IAKAROqhtTR+XYAw3dbjkCVf1DhAjowgWCDt/PNhy9z8YVnk+Gr1MrfIGdl3Z0Y70YLVHW35ylqUz2KIMgY4AOy7mCsfRq6nQkrzt3EBnzsyBx41N37wNJs/DJUIj9nvIQQrDABcijNj1C4EGKVTqdhP14AjxdW1pfv5ldW+I8GTfgMZMp3/QNK1L/GUmzZxSE6OGRqrmnulmuCSNVpMJ1e+hOh2A8aZPIfreUERlRmMoMtt4z6fU6P5HIg4vgw42oZ+xU9HlE7KwhYHUtU63Dd4pbH6w/YndgtaSkNDtTX/vC4iH9l2on4cA9GsNRleAm7GKnpIILxUrwwCaOjNfTS5bf2pRcgSjgBHoRX+UEqVak3rx2dOX1Rq0c+/eFCxq3ssU17VztU+I2AOgMkFmxbXaPd385AymOTNwpu3tCdflMnLMHC4OR0pmLgSj+7/vbbjvc1jWol0Uwk41jADaS3hkdv8IyzQtDyIcRBAZvPV5BUW4hQ7juq24EusT1M9QhLb57k8wSyfcl6MdV70mBkAmVXZ9P5RG9frlTd7HtWkS6Z4bmdhwY49Z8fZr39nbXDV9ARrtzlxqGsb1K4wAQAGYNCs4fANoerNIwAYdeWa4bWz/4KbmOJAG/69EyvaLicedWBDM8kKw5RufwOe8GYkp85KWhr2qAkuoIDrRKNTQ2HZ20qVLahi7r9TTDORBY5KRZ3fLmXvvgPCPPT8sXUKDOimLgTJhGADfmvh0D8mczSCFQAZcTZ1qUVVhWfaFvlRvqHM5slM9BxoAiNSB9S7bSY8tNwKAmkBPjiH+BmXTPTjYEVlyM53oZlCzAtIyn0AsszgNsNWRC40xEVLs+1/xc0/fb0cbkblWQ7yT4WX8aCyQw8mFBUAEAeRzPRlGtYZF9xnOh7rrRnTv7FbJsOLcCCu00YOPI475gCJmPVqgO+AmbJf8AMxNfFhnjn9wM3JytME+DpU14AmPW360l5ECeg40n7nrFENWv7OeEUAmZSiETqwvYKzX2Ws8B4AJuZl2i+GyBZxURxlmBj4zg76MkXuxZw8Gm+75JMYBOYAetYjRUV2XYod2Sd/ZfZUK4h9HIpnrrB7dupuEinlStEZNpSWjNXdMbvzGDiG94YqFxtW6EigLSBMrc2eCzeiIKZ0G8pZQkiSN1x6zFy5q1G/dPt9zoElNG9ealnnp8rhm3BNM5izmO+6J6pOdgb6AT1xnupk5z1dDYQBQBRW94XufC1LHnrV175KYhWgtigv1Df7XPMIBXvl5vGM4bAFCcpCjgVXkmknTpwIoQhvf8w0x/uR9MAyIyAG4H20jVwOzlpIHeVSMBhyqBVNnIZGvBknXVxImNAqwESnANG5aeTWaMz0Fmh07NPg5eTMCaK7gWmwHqQAy1HpGtMtdRj8O9ywSLIPrbeuFvAl+P+BmAtrSt/XMslfG6ieVs5kjT3szD34BmsNeT37QfW4eATQRrrDbR4CQpnOnIAwd+C5aRpkBbhANA9yy3Pit2xB1YoEKjmVtG+Cf5GqQSgASDsZBi09DUBU6cDZgakJZH1Donb3yqekp0ExcUdwECeIbV8Q1w3KTSxsq5cDBgnAc8cE3wAAADqGd2SXNIQUA9DON+i7iWnezeMwORKJEBABtLZywojYAWFFzCpGZtKywwDwyKy6v+gQ90efnNMrFC7pY7qor1MUHJTdEg8umwV9B5PY9JCYe/cZwWaBhvYI43QJXQxY6Nmw0l9ERGgWk6y+ptD6DT83LK6XiZV0cpQ2L6inQAPV/AGEQzlme3Azrg4bvDNmEnqwOYGTECDMZtmmZxEoxntnRsk/5RU/q2LDHunCBStmRQ094U3t2gZuJKMxMq3oyK+aRI9W0AK3ubes6usWraHHkIMpsj0ttq9i43BSayAzy0EPdYQ288buf0WZhDnKEni49UfciojuTq1Gx4mqwI6ZPTd22M+K55TjZwFc9EZ/1rLd3wclJ+PpdsHigjP6sxqfhOwPkpVjtrPNR/OCbGQWAnXB2LZq8DdWCXkaVhoSboXPmzAN3aATPBDcTPc3rUpbvPTkrxalZcDV17+jsJKM3HzmsxTxEcv1qU2c17ujukEGD+rIbpOroxV28mQFaM/sflZOPfWu4nDgpgEeCNDhx0pQyPlwNKoN8XjAsrd+JYTJBIW7qhfisZ0DjPl7ehrX9NXXFZiOmsujQsgyA6pNnbWeplqFupt0Jy/vIzTCe2bBwM5ljz3gQYdi9180s7TtQVgVSPP+chPI+nKlLr3b0nbrY40eVOHwAHdtuz3b0hjjcTH+aXkyR6NqKvpHYEEzfe7u0izDYGKK+Yt52FxZoCBYCVj0eB5fTdErCr2aFSjysIA2y4DR/ZWFh7vKoa9wzoPFd/40If7BhhdgMqZpz2ep+LerGkoNBimYBs+ZQGdbW+1A1cDN+KWiYV6itYuJxUzgF9NTD/6aswmzkzpkt28xuL5WkfPYZredPwYSnQ+MAziQX4rKjB7V4/hmK4eIyx1s2vdMbOHaxMHOHFH7t9Pm43E+uJrv/UTH25L3wq+m1EUp0VOAOAB1jl32FbALx6SNMCEmupt7O+nRIGm2+OTrKVEvuCdCEjkFSvq3eDiZjSTXiQGzWA26Gq9AIFTRtyuh4Pzx/wc0Ew8HNwG/GOXXEn3zsLuhmGvDTUY+45eVjJ6gLeUPue0qIw4e0KBaQEBuWYzTMrDcmeE4DkAgwc6eU2L9PiAPPSzhoDjM3U6Va1SAABBjgg1iJkPXT998JS7TSUHE16JXQrwbBdmOjq+FgQapnRnauO27C7LRCv2nnXp2KclT1ZEtxyqlsw3ry6uViM9p4w9ZbmZZh0ocvyoOlVyM0t78l5AZyvuIPiW4G6zOAZvyJbwYI357SlhMluTsrm5yN50px4DkhZpGdcWxci5EsIgSmNQTMZzZDBBkfRualInxlYCa7MIdQupBUYHDV28R0VolBuJurNBaMaKdK5IQgJ5Pb97AYfW6Pnr/4ahlGeI78rb14QdWvBktG0XJCKxvuVft6cMowfQCtz04tBCumCcVn0jBeZhTyF6Oiu6OqbE+ApqzcGxwnNR3mrl7SEsTUVKNZrhL1GLslN3bhK18CYOfRducH4GYQaib0mzmz2oVlDN4/sPIxKyV/6pGv0MekbRr0rKHVKskQRIpF6CPARFK0YuOvFlSSojECEqyXwsWWrQiHT89q2d8XUXCG1gNqyGEP7kG8dIty8sF/0/MXMWI9O3KgW3S6LzC1JMRnZsaCAlLKnqyvp1/e4AunSA7iMwLN8oPiMyeVzrmV8g24FhnQRL5+7oAkFtla3oqMzMvbKNIQm2VshJyJmJvhixluBu9rezhzLc77SuFvyZZ6RRMG5gRNmrMHHvVh1mz11wigBckIOJwZND0nqBTBvYQ+N/C7ISdDkKndw8/1dQBihqTRyFkz/vh3Rer4AaGHYobVBiJjoGnHjZGpMyGcgTbtBuIz1hwz6Y27du2KDBhXrv41enXpM/NQabMhjWuX550htgBlsf7B2qxL72pUDMuH2IzZydpemZDTTB8nN9OmPqfRu2NzHgKXiT13C8OrII1o22Tob/VZz3p//a1VP99OjmawuZlF6tGPxp4/JifClM8x0Rd2qWex3iDlMxYQ/NelItdUTE18hliSddWe4dosjVfkJ18Kh/pojsiBBprd15iWtWlFpGaKzaqyrMhXPTaSQNPuwTvLgQjynhqO/SODZ+ZPeONP39PYqL5d4iT39Y0C4f5AItnWwGtpFkmIiTa5+26kp8hXNxR9o2z3X+xp5cD1LrrAsR1WORSfIfZZvce4NhuGsdk0nFfUu96Nc5ECDbO4wb78TYZJmdXZbURkUUZqjnx3xremw8RmnYjNhJ6tDEeEZg4ShVhmuece9p3Zgyb0Hd0YN0kZfaBAdQpB7t/+nqkPtWz/lQywOXLgCTFycC8MVSKT2rRfoS7eCUGIhRhozMB59sLXxXd0UhQrAfGZrCulxMCybFvCc/oHQpF1JwW3eW+kq84l75obh5HMawP/7IynnDDZlFxM1xxtP3BOVrmZ9pyqeb+nRIA0zcPBzWBVQgIgNfbYNyGjVAD2IVml2hzgw3Yblc1D0yY0RbolOf74dzAsh6dZi/0jXV8ZiqbOMegwrrlpRwqIz+p6kjBtC3QY199+/6FMFNWNFGhywrwCnqcXKNjNLz0wpjSszXgq8j5A8kydgtisEzib9wLtdjfc49Lm9/Y7xWbzx/2x5x6C2dlw7Rp7S8h4vA3bJawIsDyLR3XWXguMz7G93xFmcW64xGdY2WHjZfuBhv1wPHoLK67MwmO93lq4aOb8Qis1dvHaO3VlCZECDRb519u2Yy+HUCR4UyNpBBxrj8lYWes2z5CgfA0J3OYj7AQ1i7xZ+Gz7mXbL7sd9Co6Zo8/v8e25o/aQBTLsBzmTd3aZAmG6iqP7xcjhp4YqUsAimcwSOAWuKV0m26qLowFWPY8ArtGI3DKCyC03rLrwJg9GBjQ7dmtHB+LG5UYAILqASbOCE1F9Hq5JZTu9RKQAgLe9n6BUohzooOAFjB8wFAfQXI09+V2oj+E5nxyDTwF4F6ER9bW6A9m6qvhsbC+Sog3H3u6sXoBBgA0viVgYBXDtRSoW6dhNDH2l+cYoUjxHBjQpMX+eNORLlps1U1Y4giBvMBKIfOEjPUHXuqziWaNh8Qfu1CfdAEGmh2TEQyyBRFN+bv/D8fadqdcZybn6FKCBM8xn618c0LMYp7lnHhrGkDRhBk5I4qmn4Trf14NrrwVzoJFU/YhfjNyCVfnVR6yFC7td0cgGrC3MV5mWPclYOksPrvu9MGtmr6bhXY4Gtg1oiKCl5ofGCAAjG2KzkaNPB/bJw0jVHFlXL+3e5HsvKND2iO5FZbrwDozT1OF9Mn3yENIHDN04lXDeBODEw6eG23s6b9Y7GPAY2Y+nsWK+A6K0ro6y+m+sV4tOz2n9OrNOIgTblEHKodis0wI7u59USnXgBxZGAsDWA1Ga64kwO3t5XO5G0IXssw8pw6+AHF0dN3Fp4Xqtx9m7twGnAnWHFowBRp5/DAnRhsxgBSs7AvNCfKZjIj6TzLoJv5n6CzDjGiBn2Pt27il01XkzEqChfgYj5iqazC09Qi7DkRpgE7l+hp47Djq5PjmX1qr6nWKzOY/xAIZkRebWxa8o+M9A0DI82Lmy59bdGQxp6Q5fq5XMPvsImtXujB0QCmBHDW4G2TfhaBuLxkGdgCCbjlUfaXy4osBS+AqIQ967axeSVXbpiARoMqWTm1G/i5abNYf6mbSJCChcBaM7OFRh0tw2a8LqICZwsOCriGsWXZtXlIxdolM85WWOPm0L2QFrt6Kg5ETsKAAT50gnUD8ajDGaPbhXm25xKH1qKpDLQxzVd060qqchV1NfT4NKovc1HDvlL5em5q/plggtEqAxUtYVCD09RZO5pQdeprM9CjuDxHKci23NR95UwJYD4b07CFSztGXx+079TPrYc0xwZiVmzfHrn6RGyyiA8erMHpDO3DFspiNZlpa9sIc/sZENlLKQpyYW4jMCSSN/GlKFXA2CIF8oLef3dz5YuHLHDgRGXuPR9R7duXdvSkrzbZYFm69lQININCplQzp4Nv6ssQkrH6d/JkLcrLzQ8IzWp7whCqDJdkI6CZm3kox2nBwJBWJOAQZ6tZDeOXN8PziaNa9r8WotFjx45lXFZ1Evfm20nNqBDPQ0CEfTcCX2PZfxz95gOuYfjbww/7ovPzo/3UbRDW9pSwb30fu0/cKcGC+r8qiqeI5pO0i2AJM92y8Gc6OFg4jaMplBylAxPypd61VoyDuWJzkjfdPwn4ETJ3i2hvVZ8wUWjUgLgo4w7byGqzBCzqgFf1hCziySEGmRM4cfY1KwBGjWPKqSAnpCAawqqcNPCX3Za9sTRfSkUl17ieEGCuGwDIrPur7B76yWcM5ExDykDRAVJLNttEAQbCzbeZNpmedXPPXx2x+c+2pg2odcI39yw9EN5RtvlGeHfGlSiaZAw1wymQfnLzLM4mUVT1wBa4RzZSqVg2rZh4aroMvGYcMpPHuelrNCSUtp82KoBv4DkHATQxosPxhnB8nOZNTZNOk7g6MR/c6qFpUyJS9QcJ8ZGidNBs40vFIwcmI/htOQ7Q7P6r3kx1BRAHMxc3ifxgLR1twdpLZX9cDahPgswBJYXxPfowZxow+DrDDuWcVlCvTGLw7BxrJfDA3THzhW6gHs3r/pBNlHChPzB+/4/vxJ2Bmdype8A7dcM4UYQo2PhkBD79DDe8qvdjLpn1W+/ybg3kYYi6Ek1Ar/U4wKuSO+yrKWeh7SKrgCiSnoZiCtWQkyeFDDUYgfTZrVuKLtXmHhSHBGZqbd98DajHbuWJ7bfaLdyvTrPnSONXfSR76PJFpzv/ogyvd22cchyqp2VDbWl/TsQWF6ZYR/bVcm0dEb+nYz1QiMfQabgAoU7XZV6d636vDFMgML4JP80qIaXM8BlIyxcjVuvlojFKRhmSewYM4iHvTe0Yz5lc89VLrz7Vdm9jUqqi4LR0uDo07+Ots0/hTl/3vITzfSmcd1K/grC6T9RPJDV1Q5E53GPRuxTFOGJ5dHaq69GNXUqRR/tWpW7YnVfVI/g7+2XwKAUYUhctIk1aj8T586pJHnA4YAbZNidQRPnuoHBex+vDTyd2LcWnNHZZifZtgMAqrEMyrID4+v/Ov7kYbopy4A1KkZgZLcDf+wpMAT0tgCkLkcptA/DAbkg7apfmvnQ8Vz6zwanqr7ns/eO3uuNMw/QAHXEFTUMn+YM4WFJnsAHCjS8bdc+X/mPklWLXJDAPYexWZoVJNgPktqBYqVwZaVAiQ4O3N68L9xJMwe8ARCLA1+Y5IWLKMA+9SOxUq1rGJr/RkaBJQLwpo/EW6W1lpeDJ+XMG6lkVT/zZxBHACNtuAG0imduM4TE8jpkPEIVJCGWuVncPb9O3fuDdmJ5WWuABoUAqs2+8eQFfM15GC6cbBisDaj1WLkjpo0BGh3dQXzI/LYYYClbfeRbpAj8jIwYXX6+HNwmo1WTBl5Q5IXrC8KYINkVErCXjgxLEk6zuo/6mmw3JhxCLKJJRnhZqS0ATb8vpaDYcbo6W5Yxs9VtsxcWq+sFUDz5ftPjkH29j7KENdcgyVvhDwQGj5QOsKDhcOsuROyqflK0EF85wgr382iVaBSc8e8UJHWzXKTsuJBgU5GeDxq3H4tEGXcWpilV3f7zwzInVxP8V81HE0M6oyNv4QlcFfkeAFyjiElzLRtWu+q17QVQOOZ1ksgd7u0gUK/XhntnNPpFKVT0e6wYc2hoUJsa4TyJtoAlMDKtvVAO62Mwz1ojeG7SHZ2JDEEiEN/dLsOXKtilN+k281jean542fHroriJX0qE51nQHzGTXwstgupLmr7qD7BGv8DO3bvdpaTdwXQaENfgwQ4VjfpEBoCOLAfj3hJp49mCGfLW1nnN9lY5J5RsGweLv0McNYIPGWXTkFWOlQQWqcX19epsDeZYRMGn8PcsxZFZ0N6sN+YhgQo03cwZV0ysATu1liiIRiYpItNecEK584VQAPrsboytrX0O16CQJqiq+C1vD7cHjhVT9d26aYXhi0aAGhAADW8SsWolJHyt11SLKdm8juOFAi3wFX/uo7kw3FsS7M6maV5i6L7YTyqehrFxHUev/fz4FBiEjRkPO4KsauiQTmd1npF5Oc6QCO3dpOb4a7ato0ACXdwREtYis3afQMiquq8x2gA7T7RzyHRwbvRHqNc0DKoYPAMWds6IMMQ38rt1FB74ZpuCV7dfd/wRzKEqouxsF1YBPR9dgLMkckFjv/dsbfm3sAwEbTO9TcsJ94KoEHjx7oJNCwrBesGGBg0CBe6vEqr+81Oa9e1n/cyyVmZ/qZDdiD+tLDKC7bhud3jiYeMRgPdnNANY/jG7ek+wfg1YTILhzycGrrpWW0mlkMfCyM2u6eb3Y8vfDu5GaQNqGr+1lwJWJ5RTyLN3PKiVgANdku5bgINXwj2jNuTSEcNG2KBP2mn68jFlJmJaJiSnJHQOMgOG+V8ChPVqkpZqueTf4eGApxL7QzzwWww5qZ0KwoczTAP3xBo0EF9Z9uwbkqsz22tm+0OKHbh8ntXAA2gDRYD3RvHLCllRx/dhZFIGRVgeQPr/9aiiAQ00DiuIEj9+wfrrAw8bAcjtPAjlfEH4pH9hxF99fdgUWkAa1sbrW2O8jW0sNUboutxrFKGCmNYDa1BAPsF/jQ2OJogDqL7FA21Ij7qxTprNcg6qhLGjbJDL0rMkohYRVbYNkJQXgGcDSqrCtww1SZug5sG8TQHrhH4RdB6fNX1rzLShG2ACHnhEFbwHfHswtER9iXcQSWC2gHQNGI3hbsYXCRNJTlY4D6uwA+a53iWO9QhpPiqqdz5g6Q99TNdpCM6hBIcDBuJeI8wGmKHYQFEp1EPVNUFhX2OX2HvhZOYci26A2PaMUwgD+QZZH9DTB/+XMM/Eub58ABcQwnxfpRkBLFDgwB8XWEK3Ovaw5k+8qWwHtB0tZ1sQehEWRusXS39TGHUz7ADW72G90BqphF2hrOL0+VMIcPyrQoU7beG95MM5E8IBxBcAGJMfuI/hMwIF5/qXbx+mtJYjM6CDxRC2OHiA7wLQcZgSTqMCRE+xmWoBj7sjOTojAIE/xoAdPZk7W6yuuhLRkIJU0bxO3pNePiEDRJmhDot6l5pdIDhgKd89Ci7E+JZiH8Qbhk/bFwI0OtYU3APCwL4hC/tCBhxs+8imH6ASnCADN/8XFRNmF6gy7DG7esSxOlLHQ0lQtgxRDYjIwca6E00Qh1EatrMwdyuoybv9dDTkJxhkRy+Qcz2tTzY7HAdwLiilFgBExCqjt4Z2EhyV8uFh/dw18XBxx3vstDmIUyH4+cMGXFrdbAiOi2eqo5bmNbzK9Y3frIUlooREe6X+ZtXeC05WlEghAHctBIAWjwJ8mJ7VV39ERoZcIU+J48KzS37DL2RDotAT+De0I0v7MLl5ZLrQeDfkGflNaQ2CatT3WCEOIU+BvCgxHAk4ZObDgO7GH6r9nPT3kbkZo14VXVfv7w6A/sb0wcGAaQS29mUHlG3kaFoEHQf8cuiI3nEQAMLKFN6aAPyooBcEbUDI59ymuowbvEOLo/IPaPA1VC0s34O0oWDmlwLwSXARKbbH7K2EljC5aC65JMmVcrUloXwUZ4++2hE6vD8GdpWv1X30XgvfjKLBPOscr9rYoNO0OFIrMLamSfPfl3yi/1SpVRbtAAhw+0ECM2Afuh7RHYBm4D1DRAA6ldBBV9xLFK9UZ8ufeFZ95wZI6wbQYh9zOSGnI/8A3cLjocrWbipwADke/Ed5fCti2+uvQHn7ZTSQ5YmoNa62icaLaGnAfiDUitoULsr+k++nqFoaOJMzW5Ua2KkQEMKAmiQBy1cyKKkGgXKXCxbH7gJYjPeGhVNW9ch6jsQevv0KzifCS6UqhNc4CYWCl9oB80BXpvmtc/TD0b0pfYeck2sk88RztGO7w4+Q+DB9xoHFFE1BrTYmuKiRsW6zcBFDm+IPyUABr/Y7yrkXEJwCR+q3lT3+dWePGv6VUdWFXwoQSPQhb8YIQQLLEEHuIeqok7hkyEAhe+uenZwRAztwQUeXQNE1XTm62tbsQVAxk1DlSrBmXWjy5SPFmhATAIN6hxZA0gPWpuRWDiq/4Zf6/+Doa1hcdbXjq1fs+6c5ZRVpjUCLoWgUp3gLqjDBWcpuLSkVHfq07SUWh1Ogw5OhKMerYBNTqgBOLM0Ni1qXVzEfKqKe2uEW9Fqdj9ABRyMMgLJLBHIfItzjM6EIcGLvT1Ov28ReKDzA8SgIn4IPBBgwzMTs1FStMb/yP84jsnEZ6zzsB6UrCxmGvbx3a4yNv1pLegsoSuiPKH1ArrKKkYKNKwTbLSZayCy95A4yFjXVowzDlwsX6pCrVc4jE9PA1wZ/IN5GMzigsgcPWiIMnexIHtAaEVj2fg4z9xq3VhXISr48wCUFjbw5HJo08Yd8Ho/QhLU3f2CauBeaGgegGOA0SzAJgSYGsniQr3T9UCF0csm9vMmQQfSPPBcELFhzJpl33DmZ013fKYqdiDADtmxCCzMuFmOdBfeJt0cx4BAPTqOJvKdPUIcRP+OKjGrS1ULwiLyA3Q0ZICGaPByyuIvNXtEb/j2Tj1z9+1YrGFTzhh3vNAWZVoQrpeXWV+Co4uNeBHTsAiUcQE8Q9RlHZOTNKEt4NlUIBvgA1h87Zm+qFhKephxyqAyP9yhdvyeHj5wujurI5SgY2uFzPTP7Tc2f+VfdPrQMxgHuIvje0gP6Iopd+j7YTM6QIRHZJxGtc7YjJoyFa4bETaCojNyKNglNO0z3gNrMxg2R8dhRdjMukWH2eSQXjW7f6+e/vZOMfnQN4ThVhgpr+79A3UyHDjoNHI4PiYCJNrgcLiENu3ngWpju5XlMnDGhwZDGGr9INTBkIuhfRcyiwwB34dJasBfc+YbtwvnxEF95IYfkYULXwJnPLC12CQO04GmSgANxWbs3b6OaZg3txvBa1VdECnQYIlQiKVDW4auRhtY3lIQCYYA7S0+LmLZhZKz5YUM4G+CjF2Y12N77hUbvvZpgM0TEDEh8O0wgMzS/uAUpH6phE06kgiJNHoQXhv9nZpLKxj993AlAqSADmy4rwG8EmInDHu6Q4eCRd4zDAeZWR7ju++RztwJffj1PyrmLn+lDNLZYQMbWGyEJjFE0L7tDDluoEtXtD4D5EUCeJECDeqtLAPGrBJAE6GcNdR0cmS2PCCBgeYChF0cyi0fiOcNi7VPnzisp7/7b3rm23dKa34WDktdzGK0vOWn+w/Uq7eihcNzcYxGR10pPEgDA3A3BJsU1tx1ortBixW4Oi/UXSlsrRT8Xhahtl53LO++gfuNMcTxnDnwlDz3sx/V9txxceKaNwh/bHKowAaifJi9YKWMbs600fWhGwrMNGCoQZ1uBEekQAPaSdOiWWV0U4FUwR9f0AaBpKYPTRs3RkDqLhXJAQl6jhx4Sm+8+zN68oG7EVId29tugUzYVyBnrcvon0QOCTpbadtB+B1NgZ8fTnA1gB+5pkcArFYDfPU96Aig4qSYA5fCbmGd+deNg8Vwy1sCwjBoShrvsaKZHN2oblfKoF6mYnj4A21D04gQYmpd1J13sLRav/N72GfY34LOfBvHAY9wxwu6c5zAtK06txf7tpv9HL4MrzBtZIs9Kbd86RPCXjilj13/NulObw6tesL6Lt43iB+hxAzBqkFJ+BpGG92+GX1YDxhUQfhEI9W2FtJmxdW9FinQwH+Gxqqpqgiy7vvXfBLlVz0vOdarU6FhmfSeqQSKdkxdW/caviyKCzQ4Qvj03FMP681f/meR2/uQ1AbifC9xm1nVa8NFIyQKRhyGRHpEiwz+sjkpRsd9kR01xMiooUfHPZ1Oh/ofwwCvig7WKgiUjzSlAQJqlKC5z88Zopj3RH4e3+ehyM9LWSpq7ZYNEdDGGkdXFiQUAlUUuBukCQSwDa8ojWbqPqwImZ4qhNQWw7y9IVDrc94NL3zppKD/SiGkLgIEZEYAZylLZDK+cNJIBu9wU8HXEvLQj5Bfeq6U5ZItKmWtK0i4US5a0i0r7bq4/v+z9x5Qch7XuWDV32lyRA4kkQGCAAgSpCgmEcyZiuTKWZLX9tmzPnv2nLfPu3J47x3Zz/a+XVvnrZ4ty7IlWZYtUYEUs8QMRhGMIEGCBEGAyMDk1PH/q/b7qqcHMz0dqnv67+4ZTJGN6f5DhXurbqpb9/KAlGFOFVloNAUzdcCiZ++DV+WwOL3zCyK++Jzx9V4RaLC/VS9Gi0lbWIzwW8uRYDXh0CYE8RR6kV6lFYWHb4yG8xg2P+RJpkjkXwFMDNlie4UKkQq/dS9JCRzSQ1GuVKiyGtzjYW5kzhTt776ilv7iX2Xj8YOM7YOelDkrMoSG0Is0IDlEh5JdC7VesEToxcu1XLhMie6FQdmxQIsWpCgKYq85GApjX4hn+rlRYFoG2LGZaboBXRHaBRwTRBJJ14b7tRga8PTJo0HRd9IVJ48GRM9JietSjo0KnQJBYtdzeutaApiSNs+KRCEUNtKUNruV1ZyjdrHpH6WAUQm9DYii4ZglBMbS3EK8C9G1QOku5KrqXqxFO7Lwdi7wRGNzQDQ1Y240YYcVHhhYxuZN/uumtCSeo8BjLKrk6FBK951y9GBfSvSdDuED3PdJGR2ROh7jwqNGlF6p6dZL/pfzH9qTXPDK48i3NKZP3vjrIrpsDWcQr5dcXz28MC6Ah4ESkKXajgHoQbwzBhbyx1HKN0ZDwg51Jglhm94MaWLkA3bN/LWsF5YWWHfMlLd8oz4eM0wmmRCdbz6rl/3iBzrcfwKhC8vcj+GE5icYAlHpUmLxMiHOWav1ueu0XLFaiAWLHQ0iQ7IwPvrJm5TYHEDhnfGFkf5Nig8TACQLMC0hIw0R0dou9PJVQXH+RSBuAPrIkNInDmtx5EMhDuNz9KCWfaelHh1OEyK+W05hX3huhC7QXKsRMLtMz8upr57eUdBkOC7PRMcuv2cTOIdC1N6hNRnKsvO0OGeVFkvPk3LJSq1b2wIq3EByTuiZyYUv/Dsx0bLBOk4aKUhiMuFFD3QKzEf0ntT6xMcKOJbi2CEpTh2TZDyCTAdrkBJoWYXUEC92vPW8dBIxffzW39FjK9eB1KBn4/OxrHpr+BLGw1A0MdiuGmo5BpqewGgIXl+Kb4yGvYU2QxGTsMSvyo+BNWLKQmtia0XO62AiYhkgFjo5duX7Ynrgxz9YlE48JrreeFove/RfYa/uC9BuXXIZJzayoUnpBYu1PG+9Uhu2CWfdJqEXLmdC14nVb76ML1wrSOHZyc9N/m5Q40DcaO/kR+iN24SMR11x+IDS+98W8v23QYygnQ320+RSHhEy0wvUJmYUVe7bGM5XMozq6QVGUI7iEF0KjjTp+V1678ZxLhoatViwVMuVq5VYt1mL1ecLsXSloyONU1xaJ+OdjU3GY7HGTRcDMPNDwICQEdCrNlDA8ORAr9KH3ldi/ztCHHzfkScPSz0M8yr378phOGQ2MKW17XsNvsGuPn7Lb4nR1RdAekQPxudssb7W230IwIaElQJvH8bAXVdG4y57uhXqk2+Mhh0GeTHuFIw/7Ufh5MYEs4INJyL2aODdrCO+QNKXAQJ80GS6X3sKTOZ7IgjpX3MPpaQC8BD+EVDfxSu02LhNiS2XCLH2Aglb/ERl9Gv0B0vo7KS6DUFqQLvrtwh8tL70hKffe0PJPbu1OLjPEQM95Ws4HEAsTS5nNbOhh1kMTCaZyfNTEsLTBJdEt7FZy6XnaL3uAiU27xB6zSapm1uNREFQZYIDVgzv2XimgNG9KKC7Fwl54eWeOP6xUu++pp29r2l95IAjBqHllKXhkNkEsUf5plyhUvronX8gxs7bmFZ3/JvFJSLB+nESMO5jG5RYv+XDgzwm4kO1psoJQuNHA+g3JSaq1r4U1gtRgJTFCkDQaJjiouYItQIG92S8lO58/RmBPRkwmaHSmQz3TALYv1iyTMOE5ekdVwm5fguOZjELRprQ+IWbQmOcsEeD+8uFS4N64VIht13m6j2veOLV56RhOCMDwCvQSkm1pIIXGH6HeKZmM9tKhskkTIwywzVLGgJxzo19MBhxwcVKb79CivM2EOemLl8FiuyOjjMegwRqOytXBxTMs/qiK12x52VPvPGikIc+cGA+pbNBybim+bj5wF659JF/1sfv/D0dXbEOQgq3GWZPoQDsKYVTF0aC9JUeF4MKTGeYPEUsQ8UqyXPft4GRmIBWIi+J76SMU9RKjnE9jRVYOunKAzv/LnNECFzV8faLaukj33NCPCNTkiaDUXJfpLVT6fVblL7sWiG3fsKBVkNXyikahn+DsKh5MiFq7wrqq24WcuOFrnxtl6t3PxuAeQ2nsBAWAIJxScW4P5t3ZhWzgWirdGLcw6xUAS29zrRYuFRDe9HiE9dAqNjKeZMGnv/rsDCKxnENc7qgcKGu+4xwNl+S1K8844nXn9Py2CHHOIiUaE4js2l7/w0pHv6OPvrp3xexxefinM3sYTa08SKyECz6lI0MSy4MRx/vwuuMGXMjIJEVb8U3RsOeljhnyhqcvcinmVnTeEwZzlRWa9V5iVMOZgENJiPCw32lMRkSFJgT5fLVZDBaXn6DgOnC2OInNInqDKOkVoxggjfkwiVBcfPdSqzZ7InnHlXyrZcdPdQHI2yJzIayGc1oxDgPdhoOW1KXqvpwhsnImPG3SAsEtj2gFkPPwbXnK/3JG4W8+EqYRZvTloRaM5jsMYwzHEryYsmKsLjj15XYsMXVux5R4p3dQXgqQpW3X9WsnkJY23u75ZLGFnHsjt8VyU6Y6mYNs6F0IZl0rvLUPRv2RX5jj4bEo8hT5d32l9Fguw7d8rkN24HjWCGO0QCOjbZv1OI5nolpOvGRWo49mcjpY4G0C7NlT7C4ZKRRY8Pd0zvvEmLbpbBe8rCLj/svll2zfcwwQ+bnWLfZkcvPdcXK1a545mEhTnzMw4EQ+iwXAh/LhK1x6AKCd+u0kMmYA5nRdMRle56IJ7n/1rlAyx1XefqaO4Sgpx9LvTGYbNhn5iRxvWFbWCwDrl9c64rnH3PgqcZD3iXgGnIE1g28MoXb0gEHgd+UCkyHWn29FyNgIU0ACDxpZYnSVAVHl15XmDucfZVfKr4yAfQ4jg8w7l8BSCztijxIbnI71i2j4WIJjfRrnILWzQffLc2FmRJcczu0mE8pcf3n6VVkcFvPWkzeWZEhkk0tQXHDZ6VYhDM9v/iJFh/sCRjPNNAmq8L1gmwf8EZTohnr2MfNTqv+5H4ILirIHBPDgUy6iOd+ZvrVDIxWwJNs551aX3GDg4O2RqiY/nAdXxkfh2ztCOobP6+wt+TKX/xEifffCmkPgY2tcY1HUdcCBJZNdi3SPVfdlT7InIFTvYIA0xNdRFZnHAVxpK+H2wuCAB1AV2D5qDyTYbu+MprxzaWC45vpTYCFBlkrypNxI5xpm768DyzzQOai5x7QHW+96MAcYI9xMpnOhUp86jZP3PAZRzS3+Rr2x5fx56h0XNoLiG2XQVxdmBKP/NAVrz8fxIFQe9dYQhGH2I1TRNN4ZIIcbdXiErpmmAwYIbS1tGupVT9IPHnmYf1WJW66W4gLP8n5byiW1ft1+FBGk9VbPxEGrpPi4X/z5BsvOCaihCWzMefN3KRc/OS9Itm9VA9suRxGZGvWXROocHrC3mByOgcxzloKhuPHRHyBgxWBLrdlmFqroQpaE2QXyS7KHYvf73GRtL/3ilrw3AMgGDwHYjksw2QWKXHr/6TEbb/myDnCZDLwNguPxOKcNSFx9+9JccUNOLWOECmlmEUopsUB0KRvDpCZ7pb0V3uI3Mt9JJ76t32TsKAn4ZZPeOLuP9BgMlxjs5rJTAwdYzOMYeXqMHGtL7/Rg5ZWEq7TVoEBsZjRM04cNCa1ifrr9Us6kTkmgvUsqPhI2DL3zWzJTqkd8JXRlNqZcp4fd28u+qqZw+l8jUWfrfYDXBwNPUf1kl/+UARjo/axy8hkusBkbv+iJ677NHz8QggbX7vJ6ivcOK6uhUHxmS874urb3JKZTToQJ6MI1AeAeCCTJj0XbsyWMgVtLBKZAcT2y5W45w+EWLUBOSEwnLmGc4PrRQH5ua9IcdUtbsnMBs4BzUc/FEue+rFmxlkKcfVcsBsFpMLbqz5mpi+g8hsDNGv5XazH4NO50ZmNDyIEEj3pRbt+rpqO7KfJzK4+MBnZ3g0tBkxm553wyoL+ONcITjYkMD7Z1uGIO38jIK682UOwR1odsp/K/ZvEnHHREvbbILkrqshVWuQ9WcqBTI6ThqDtn1Tic7+LPbhz0kymIt2pw0o43pa2oLjzNwPyyhtdWQquMRwKbx2IbN712lN1OLgzXRoXDKnRArmWc/nM6xX9Rme/WanRoNOJikJihpWR0fgFyLK7hgXR9sHrqnP3EzA0WvJMnLERjS1K3/Q5T15zx9nBZMYBzMUom1sD4o5fC4hPXOtCxC+F2cCEBv2BaaFrWVLQZuJGzLZEODuLLl+wwxOf/59xAHflnNiDK4YCg+sWhLO547eA651w6wDebIkxBThEkV787M9007EPTdiaYu3V7D7GBEtwrNbEadaazkjXa4a82dAwaE1gdEgveuanaZOZjYrPhUYb/VU3eeJ6bPwHuJFcW7pZbVAbya+tyxGf/m0J4pvC+O0BQBMaMhYYX8Vqd5ztYcfBRC4oZV+G+1GrNirxWZiSlsCbsITh1mKIlWzTMBvEydOf/h3g+mKXB5ltC7WaSM8xuXjX/RrpzUGNSuDrto1U6DlMYByWnLvFV8hjkuCU6XzJBwFGO+58c5dq+XBPCSYzLLQLsBF86xcDyBUyd/dk8gEtc53EdsHioPjcl4VYucZFrpvMncJ/jQkNO3t0DKiyGITmjMkMgTIRcqVwNyfuch9uwVIlPv0lLc5bf1ZoMhNjH/9i5IgFS4Lq01+SOCfkWeMa79MU3fHWc5Lpzk108ezK6+A3NTWoajVnNBDBXKwqe05eAux8ZTTwYfC1/hLGWX+PQtoKD/bohS88xNS0du4eTCi1dKUn7vpNKTq6zzpNJhcSkd4gDHh4iBiczoeT66Hsa9R/qNVY8qbs18v9rT3EkkoYJ1K7dUHpPYIEdDd9QYutOHx7NhfibPWmoLgdkQRa2uw90WhCS0TFoufv16HRwbrVaiD12IoePs0CumYKF0fNfFkVZ/fk9QllNtUabeaNXQoJzKDNWHiBG6KDMCO33OMhBPtZKdlOgyvkQLM6L7oiLK65PW3Dt3Hd4UvMYZOonlaDJpmOmQ7NFsgeHym1tkt3KnH1zaRCc8OFeRoSbS+M4/qSTwUE3J4NPC1f1Qi40HLgHdm+54X61WrqYJsB0y2ooANagrWkx3xlNMwkX1JvzpaHYTlBHnTVtftxjBjOjTZ2FNrpL7rKFZddxxPk8yUDARJjB/tU1382oNdvtjeh8f0Epr9nw5kyjZX/N63NyAA4hh36qL3i1L++5W4pIo2I2EaR/iwvhAGjUN/0eQfClr0JjUCHCXLhy4/q4MgAlpsvtHRGyMHIaoxgGO8AXUxOX3iCL5VmIA6LkN2iyrxwlvxFzlTRvm83tJmPEEDQYtKTyXQv9sQtOAWOCMxn02aw1ZQAAdIdXUFx669p2dQK1mEh33BmUi5OwrGiGrM0gdaUZcqMjPZ68z0KMcDmTaSTJwFxvWBJQNx8D4KlQsO3wTXep2NA45H9sn3fq5rrr+6K1ox1NmeL5aGN8sYPNsOopHVT/AyxYD1IAMVJxHXHq0+ZvRk9HsW94PsUZ6++1RPnrisjtWbBmq1u0u1xdHRUnz59WvT09qpoFPmFEfQwGAio5uZm3dHZ6XR1dor29nY8Wg2qPb3bptULdgT1JVcjCOdDyBVoRUxgPsObjBdh9fj0dq2u0NMshdlnrc3ATH7xpUpc8qmaTtlkMqlPnTolTvf06NGREYnEgQbMkXDYA66drq4u3d3dLcPhcFWRbhrbfnlAbL3ME7ufClodC8C8lG5K0IowsO1KoYNAOjWkOijjvTDxkWrZI4LDL5D4ymhgOvO1/lLnCGxOJNm1ooWmu/SCaTq0T7UgaGY611GRUdCbaslKJa66mapP1e30AwMDeu+77+o33nhDv7N3r/zoo4/U4OCgieUSDAYVGIxesWKFXL16td60aZNcu2YNPyISiVSV+JgVwnTU139GCiZQG2RqgSLcgz3kXk0Kw4n4lCSNbbj4z5N2YWaovbZ2aHEDHABqpL3G43Hx3nvv6T179ujX33hDfPDBB6q3r4+aFUejGxob1bKlS+W5556rzj//fGfTxo16/fr1srOzszo4JzUMRxxx4+c88d7rSkRHGKUcXStcuPYQrFY2H9onRjZcZBhP4Teqc5dAwyzE6ePaFmZCnpWMBmmTqwE52kmKz7J0T6ie1kQryACCEOnc+7IKxEZDOlQ89BomISLz3qRgOqtGErlMN3GATIm333lHPfroo/qBBx+U+/btkyNjY1wTk+GXESR0AxjLkqVL9cXbt+ubbrxRXH311YJMp6p7C5Qizlkb0Jdd58pH/t2Bw0VxwkeE+MloTAoAyAiMZ1W8N3AuhWBx0VVKrN1sYVOdQFfFvhw5ckQ/8eST4r777tO7X31V9Pf3wylSIUzOROfTcwCwZtJMMBd9/qZN+vrrrtPXX3+9vPDCC2UoFJp4uGIdy1URYYQU0fK5RxDp3IIEYAyBeFR07nlej6zfXp0+5up3zmsWnDLne5W76Ce1zhCKyvV2vCZiEYyGftmcARazoLwugJdZMRrMMR2SgYSUajKhLK/Rct/CXApGR1Tbe68CIhZ0BNqMXrzM05dfb2RzPyfC5CHBZCKeefZZ7+/+/u/FU08/7cRiMRIPEcYnT5Ee+nr444/loYMH9a5du8Rtt92mf/fLX9aXXHIJguP4hv5c3XEQH0vqlx73kEQraKXVJMEC6BRgf7olV7u5r2HLGtqMJZNhVlSketh5Ow/lVlV7pZr/zjvviH/89rfVvT/5idNz6pQTBL6hteYeV/qqhHYrdz33nHhl92791DPP6N/9ylc0cC9ampv9JeQUvTmxELFcv/Yc3MajVloN1137e7tFaLBXuO3dacZeaIRn0T2/tBmC0DcKwImLqYAlLGGc8HXOWdNfC9Lu67SiG3PDsQMqcupwwOrwGM0oOz6l5ILFVfM6AsPQj/3yl95X//iPxcOPPOK4rksbfFF7I3FMokR7ff/AgPzev/yL/OM/+RP9/AsvwGPSGkUzhr/RoJafExDbr8C5GssjAbQIpXxwCuC0dxE2xbNzaQa3FnrzJQp7cTBTzRgUJVWwd+9e/ed//uf6H771Laevr0+GIxFDx4tVQlrP+YF5I5+BUMJ588Mf/UhDOKnOCFZvDIhN26w90LjuQn0nZcvH78EpoNYUYTJ0Lb0aJr9Swe+cqtiD880A4Ruj4SyD15npuW+9Rxtox3oMCIsVqs7szz0DGP2k9cM92knEsDNZhPmSODe3KnHpNXywyMO52yv1KpnFSy+/rP7zf/pPYs9bbwXINMoREmBSIdORz+7a5fzpn/2ZwN4Ohl6VIYwPGRrE5TfAFQUh5u2YHKPyGcmoVJgVfB4mb+NCbYU/PByGmf7yG6HN0Mu0ejP1+IkT+i//6q/0T++7j/imk0fBYeW6SfySOcH05vz5174mH374YdKtXI9W7hrrp7vzFTdBG7XbAuO6k15KtO57DSCmMaQ+CnpVOtAr3HVA0zfPN2siXeqYSFaIR84FTkIfi+0YJMy44Squ36whw9ssldRtB96Gtd5i74DnKNZu8sSKVVWbgMeOHyfB4d6MEwLRmEkhzkNgVC+8+KLzN1//uhoeHvaZ6pzprZltPNS6eoMnCcdihS8oOAQgklaxR0u6r6DLwKXZavrT6eOcNUps2GI7n0vqSr6HaSb9zne+o3/y059KaqQzXas0sR4/dkxyHu3fv786lHzjhQGxZIW1VkPzWevBvSIwNgLiVFVw50QDGDKnSPEN25xvV+qiZGBPbHVUdglkeucrlD2lwmA2IJT+dJ6DwEy25mI4LceTPf51JgPVXH+psg/1e40nD9mdnWEd26/AWV1IbH5LhmiK0ue//fu/K2wEO2QQuYZQ6jXDbEB4fgoi9uRTT/ltQp3onpGkQ2GazzAqS+Bhe8SYuSoycnSF9XDfRzG8tEWhmXT7lVo3NlcF3+wR8fPGm2+qb37zm9zwx8/KDJ5Cylt79jjf/qd/UjC9Wgx+Bo8QvS3tjrjgUs1DmVYFjCbSd1w0IgeUlQnbqtKZPQTZs8aMBhZeY+KtzBzIhoZvjIaL3VOCpipGjPOt2NeNPQQHGUD85HoFRmn2Z04f1sHRIcfILwWeNbSxpV2JzRdVaOkXaixNcI4fP67++bvfJcOpGMFhq7Th89zNt7/9bT0Wjfo4E6aO0SyXLZfA/Ag42k0SMJoKy0RMsmZzHJT9a2xm1kx7qWnqcMv6lUqlqM2oE8ePG22mrEryvETT6Y/uvdc5cOAAOViepyp2WSLdN12eaUMpWinXn4zHZOMRpA/A/Kx5wT42+g2vi+J997OvcN4q6Pkxk7Z9gzLnFlYZ+q5Tfs6zUlATlEZP9n3W50IIJ3fT0Q9xcA+8rghAjLlnxSqFqL1Vy9L1+JNPqv0ffODQfFLpAg1JwIQWwIZzNYiO6T7nhV64PChWrkYuSwupmrMC2W2gIpcypfKDirW4RpkpPt8oiTMq8XJEAahSIfE/evSoeuTRR2UQ+Kl04T4d6pcPPvSQ7+YzA+Dz1ju6a7FJ7GI3FvE1gK0AAEAASURBVI31uB+TpDLotmtz+lOGCcNoS9ZXBYY8vQOTrrhK+zb/fKuY/QcOeRwj6ScAx0WYorOFGhYYDexQVRUaJ9BIt4iG4wfT6sPE1dxfwJ6xP7NZ6yqZzYAk/fjjj6PZyplPJo+M+B8aHpZPPfWU70Rnol0SkBDQvWGbNvCcuFHgC89swoGlwBMl3IKU6lk6qhDf67dozUOIVSR8r7zyijpx4oRDpuBHAd7lY7/4hUgkEhWCae5ecm3DccYRq5Gzh3tdNgV77w0nDgmTp8bmeX+f4cxDx4vLJL51A1sKkHd8W58+MxocT8BmqF/AIVowxziJrSYyTyYgzJFn9XAlOw1C6yTjuqHnuN3+DD1o1m6uyrQjE4BpS+15++1iZyZmBBGY0ORLL71EN9iqgd8sWxBwDMyuTZq5SKdmuN7N66R+YFoAb/FCRXv91nR8l+JPV+yJ115/XXtwX69YhVkVUTt+9913HTAz2mOz7lb4JxuAcGZJCmjTZZoOGYwOme8V7k1J1cFbRPJT0kuVfhh0FJFcfJsMvjEBwgFrLZByVcSODZQHOVIQsOHiSAIe+VDIcZj8pbzGyn0LbTuxMRUe7gUpKwLytHSmxYrzqjbz4BEmEcdMcj/Fr0Kpef+HH8ro2Jj/RGd8EAbLy89zsFkMg5ilsIaMHDMthqsZzcgi7IzBN/KrrFxt4Yo4055Nff/I0aM4ourfWuB86seZHIawmdpy5X+ZUZy7Dq6OESuhghJAcGxYh0aGsCs5c5yXOyJ2Fl1hVO8Go5mVW9EM34NSLVPebDWdAYZY35ARrXBfMqhYK/aAaAgvulqIRKxkJ+TAC4iLu6oF8z82KgOxseILm2aUjm5Pt3fZeStVYBzwDOLBzMlhRipQ69QqSHR6e3udgaGhoria+mb5vwyWWzsCCN+j4FZVvCL2jEaMtJZc/Pk8Txja7SE1r8VEM/3qWqiZyK5aszIjPMdjMV8FabaTgvv0oY8/tgB+HmCWcnnxchxU67ATKtA36SYlIgTgS+0YjTGVmj0aEbSYLqVAo6RnSUNhbKj8Bu14L3yHMLgkknX7UwxdQNUlhFTjJk31bDfjw6ZnS2B4wJMp5g8uXIyL5sIlQkYaCz9Ywbs4++CFgkGLHfPyGyXRgVCAw/qWNvTym5rypmbcrcXLMUksaZ0HoaUYkqa0kOeHxiaAjccZHQEWLdfwmMpTkX+Xm5qsD7TOpBMMT+Q7nTEoa25zRPdC6+ybjMQQGu5XdvbNmYAg/7tcFyAPMag1lhM0f10zucNQXtjmsJmxZTXj+wSA6czSQF5W/9MCAYBk8zaQqiPMRVE1mTrdKzq7hUYGk/B+goJauHEj1XQv4YtV2xhGqH/RiZDvfjIBEBuxcMECxSCMNriqyDNgbIA2GY39KXVtXJJn1EfzMliHwWGRgRh8LwGjqSK+M5Lz0qVL3cz3It0s+zbO1GhE9i77/VJe1HCpFl2LHSvtlRXD3BIawx5NkTVZSh9KfxaMRsggnIUKE4bSK7Z+g8wOHmf0EPatE1VgNIKn/2a0cItADNGtQVCs0KQlOsMMlX72Z1p3jT04NhKAzGAH7wVLUtMq8fECGI2DkO8OmYFfBZvOYuOmTaK1tdUKUxXtx4Kl9vjmk/zMtJdKWuIQjUGDrUXZsGEDZCC7KVlO/zifFixYoJlKoJz3S3onI1R0L7IXKtBAgCkGqksOpgyLSYixQUO3P39c/6a0lu8H1Rkk5eOhZZ+KrxOAvcZcg9RkfHl8GQKWKU87Qfq3qR47bgFHAbFWT9vUaPMMG5PJBJ0i7BDZ1pE3TLJNe6U8Q4kWG/Xyou3b4d1spRiWUv3Es4TBlZdfzgOc9PSeuF6VL63tYdonLAvmElTQmXTR7PFoRAq3aJFRvFs7fbONF+rBtm3bHCau8wsfjAqwdetWvWTxYhtIFOqq/b3uRSWYgJk2YNTerGrfi1KehGVdYq5YzZZS6i3pWVie7JyqSqr1zMPWq+/MK/bfjEoGnznoZNA4/JtrxrZo0S0uKCjXAVjPZkJGLFqa/ggC+dnBmgSxsbFqjCbT02uvucZpbGz0heiQgSETo7ru2mv9mwSZgeT629IyHnTREu3aqYBsZ7nDjORxoqWtBOKYa4DlXduAZGVIWKZSPoWJAbL1rbfcgm2yUPWEi6ZWrB1LPIMmIdutv6FLiqGGgl76IHmxJ327z0WJvXTPT/nPjviVPUS4U8AMit13bLBaIr+MtiCH02XWqoEAXM/CFKotlYsyujP9FU4mTGirJsloLBKiTW9kZlcuvvhiZ8uWLb7EpmKok2t37mQGTp/n23QYGM4WaXIR3dfuzD+1EUazmF5V5a9wTUgEf2hs9u38Qr5OU+hi6u07br/d/kBrvspyXKc2wwyct9xyS3VxHmmE96R9k4FEDPPCinTkGGUFLiH8DATfmmfXTKa0r6Y7e4yUCVMoNBKMJmW5iVJWK7DNOTDMFqUNnE7gM7LB7NJUd3JJVYrQWnQoZcEp30skOsj/Ln/zN35DIER8RbUaajOdHR3qy1/+sknvzLaqXhwQcwgX1u3asSTr6go+SMGiBh5n432S99x9t3PeeedVVMAgjvn54he/qFevWlU9bYaDIixtzaTUaJIJOLTXYlJCxmD7UqZAk6oWminPXNQppqj0sfjOaLDBpN0UuICPtBOMjDPFFlKyMYCjND4CNVfVzFde7+Xzn/2sc/WnPqWogVSijBMcfc8996irr7zS97lWiT6bOiCMVGB+2FVBohisuqV0AlQbN26UX0EmVJziZwiiiesz+eJi/iCzqvryl76ELTmQ0WoWEpqSiE3VScEUaAA6kJBxsLeG3SDak5DW/URUNRa/g0H4ppYRODxHU8JZGjgEwChamdMSUyZNoR8q3FDods3vcaIvWbJE/sf/8B/EBZs3KxKLmUx+Ei189M5rrlH/2x/+Ifd/qivZzgiimsc2Z1ak5ZznKq8QYy+1w8QvpGoJhiDvuvNOmp8ZIqjUaqY8z3kDLUb9X3/0R3RrrsHh6CndKf6j2oxwUo8oiVCjwVwLzWStTaqyrK9wbRau619UAHbKd0YDYEqoZbQb2Ul4ZYCKe0DYvbWqn3szEXAZOAVYPV9Gd6a/ggWsgmE7gwwJj0204emtzPgKJzsYQ+BP/+RPBDyS6CaqyyE8tM9jA1hj81//2Z/+qcCGc20JTioJ1/ISBDYkmZwRMCGiYjpGrIRUHthkxtUaFeIcAobz1a9+Vd55xx2aDiHlCBmcJ/joTRs3qv/4R38kbr31Vt9pS06QudDGuYYsixdpYA7vmsGfEjhar1n7HDmcqXCEzl8ozGxBWSCTEIwnlW8azXgXNLlyGKMptri5sBiGJhyQxi5ZLQyrYDCJvvL4d+EmuUjiMYqVfsNsHHRT/zBUzGc+/WmnoaFB/cv3v6+R2ln39PTwdDeFX7onT1kZhOfEB31H+md93rnn6uuuu0585UtfEjt27KjJODKjMtJEbCwoSIAgYBQt6UU/85TfaecUNl+4UZ6tikd9X4eFxk38bbngAokU3nrlypXqF4895hw6fJhRlw3OiffMJ1MP36HWyr+YExp7fPqSHTv07/z2b4vbb7+dEaFro8Fyc18pOybHMYQbObjMsKr6F7DTAdpWqiDw5xsYG+f+TCkWoXx1FbpelQmeSmGznieTfCKeWM0yRUhZCq1ArWzCeZpRl/FG/C9sw2toSYLQ8bR44SYx+cXYCDdJakKgxwmHuA0SKdxf1S9++Uv9/AsvaKTlNYE3mbwskUzSU8n0DwTFi0QisrWlReCkuTgfhzKvvvpqcfNNN4lFixbVVpPJoHZ0CBH3kNXMscy7YqccZ2qf9pcIRoABhl6iYJEfjyRwLiwno0NVyzs0rbPjF4h3eAXKP/7qV51LL71UP/Pss2LvO+9o5JQRI6OjMh6PK4i9pp9gLJCbghohbJwF3d16zdq1+rLLLiPO5dYt6VTUrK8mJR7D2tHW8Xy8MEI9leClVskxAfsekjEaJl4zeGFAiYQnQT7TLK+SA5xUl++MhpJQCiltGd/AHGDxaQKOOwQUJuJnBi4bgxB64lAcbN84827J3xhZ1G1pD+iAxaYviU9/TxV6lX8YmUm/du1aZ82aNRouqvrd997THx86JBDy3RscGhLINU8CSlOL19HR4SxbutQ8u/n88yUYjpEoM/Xkb6lKd4b6XYje+Qn+5G4w5hR7D0F98uWSv4N+WM0tarDDgxQsLLlgyT2xfoH4QoggefcXviDhjq7ee+898cH+/fokwvz39vV5zJRK785wKKRaWloU8CyhAWniHMxGIl6embc1xftAH/pguXwwXrepjWcjbN+whmWxB0kXoUbAtVlif6bY0/7dZ9NxbMf610K6Zt8ZDVcsFIcgmI0Lz1nfxpNEdjj6TRB/NqWJcR/Sfo2Wb9jUmvsZcFkymojxLuL+S7FO9p6EF4r1csndaAWukmBgQUi6qOJjagSxEfFEAgoC0lFiHJBsAzCzSXymEOaaEpvssZ8+bsVkOBFgCATgZzZPDeHAcS0DIBsq0nPS9zmYDZJ8vzN4Q+gY56qrrhL8QKjQsVgMPgspYy4Dzh2YSCWiCnB6TOA9826+uqtyve9kSTTNbe0wk7wqfctqBH4IPD9lIX1mvVjBn5iesFDAu7qCdeaqqiSk5KrA5hqkIExWrRpNAsGZLeJc7RFIkAs1NzYwoKIww8wS2KORCLCp4p7v+0foGWLwNLUKLxR2A55bUHJl7CndexK78CnE/01LiLnGXK1rk4kHGQvNJfhkmiesDRGf/FzmZj38ZdpAeeqolQRiZibJJraiZtx3E7sZTjDamM/yV0c6ffookG44UtG5m7+iyt6ZjE8yFXwmM+sJ+Ex+rrI9KKM2hiDpO8VNI7uXkSMp1d6N9UmrfvULSJCC11lNXZsZVQVewRZUc2bwscTIzBrBYpMJ0E0SXL8KbYx0CLBZqVwcsI3CfMYIAf4XOrh5jc0a0hPSYRWZ1Ix91YckZGPDRSM9+9/zqS0Qbvk+U5+sk19gjNhcUOL0CRzAn0wnC/QvAATZTKICVZhb1IrwKVaVCWp5+gSONCfqDt+ZIebDOa/XTaFMHhvTovc0NhvsyJrC+aVkezfcNqo/DsBOhyDoUiWsFQzZMhwB4FkK3dvnTthhZOadkLEkNmpomfCpsOJUERo+uWkAVrZgn6YqcwyNqEhTINWxqKj0ZE62jiI52KnjMz/LMXnAZ+v3XhDx/h7HKosiJxGeLMod7GAZoK5XbH6ZfvWfRirKXrta55/KD4H+Hi2G+4FBC7IJeUI1QPhr74b0VALhyN96SXcw1RDcV0CpselsSVWX9DA8grFV5BtZnuhLtRgNTWfwPLPLGzPRuxK/YPeDIqQ11JqRBa0q52nIaJyAE1+0gq6XhUfFeZdMSHHw/RnuFBRu5qy5e2AfdjujECssiA/nT+WyJ4GMWFAw9is6IsWxg/OCxUwn5ZED2hbXzFlDs1mqqQ2H3IqsyZn2K8f7ARhgoNHU1GzGFRFLGtdmq8WRYxjTLhnt13EQ2HFqmc5otI5V2mBHpo2gbZKBnP1k4NBoOH+sgEaOFMFGZkMQkXqrUQCD6PLVhLcNI5Ri/zt4ErbA+VI+BDjrP9gDGFr6vXPmBGjiLb/JiTdZl2M83QrXRkaDM0ro57xgMQG8Mr8cwJpR5NcEfpECQpFYuEKrhkZYOAujqEhNJd8mDYS3GWKcmTw0Jb9fqRe4MOIM9Vaxwt0RMK6UQu6FqWUao4Hd4KQ5lDf1uRn+YhRnHWA8HTs6W3pzhBbjXGNfy4qqECBAtmyq1j4NhNv4slUwoTXQZ6Fw4X7CwfcdMYLzHyRE86V0CBBuo0NaHHjXEY6lzws38Gk6q0AxlVA7grxctDruy+1/Bydv4tWleEU7NoseiMe02P8u3Dgs9+Kw/qMr1kpt+3wFQUEiiD1iUviaajTYm4HHGQ5iV2hsrAi6hIvskoPZVU5jNIDBB35oHWQx8QQ1muwuVO43fQFSYDQl1ChbYT4Dcy3lnRKqP/OohPdTfOGyYKp9oSqaapabmX2npDiwz/d+nenhHPx24F0hek6A+OSY5tnDJaSDxpukIjOU8x1CAg6JWjAaChZHDzny5OF5wSIbLza/SVQIuxNHHGSbsnlDaKTiiK1cT+8Wq+cr+hCOO4fSbuEVmWvl9I0gS8AENH5KoZwqpr1jnDC0HkDkldPZN6etQNDqlz0Fp7fKFzkWh9NVaYygpF5wyiQ8e1WQXcF5Gge8xv/ZhoF7ze1OdPka7NMUU2owCzy42L/5Evh+LVZCSWCvz4dpd3/jJai4ScgRVusZsYkwDawetRwynIrgEFB8QrJ/sVEp3n7V/3lo2fVZ99g7u7E/M2aHa8yNZFu3iC49Bw7GxdZi5SEB0dYNBnCMr5JzrcRuAlAimjDEpWJzLoAI9bAHvK9CTf3Z3ZnGaGDhetlLJQ8FfQhdDg8HCvN+MLGJceEYISmzFfD4YAinpqpiPkNjdAgYXbeNUlTx/lEy2/uqIwb7ij87Mfr5LxMQoAfS27sh4ZZgNgtWaH8m0wlKrdjzscA2tR8h3nxB6lh0Ht8Z+Fn+1TSbvfmSHZNBncwNFV+5Rqdau6ru2kxrEUhOKuDQEcBygH48hu2UGDzqLU+EWPcAdurHbl0nGX5pSpnGaF7b1ngCZPoHUIMYRXHKwzP5wbrgsx1AylDfHALYW2T0RNwze8EU78i2EJN9zWR0du9SehpZsyWAw5tuUepDcw/NPm+/AiWzcniw6+ksf4rwevNFHN7DiXsbsxmHy2Vfof2ZKdALQaFhWJtihQzx0H5Hfrh33nxWDFaT7wPX8tA+JT7+0F6owPvD67YzojotBpNr8/07WtPI8Estt8b7M0pE455NmFkrmARhivS81EGcMbkv1wvTGM1/xqII6OB3ECr8KYRgxV5ZfptnmjvjuAAWCZ+bFI0iR1swHXnagVZDWOe4X5lLcAiQCTZhWTgG7NNIIt/ylbIfQwhkEV+0MhBbudYtngoAUxE8Wbz8BMwq81JuSUAfHdbi5SfHp5kFk+Z0QRYHbtaV1E6Rh01l3KVxLN2cmS7gpcdpNrWfwEX6MOdvK0Q5fPkpurDbaTRgLDBh65F1F0Kzqb7ZDIzNC6e9zSo610rBM+WwpAvnMEwzfp9JIc0nk4Fickq7+r/fsr0F5wmml2mMho/ctK3xIEK1fg0GtwdRQS83eWhKC+DDv/yMM5UElmYPiPVhYPkorFYj9Fjj87kKIkTIaKwELpCrEotrcA23llO4TxOG+1m1zGc63OAMbv4krWfFiQml3P17HbH/7Sqc3bUA7Gx4hCtnz6+U+Oh97I/kF5KmDAX7KIKaR3GMTHmt2A+DYQcJpeBkYLWeie89v3LE0Y9mTgGKdW4u3CeuTxxR4o0XrbUZiViDY+dsEIlFK2vCaDAjEfNxhvmOZog7ylMx7M9A8C84LSmEB4JQIuCZh+88B4sPjQSQnkDjYQLU+DscCAZe8dzE1xvbmr+L+zkF9rwG7Nu3tT336Ns4oi6dW/DyDpgUF4IoN4GZMIFXDJstvWBGR7DnchxaxDDqR1BLsQwRXLfjuauwUtpxfwpI2Mlo2iGANyypwJQqrH5AaULYawDBQkIlMeBz7eGAGuRBHKsWZvCQ8uTQ+ZcGljz1o1RwdChc8MQ64GWSYj3zsNAbtiJsboPv3ZvByOrjVbo0P/NgOvw+FknRQuYShvCD9VP02XIe4BwMY0UksGqKzUcKaMMDUjz3mBIrVsOUh7Pj8yU/BHjO7IXHtBhAtHMIvzaF1HJwyxXCC0ekk2KKqCoWtB2U0uWpiiq2Oq0pCtdjMc8ESMo3wchMYBJI4O8+UNPDbtIdhAYBW5tuwlZzI+gmYk+7w3joYCrl/spxm5/duUqOTWts/ELBlXjLlpY99+7du6/VXbnKVd5SxE9vQe+gq6oxR4dOJZV3qmOwdXTnTskMmuLBV483eap9AzZAfx2M6felo1sYuThTSDfjKcXzNCoScnzZGCHg4DMnEVlBNwJWNkIqnqGbswyBY2Nw+WCfGcaM/lJdTyxaHhxad1Gi+1WYxZiuoFChlPvO7oDc+7oSF12Bkx42IypU4Ry+xwn22nNafIizM7baDN2PI9xHwX9+gTaEg5tsB0e3ikKfC/yVpx1x+Q1arN6EPvnVqaI9qe8HiOtjh2A2A6zyWFCmDQBrL9W1WA9vurgm2gxwqcJBagcwptYQrzg4r+kBnI/QcRsEzPAELFA/81LuU65UB0QqNJAMRVXYC+KEq9uEY+4qHAgMNbc19Fy+UuKQf+FSkNHw1bs3bybbf3/8w0t5yx07liHWh3jj52+fOh50m1YEQ6F73EmMhi8yNzXiHHpgNHnrmekNLs04hJ1GS4GQSMcejdOCw5uDiGCQDwEz7Zd5H20hL43Tv+Nap+Ot5z1HIyFXId7G6L60Pz95n9DrNmvZ0u5r9yoyxlpUQqydPq7FEz9Pu4aTQduUECYKtiJ9YzKcjGRiEVC5uBETC/eKRHMQOVWevF+J5edhYs5rsTkBRm3kqQeE6D1Ju37OR7Iv0uV1aPMndaJrKXZkp1pbsp/14zemKMLOSCg1lB9qI0BwmSRgNkulcvtkUZOBR1xvKpX87650vnPXluZTlYCFL9T+ri2LT3lCfR26VU9aBTvTVSgMMhrHjr1/8qNpDJ579KO2xibNZx1hHOW2fuPMmEr9Rjvx6NqtwbHVm1P8XrSQaO57y5G/erqUIRWtdk49gDSu4ukHtThyABJuccVhfOwI4g+EkxH4WQyjgT08j/16WtPs/6vPOXDP5nKZdvusv0CY7H9HiV89Ze9VCIu/29wm+i+6BngA2avCOp+CJ/Q56DgpHJ6paaIzTkVoMxpaTc6JhT0X7N14P5LR1N/dtaWlIkyGcPCF0bDi1q1tryrXfYKbSZMLuTkGmk7tnHOok58u7zurRcgbYz6zbYLzLu19VoUpiEnPaM59n7yVLpYIdFVk1nNhuTjA+fjPpDj84bz7a/a0IHz2vqbF84+l5zN/25QQEBFEfvki4LepquAzrB/5VeFwYCdGU6uJ4fDhoz+ii/s8vicDl7gd6tcGNtzPsjSb0eNz+PxPaDgCgN1bCHeT26zAd2gwOgIiDvrny5aBbRdhv9VjMZiKc8hWpNU4rP+xG/e+cetl3dx/qVjxjdHsxKYX+NhPYZacch6HRBUpAwIIf5Bbd6vQ0Li2Yy4BaleoySL+kEOnAL/pDnvEyT68+dLg6OotqeKuzniBew4MsfHovRox0Dhh7QY2158iHE4d1eKRH0gxNIApZzel8ZoSDVAQGYGoGsVoNWgPhj2rBonvA/A4fPJ+ZA1EDLR5fGPRAHJ0/d71qIZgYe9pNq7N9H7iJsnQM9Xf9wI/xDFCJFusbSZDgI/5Z3BQMyf5MCf7PfXA7Re3cqukosVuVZbZpNIJRBlInZJZpgxQcprP7LlAme0zlRRtTVYLG21gMogOJBIE7fHfggp7sdvQFDx99V3CizQVP8BJGJD4vLorAK8khFaBqehsJz4cP8/MPPZjRGl+x96dGZKE5t5MENlVqyFVEHdsh04BYW7S8UKRksHtrocDxsGBMzJzrcirc/o2Ndcn75NGOLOFB/dmtlyuR1dfgH3s6mszxAc2ZozZrBq5X/Lhn3SQYWfgjDWNJJLzKM+L48/P8N1mhuZrJud1XxlNbFs3chLr18kps4ocjcK9zkeoE5I89sa9GtvCtYwcNenMmxUH9fReUJ0f2bQjNLjlciRjtzikx4WFvO3i8Z9I/dav0j20XWzTm5/dVzjuJCJdPPeoEC88jh/8Hx+bwnMzDQCf5eM2VVo+46Bd+N1z+9CiUEAbgwXj4X+HdvOu3TsW1c7KR4jboweVePBfBRLZWQsVxsuzY6HoueIOhEymC3QVFvY0AMPLNgBSW+O0AOzW6FhuSz1ptOumPgo1t7w5rfsVuOAro7lbSkbufyZ7/XN9j8W1w3A01sShjMFySsXhr2w7tfgcHNWcznDA9pUyejXpFQxfhcKBnms+6yS6lsCL0MKET62GC+2B7wvBcCVnY+GEYn7413YpaDPSnDWyNJmB0MABYFybqQXsqEVFIGLbTksKaXRw+Pn3tDj+8dmpxRLffae0eOgHSAXwjrXrOu0S9Drqv+xmPbZyPaiRxfqq+JygD4hMgtFMk7Yr3lShCgFCF9SY52ey6TFfM3vp0nnmhjVyqFA15d7zldGwUyqod6WSqVj26FKuCkQTJktRuX0v+h4ZGhgNuJ29+Ywcpg1aDSYGqJH/Rboe8mKsC/deeaennKAJb120VRKfQx844n4QnyMHfGXWRftS7Qe4Sqh6vvWyEg/8AK7ASIFM5mtTiFAEmDXnZmye9+uZCBwQqFVZTTCMl5oNzlKJh/+NzgFnF7MhvkcGlfjlT5TY/Yw5hGItnEJwG121WfdcdjOpPbBpBfCKYp3yBI5OuPQ2q/7e0JmhcPSMBpDA8Y0zV9PfSJs9F+6v2vtl9r1K/fad0ejB5D4EO/gg2/sMtEKOReHm7DP0aZDimRrbQhrWgFnRHoI8ZP+abfU5njONyN5P3BgaPv9imNDAFm0KJfi9rwbEz/9F6yMfjTObaXPIpqbZ8wyJBZQB8Q7C6d//XSmOH7LeEDaDpIjbCKmWYWFqWbgNSEcE27lviCQepzvv2cRsOO6xESWegEPEsw+DGgJ3GVgUwR/PzKSaO/SpnV/gIc3aHNA0tlntNSLmDPpd2zkHeI0g/FcumsYDmgiIeawp4PyqCFjLvu374O+6cuEIgPysk7VPY+YQTqci2jKIZNn9t3oxis0vO+qdrg59k50RHFzyYVMsZ4chebmtHYGT139Rxhctx9kaCxXfLDgA7rXnA5JmFeP2jNotF2LOftTzRY6LTPhNaDI/+2dpNLqsOVW4+1hiDbBVhmrMZDKdpFYTgbhrOzFJp7iR/fxjUjyCPZvTc1yzIb6HB8Bk7sMhXLj1x6PWEQAoTyjAq++Tt4jhjZfUyGSWRnRQOknknkEQohoWgBJxzTT3xXORB+NtpvUL15zfPC1hWaV67TujSXdUPu65OAiSNUqGo4nFaT4DJHwqrJlpA5h507YVTopm+DozUkAuCcCPrhoT2rmbQqeuu8dzG5vhhWax/ZKBJ5gNJHytP3g7PZ8z1/3oaC3q5HgScUr0GkxGiI8QIDbLk7FgtwiVEASaRt8dHQt2Y8pNTvpG4Dhoa0LD29RiyWyeA7N5GGbDowfTZrS5hG+OhZ/ek2lvwsd+7MCzsJRDuBRIBMLM6NNX3ik1z/FVaxFPQTCHAScAx1EI5wKDbe1YDekezWbxBISbrEKaDD3Hg1T9ML5bEJ2sCix/TmvY8r2SHoPxb7fnJo9mRwmAgOoMj0J69xkJhF60FKcAzAm4OjvdkSo5BRhociJq2X/RteGey27BCSDkA7KBS4bIvPFiQN73HUj8yMMyV1yfM0RnaICmEy3u+64UR5h3BHsWmXEXm4kEK86hGaJOf696Kgx9Q1MeEW1LhwyzgefhC7+AQwjMphQuKA7ZwqOexp/dl8wYDmPfkRv/T97niOiItYcZq2OkjdjSVfrk9b8mU50La2QyMz0BSmSqgTEd0a3soVb793DUy0lmGWkfR1BOIE/KLj/7ZLmLOrMubFz8F7HlG5PbQ+HwNoQ3mKiM8wrbJ7q9FUZrsP2JGz58QTsSey/0KrMreA4+AWIkhbhAJmKO3Wszeor0JhR24kvP06H+U27jyY/ZXdp3C1ebuX8aidKOHcIbjhZdC4VobCr+buGaa3c3M6bDB7R4CvHLnrwf7kOngcASnHe4wrnp3oQ5F4K3Vz0WbG+jWxAOOOAieM70n4/SQ/H4x1LSOSDSqEX3IilC4dmNbwpI7+KczKM/1OIVbPynUqUxGcAk2bFAnLjtS9BoYDLjfl6NCpgME5zFG4OBBnTBErE+dDY9VdTJAaTAypEWIBiKQElOPDL2Tsu//PjH/8VW3Cm5o1VZfM8881/0F//gqxGEl/4shK8pQEekZdHaFHAjYdhCfBomG+SUA+MA8u2RjjQ1SDeg1XCS2m/JsC3rBZrMvMaWQGLpuarx9BEv0nsiAKmjeOvsIKXdAQRkPPwhQ5hogdhOor0Lull9CfIFAWPoLcYSR7K3Pa8I8cufgug8Bcl2lD6YBV+ddpPnVWieitQpk8l0mKtQQzjgWUJQqMzlgn8zjzEL67GDsA0jyGR7lxYtbbOL2WTw3XeaCcxgLrtXiPfeAERADEqYt2QqMDnrU9d9UfRfej2Sp3Ch+0RQCiKGN4kC7baEgwrxzSJFH/fxAYJ3NKZU3yCD904tnGpwBPCUcv/6M9c27Jl6t7K/Sly55TeelMkXAil5HMxmxWStBschnKERT7Q0GjOV3SIrsxtRGKQaMXmpJthNQclIAbIXbthxOB/72rlJYzLq/5Jzw8dv/Z3Eings2fzxe2EZwIbRpGfyfqVNmtF/n35AihMfa3HptVpccLEQnQvT3YfWVJclQzgphTLx1xsvMVw+pHZ4lrHYujBnBscQMzwvE/Hqn8uSJjZAQ0FuW5EklcoMoshfwoxwIYyoBSBsvv7ETi03bBOiqWV24DuZ4NkYIXY/C5w/j2QxmLvcf8vMhyIg4G0jnIUjGkcEdO9lNzsKAkkttRmuMKSGTIWkZMjWmhZaVYdGseWLXmRPK25l4JDmUfDEXX53chqX86tBfe2OsW1da7eHGiJb4Rgw0QznEwJgio4WRB1EfOqJGxX+QiDTcTgCrQYZCrJhnrc1xvRGeCA1kqqeVsPO0Gyf7FwUSHUvdhtOfuyGBnvhwGLJ6whGEuyTx9LaDWKAGQmvtR1JviL1JfFyAmSICjeAX39RiKdhKnsZrrx9p0B0MJaSPUMBvAYguwFMpgRc550E1bjBfnI10l8hf6qQ3D0hjFJJmk2lPHoQ5wZGwGABgBbgGwLKBHxzv13dqxl888AtNe+Xn4RpFGZRZhZlIFFqrZn5YNEzw2QQv6wXAWpPX3s3MqW01tRkhs7jf+01B4NICeA05NwYsRhXRR5BV5Kw+58awFnwHL69oXAE52fc+3ff1/4DWp0q0maeStCV6pWH3xr5XDAc+hEGlx3BVK9cEna7WoMhzj+/CmtuxJrsjuAfy8I5j0Of6sOhhIMU0fYcyrL+wo9B+UfE1/b3X4ste/CfZdPR/Q0kHCVBiLZ8Ll5mbLzgEiHOv1CIc9cLY2LJNF4LLSdDTNg2T30feI+HEnE26HVEPgCDMQTJHk+ZoQBB1GTAZOBhA2vUrCvYlhAxmtEyACphBIQlKUoDEiCuOR/43iHERuB7xWpk+YSAkSlVxzeazrSOhFRG06YW89ZLEknqGK9uXKDIPJTpaOG/pJ7IlCl6L7tFnwKTSbV313DzP9NXZtEU8fZIEGKzU9tDmgBn35CrjvakpkmoNJvBrTmFhAGfv2VzMxL7+FuqZjrjMKBNPJ90U4dwpmbNZK0Gy0PS+6yj2V/zGacxFHXB7JvgNVYEm2uyAVGdOyNBdTLGLKz+ImRq7fBgQOzRoQ0XN+J6bOlD3002H/kgTM2GoTWsCs0Q1G4OfQBT2mHktXldi/UwrSCJmli5Blx3MW3hZyrzkwhN6rOEyUSfPCqMVLvvLSE+gImY+w1062afyykZc9lsZTIccwgTjjuKcTBZMp1SCuELU5pOxiWiG/OsEaMca7HpIi3WbBJi+SqEveiYquH4he9JuDZDYPDTEx9r45r+HsJpHXwP0bb7030p1SyKChmuyQs36t5P3ixO7SSTWYBrZywlpYCtss8yrhniDGFvpmpnI/IMADK7Hh6DoJmjmJQArvshtpFeyHG74pdKnMkza5+OAI+8M/qNcLjhf0nyXMSkgsOzas3yiGoIO0E/EcRl3AyloBMG1EnNF/xK7h9zPXVgJAUmpSdR5YKvVe4m2ofpS7ftey255IkfipYDe8I4aGzPbDI9IVEh0wkjVPqiZVqs2iDw0cjkKMWi5dxMTptaMs9n/pZDjHKBl/b4/h6Y9MDwjnyEQJHQYg5/KMUAwsiQwdBEluu9TD/y/SVSTaBMDC7smfDb+R6dNdeZTCAKWSgFmAAqZfWbMCXuGluIY+B6I3C+UYpl5wixYAkWQutUpsNGCEvLHUw+aUounLHd6KgWfYire/ywlGR6BxF9/thBKUaHMB78X6alnEzGbWpDaJlbdc/Vdzn1w2QwJAnHtwi2VJEZvpZmM6IkCieAj44ncsbSCkcaYG1N/D+3bmn5PzJo9PNveRN4Bj16aM/o9aFQ8EFoNA2TGQrn5dLuUHJRV5CB1H0rrJqcYmHYMR5otk0BcfoYvAlORRm2yLfu5a+YHQCzaTn0bnLx4z+SHfsQ+0pj97jk/Qs0QQCT4RAQrR1aLAaTWXauxgeAWSbhKsvrEuY1TZdZak/ZQ578OycM2QYZywiIylCf1n2nhTwFDebYofSn9yS491h6vOUyGL7NxoOgqNyTCYE6z5Y9mfTIC/+Lk1TQbLRIYFTTMFD41Sl3yXBokg4henHHAuB5JfANU+ryc6nRSjiKUNOB6t6Y3iOZ8nK6ZYK5YGGmWHoKDiMm40CPkP3wIjv2sdDHD8JZ4Qg2+REIltG2y9pzO9MyHWUSXYtEz+V36H7sy6Sa27EnUw+aDFYE9nKbg4FEUyTQWCqvPjPCCn1Dd070JFXPoDfNCsOzM/hvVAf0jbdsaoLXjf+lqqYzDieaTO5uluKdUDC0A3mpJ0ZI4j005jnd7UHPCeD0g0/chgSSa24MngE8J1NCkTjAKYfogaaq54E20T/Ag2Y0BAkMe7d/yfWaW5Mde54LBRLxoC7V1ERgG3MFADEySBMGIkG/K+GpBK+Mbki7YDRdi7XoBFEiw2ltByHH7lZDE+yfcI8KwZkGy3tS3xyzGR2PBkQ8BvtkTKFeRwwiEyIjTfedFLIPmswwTCXxaBoBhH2p/Z5ocPwLJZUwljQ9tgCFmdDi7Krr4jfECBMTjaGQQKONk0BJU3Z8FGTktEbyDFsvzJO9J4R4903iledviGt8FmnZ2Y1DbR1aN7RIB0xHNzRhvwtB2XC6HfhmDTA6A+3wwESkBikRFgZmOoVDlcAt5tFAXxrf/aeEJt45tzJr3PShfHJjDi8D3dHlq1XPVZ+W/ds/JZGltk7MZWk4Q4uJR0IOvS8wKYuy5nHkVP4Pl3cCppfhsdwJzoJIlwBt5jUVb4HNujqlnGk745499PbwV8Ohhr/AYKfUhc7oc+AU0A6nAOSqmXKvkj9YM+lcyVoN3jsZ97zjUeQwqmSHSqoLkxhMItJ/Mtn9wsN6we7HZWioP8xrMyqGsQMyGbizPriMgrkgVEpzmtE0gtGEG1wwGgCQGwnjBaRIuAkwkTgYDRhJPAriM+YYCTeF6zwsRYBxBZSjgWXayfw1CET7YdTL4JQ8YT+XC8ebgGaDrRfk55yuXpYzduI78yFeQgjHFW6AsEFcN0mJw746gkNIZDSIZA68MeU1/gO8GTUqEQdZBaOhUBEDzqOjjskEykOWrNfgmvjGZ4aFnmXU5kfWbRM9V92lhzbscDRdmNmX+inUZqJNoUAzujTzQc9gXAR576CrjsMJILsn3AYIBkI64Sb/8I6trf9jBs2U9Gr5IkZJzWQ9rNwH4L/9v8OPe4GiV9R4AY2TgzhT09aMRVWJGZqpOOsvZ0FZWg1e7IJHw0Bc6hhO2VZgDWX1zOYngETzQefi8Knr7vZSnYuSC194KNlw/GCoJCeB7KbMYDDADL8isYDUSg1FDvQCIRMowZwhBLML7uN/84+JVItnCCE+OlMmOLkpdgRiCDJVgunNIvflyWMo9TthGAFxx7acSHDfBnDluWdeL7cQ3wbn4xW4YBAuLAxjQ2AoBLKpnya7PEwcz6TxDWLGx1gPKixz3yXfMDjX3eY2Pbj1St17+a1ybMV6NIbe1ReTwbKRqUgQhzM559OAyTckf6+jeQbQHGBorxzzg5GakRHgCD4P+9uRqbXXhNFEgyc+aPFWPh2MNH4hmTjDaDjvR2JeIJYIek0N/joFEAyIfyabA+loAWbNTIXNtF+cPwgr4SxoCKgjY24ONE57xbcLxusGEQRwQC2c7Fzoktm07X8zIFPJ0k1puXpJZLBw3aS/1exf9sSsXYRlMq7LJLo0K1VGtq/ZuEpqmEAIY8yMn5HAh1bnSmk37IjBNxoZRzsv1bIYRoKJF1uySvdfcr3ov/gamexYNH5GptYzcjJkzOxUjUGcE8UBzZoyGXSLvRmDbT+eyK3lM1KzSsUfeevCjsOTR+H395pNq0ffHv6MEwz/EE4B2Pw/M3H4dXFnKLlkAcxnRqzyDwRstQWMph0+XLaA4IM4YKoPjaZ0NUPT5IUCOwSzQuT4R+6CV57wut58xsHhzjD3P7iJP+sLkASBGftCmCXICyfBZEBu80jZs360dgPgxE1Cs8EZTXPehoc85wCq04Onxg6vMuwHjq7frvsuvVEMr9uO/ZjGOjgjMx09JFEhc24GxzNr7Gk23jt9+GRSD2K/O3tK4FwP1lJgLJVI3X7H9tZnpo/Gvys10Wg4HJh1dzU0unsDodB2N7NhiOukjQRSdydP1kqSF/9Gj5qjSktEj9cNwIFNS+wOnAjkwoagHkO/qY9lI9TXDmdXzg7BSSC+fHXo5A33yMSSlW7Xrx5LthzeD4dxeKVV2JSR3bwfvwlPg3buA8HZHXsxMJcBzIi4jn9rCm4/xltynYRABOyWqzcJ+NAF2gVccGk2Q8cEscZwYkvO04MXXiUGLrxaxBafi0GBnE8ysZcML99e4GRUqiEU0nAE8PVYhs0QSDujsOkjwVlOETMAJ4BkMrE7Fo69alNfJZ/hlK1ZeXjP8P+JMzX/NZmkaDaFzOtlC0KpBR3+ujpz4Gy1Eby/E4Fvp4kAeSBDoEGpEUfHXN2byJ1MKM+rvl6m95mjXNV0aJ/b/doTqvONZwOBOP1jjZ3dqG1ToOxrb8qoPN05emwrHcQPfkJnoZmsFNARZnSDpimNDIfmNF6r6couZQB4lv3FPxqOB4OIujywfacYWbtVek0t0G644W8e4EN1VdirCHzv2htC8Eyobc4ZAxh06HhvUvUO5XBpxrSAUO+lEu7v376t+Z+qDciaaTRmoMiV6Hqp/zUQCCz36Ic/XgAvOgU4na2BcVfnzJ3K/+V6jINpwElTY7/GTqvBOzxMv7AhIEY9pRGiJqcEUfneFq6RUh+otDO6+oJwfMGyVHjoaKrtwBs4nRly0zG0KICBjIPzoMNmrBx/zZcxO0DtxQEiqMNy/yWEj4PPvAZTBOm4HQSc6MQRguaXAloZUYCxrerdpEa8cwIiIIh0kEdm+VL3xC2/E4wvXG4cEqwyzeL12hROTO02hgF8MBm/LS/FxkgCFE8qNRTN7dLMvRlYjj70vPijxery435Nbd1jH7QeUJ56KBDMuDqlh8i5F02qAJL1cKn4XkDeBLZckFYaE96yNb6DDUBjQrN9x7LqmT2GjpHhJDsXBxNLl8L9F3GOmjD5cCRCN+LwUANExAhOuAVVCoScBhfkpUOTdDTC38xYMn9n1pkzb2fqM3/T7bExuM4iux/704ATpOijyYLJNMd0WZ5nMmcAWOwbAUvmzCyiaTimTY5k3izpf83Xmv6T6QcdSxluh+7p7C+85hMLOr3Y4pWYv5jDdeZVNh1mWkcCThLOQbVN05zpGEA5AI/dFNLWZy6d+YuFBE6EmXDvXdsX4hBV9UtNGc3dd0toLPpfYe0Z5EbV5EJ62T/kcc55ZuNm8s0KfydmkHJJ4EQA/i2h4MUupBFAKoFaCzTTOg2FC5oBzo5RV3BgiAqqEOz6ARAiw3g087SkPzg3Ac4U1iksfA9PI1A9hkMGRLmYZZwJZRgRK7X5GGgSommoAo8wiZG5sZ0G5cpGML10Hxgm38FeDGx/6OM8gyHUyytEDBkO93CaAHjCl+kSSNRJ3Fn4Z/yr+e3nP5PbyjCXdNDTNINBzjbjqg6tRgehfJt+Vatz5Q8c68tFUjPYQPw7XG7bO2ozSVd7g6O0m04vxqXZdU9Bnv8R1lZNgFtb0xlg0t7W+trAwOgzoUjk0ypx5gAnATaWUAEk7Um1NQVMtM3pIKzcFUIfWy4Sx2Tgwmy3DikrBiB3L2oIaESnEQkoDDkxXbluWtdkehIII97SlLGkw1EwpTH5uhF2JfwZoP1D6YFPAb+m2YoHLUMjXhO3mWGMAcvhiWfWhzzC3KKi5Q1MAfKneYPVkamxgFHBQAd/PhjBHJnAb57b1yB0aX8xPmW+43fmHb43XyoHAUKWJkhjUgNmiFt6rnA/x7B8/KYYQRTg9kThe+WUXHWQsbA+4psr2HzGf3P6TG4Lc1GHkIzSLKDJlZXTGd/fUQ3BgAeNhkeGa164jPuHXaYEoOIyrWBrAowo9VDjBa3vT7tZpQs1ZzSXr5Sxh/YOf0crdRPO+SG++RnUAYCyf9CTLQ0gZji/MmVBVBhAxA+1GqbWDoJ55MBXzhaJ5CaY0BbBC+1YNGXisti+m7PCyl2UysEmJTs4qUz5ZTpKZoFCU1WanafhzGjngD9VGzxGS0b6aYMeUgliA5WD4eCRdLVkUelCpmK+AW94GE84xhTGa4YZsbLMw+bB+X/8g0CasWMvh0AHLgzTAfSJSzIe4BnfiaY0JnmF3zNlmr6Oe5m76VmRxiq/88N5xL+cA4bJ8DvvFca45nzNSSrxbp0UjgDmshS1GTO6rPVV7W4SS2Aw3sBo7r0ZWopAWwfRr+/tRGqtavcv017NGQ07Eo25z7ZEnF8Fg+FrUqmpWs1IzA2OxgPQaqpjCx3DthC1mkYEmSm8LDIgxPoBsjvx0hjS7PTVkReaQkKoYiwzM8ZJf9OcJb3FnCEOSCc9wRjIvCbNm8ybZ+DBb2n+hNfhS8TfpDssmaczf9NX5/+tGgSIiIxmQSSQ8RA7ZDokmuYvv+OauY/v5sYkLqGNRsya0gyEDxpGgt+8mvnO6+mn+GThgrYxX8FosPjqtrBr2gOT4RB9P3phAwairI/aTJ5083RpdlOJp7u6hqru0jy5/5wSNS937+gacj3vnzHVktkCDfcFqdVgPVDh97WwerSHgJtwJ8GCs22OyIZSI2BCo4MAf9a+mIULGm87iKweTx4Dv0/6TUZU/L/x+jLvZdWR1dr8z5pAgHODFICaBz3XuI+D8HZmf4eb9Nw/SX/oYDD5k7nO/Z/0O9wS5/t0STcmM/wtae5BJAng6GNdF8QbDQZSkClpUq55oYDL4JmDebQZRoJSSkVhJ/+ny1euRLTb2pW6YDQcflNEPuK53uvkwJMLZx61GnqgVaOzbI/uyqU6BpC70IS2GMyGETfxs6aF49DhRqjK/DZf5iFQAgQ4ZcxnnGmk/f/4b/pjfpOR8DP+bAnV53tUhbFHUx9iWs4uwgrlNjCyvInll/ORal/U8DTT1GZyNRxEWgjPTb2YCDXtynW/mtdydrCaHci0df2mtj7IVP+EeYuQgZy9Z4rRaoaQ9xrbmFm3zjxU4W+jrpKJErQa0zy63QEDLjzRaHiocQGwIo3YuJ9k8qhxj+abn4dAIQioUAPTvdVnkdJrDARUmAdS6qCQDuLcDLSZ3AfGGWxbacU8rd+6a6NEHofalrphNARD0FMP4ODmG7m0mtGoF0C+GpD+6hRkNhcjsJ+hQWumQWEM/o4woQVFC01o+F2zgsbhxcM8IjXrwnzD8xCwhgDmqRdpQnyDWi6avL1F6nfpNgYc7k/WfEGZJY3l3TeU9jTL1WvmnFGp1AvB5pZf5rpf7Wt1xWhu2taKtHzetzHX3FxaTd+gy4gUuVl4hSHH2RSHOyjclktSCbhMkB+NLs8CsdpqymtcuItOdh6qMIjmq5uHQEUhAMGIDth1VxAFxG0K8siMSf5W8/6RNkWRgHGowN4MGDas/94/3LBGIuVp7UtdMRqCI+DJn0Or2U2OPLmQiyP8dWAQNi1cr5rYM4pdDmg3JYkx7FwbTWiRYNU0sMmwmvgeQAC3+TIPgdkAAXjBe0y8VlPRLBtQWD7GZOYoBNKdSpCyH63Sb9JBRL3SvdBmckcBgGUItDOVTL6Q8vTjVepW0WbqjtFQq1Gu9w+g7YlsrQYEXPYhYFzSRYo/oz8WHd+MH6AJbTileD6mJGZDt6xu6NvgN7VZOmjVc+DfXC1AzRjS8xWc7RDQQTCa+ioa6xcOAMiNlXZ7qHnveCwNh9gV0jSnD19n9SjtpwBtRot/+Mz2Tp6fqYtSd4yGUEkmxUPQal6g18TkwlkYQ7SAgSHu1VSPfseg0I/h1C01FdvCZxtwyLS1lns1ZuOy3tauLQTnnzurIACByEOCqioaKwqCl2dYEfUDJjMceawXkxmWsovsmUjTjC2E3HIvtRlkL97lKveJggOs8s26ZDSf/QQ80Dz9dziNPkbvicmFZBNpSp1YQlfNA43tjyK8TILub5M7Y/G9HR5oPJxr8WhlHwEfZl51fqrIkys7hvnaziIIwGoWDNaFRxcdaNAbhc1/XS9eZpwIoD26f8SlRpPzVCujAODczBjyUP1dPWkz7PtUKs4rdVJkLPm467qPZ+/VsHuJlAr0DsFzFyc8q2RBE+AzYgQxalwQcGtmg841hRAlEpHEqg9WACeA0GT4zJd5CNQ1BCgU0aGLc7V6hopCIGFqZheHMxn+33q5F6pwpvdI5xKIOIi9mbyWFRMFwE3+oiHY+tRM26v0+3XLaG69rHtYufob8AXvdZDQa3Ih5odGvcBwTDHDT9W0BZ6rYdQAKDZWhf7N6LmD887V6+R4zwgjHUSCEieAI92WHbYa1fxD8xCoPATS2nddCEUa0WPpZUatoW7oI3lxDxwAEgmEqc0BftJIpbw+nK/4xs7NcjTHIzW9VDeAzAWF3qHmF+AY8BNGH80u2KWRPf2uhGdF1bQa9oERnpkkDSZlK+qNWeFAo6mF8UyoYMSDlFiXLqPZ+Jz/ffZCgIIQNBqlQ2HGmqopICC4us2w4GHN1ocZD9CgNjMGB4DBETenAwABZhKbue7PeppbXqopAPM0XteM5ks7ZTwsgn8Pu+PBQJb5llyd7s4IwcBYtFWbndRm6IWG/RqKFkXbZT9ziiB5EFLJy5ASEag/HZK5kvXO1zUPgUpDAPPU8yAYVbpe6/pIzXFmFCYznP6XjNpWF4Xd8uAA0DOYknAEIDmZVshklOcd0dr75pdWyfi0B+rgQl0zGsKn/73wXk95/wingBwHNbWEzdKJGseAnDjwBcR0eR6CFxpMacR8buyjZU4SFJja8EL1umcapa2bNu86snun+zX/7zwEckBApfdoakbfYebWDYEAk5lRk6n2as0BkYlLiGem1Eg0twMATy/IgIPcke53W/rb90y8VWdf6p7RMAunVInvKxzizA5NQ1giemkA7n7cDqna2Rq2m4R0MZjUMgovAfpac2ZOfPAF/8NxTijs6WCrKT8zYl1+Fbi7IcUZQ3zOl3kI1DEEjFAEZwBzSLv6vIYt4kAmtRkulul2+hqBjoJqIolN6sHkeHan6R2hpUd77h6lve/s3Fm7fDPTezb1St0zGnb31m3dR5G85+uQ0kezUz6Tig6OIQ4ao2CCuE8dnr+/ENNOUrMZTCowHJwwhecCrmlk2vT4eyipES9NG5ezqnaMwzZaFOxmgVCgTjx5/EXGfO2zGwKg8dinwV5mdVcKW8N+jNuCVDihOtuXUbCYnKYDgJsxjkxF8XgQ6bjret+4c1vHwal36+vXrGA0BmRjyUddL3l/IIe7roJvVQ8OMcVTKod5zV+A0+0ZTAWmNCWH4XGNeSGQhwj7OEbbcXCwyglnnQXyt0eZ2qlGSeS1xLGz+TLhNYI9AABAAElEQVQPgbqGAM288Pih61R1+QzdylRzKKDDOJRZ5aYLYoRC83AUEQBG4Fib58n04Uz3iWRc3J/nkbq5PGuIEN2dsbP9dezXfJTNbIiIKBwDege4e1JdE1oGk2Q40GgcaDMSnwCMeWZ+sEMIY1GTvIEMqKlCSH5WZSkxA5P5v/MQsIIAFgk0b6mzT2dbvVzmQ9zbAK3AnowXqaMQMxwN912Y0KxnIJU3AoADvoy096cQr+RveMC9TChU7bVZw2gIkeiWpjcRXuGb+DotujPtmQMwoQ2PecxpQfpeNwVRLJAaugagzjCauoHEfEfmIZALAtjMDEaogee66c817OpGwGSaQsyNWz+b/+MgUDwzA+E5J9EgI0J0K+15ye87kZMv+gOgytaacyCVbaJytd1twiE531fKfTqAeJHZBW6AzmlIAbUwoWX3Jfs384xDcsq+7O9vTEYsYBjy6orv+jvm+dpnJQR0iB7FVWM0Gpv/Jo4ZTijUzeY/EQceopl3K196Zj5DpyhkI34zldT/cOu6dQleq/dSZco3c3DctrnlJALB/Dc4jp/KPsjJaYo8DeNeaNU9yFlsZDxp1VxlZsNgOUgmhZ2j+TIPgTqGAEy7Xqgphf1EGtF87Shrhw7jNYeCEk4A9cZkjMns9EDSyXdmxjhDwSlKSfdv7rq4/UNfgVXBymcdo+HYZUP7LkR3/jY2D6e7NIO6IugmsnEqHv7yd9aWiAgGtagqswFzU8Gw74u3RDDMPz4PgWkQQBpn+Fbl9eKd9nw5F0gMePIf4WXozlw3J/85FixVHLhjmBlPR2O5w8zwOR7OhMnsZ05D2wP8PVvKrGQ0t67DfrsT/Jb21K5cZ2toQjs1kHJiyepGeLZBelWZDfXwcCNcemx6Nv/MPARqBQHs0dBphdTWxwIm47WEggom7LrSZDhk8pkheJkh0gmNHzmLMZlp9T7Ox/0taOBwzofq9OKsZDSE5R2bGw9rlfq/4Xpxih4YkwvxFIcJ7XR/itnoqhoLbXI/8n03zAbHW/zfswGjCc5n2cyHh/nr9QMBaN6+MhrQBIXcMqohiBAEhq7Xz9jJWOLwMuP+MoTknGyGDnnwk4u6Sffrt57fXLcRAPJBddYyGg6osa//aXih/SO8MKadnyG24IEW6B+mCa0WYfrzgTx9HfbhapjRJBZweE66N9efZbQwwufv5ocA9mh0IIzQzflk+fyv2twhk2kMBRlehj7BdUXzOGLGMjs94IoYvMxychkM0pjMVOr+UFTdC3pXg7QjNpDO/0xdAT1/N3Pf2blzVRxbet9SnnoyQIkoq2D+SgSjC4xEPZ56qjsDku9mNMxi5YQgwdXd0LMwVcJPGLJFe7fW52xWiPQLCjXr1lwJg81+FHjEkOdc4bCC4SBDold6bGQysBx42JdheJl6pHcmltkQtvfzjZ6ZhhEwcR+8bf/m5svb+ysNo2rUV4+AL2ncN21pOgJG81cgqR/nSpKWcuHyjHQC8Trcr+FAfTWjgSgpuoEjS8FcKQwjryPNStz8FU9ffLMWkSa4LNUu6G/V4GoYDFJTNDQDAHOM2YADeDTxVn5c5qwMHHDAZOrLjZnzhowlGkcsMyQzg1KDX9NL2stMjrle6m+j+9rfnP7E7LgyJyjQErfleWTj/P9gxIyPx/+ZgD6xR5fnHkQNSO/X5MTnxPO1+OKfGY0H4fy1fVcbXjzUJ8eGhFiyytE3/JYU1/+2wncFd/e5Ke0TwBxbEOdMLr5RiU/egSh6lafI1cbjlPaAU+MMMOXijH8gDbNUTdj4R2zZuqNzZDIQghWclkQylcdkhoe4/+x5qXvBin/MAMMzhkqNKqg7BJQDhx07ZCquRr/vpVI/ZTTTbB0U61Iy8GbfMFgNf9Qfr0lrNhU+Z0PpXwUbPABk7ojApBljw44cOu3JhSul/uSdjr79D4TecrXCSTYMGOdT50ohP/FwDKprqRLX/rrS1/+W1Bde54iQL9J/DaEGfQPuzRVcljyQSQ8zrqu6o3GkPyREpxF1fnQs9+l/IsNYaLR6zXH0/3v71o6BGiJoxk3XHRLKHdFnty057bnuf4Nd4bVcJjQG3kQ6AWcY+zVooy4Jrx97NooHNucSo+EEcZNSnD6S5p6RJik2XSZhShN65xeV6FqmcGx69ms3xocFQ1x/idK3/Z7QV3zOEQtWIJZRGxhNQ71OYWKnjCK1macVWJZY2NBkAkkwmbo7kDkJMHoQOWYGhj0cHMpjMsN5GbDfXmQY/uubzm95d9K7s/LrnGE0hP7t2zv2pJKpvwLyTmdn5OR97tec6k9JmNLgpcYr9VcmmA0iplei6FAESa/rdLBlDhBkSYjTH6ftR/xO+/biVY64+gvSEOX1lyoc5oV2MwstDRktpm2B0ld8Vovbfl+IrddI0dSaRuLcQmV6BmB+euHGSnh1QJNxkIpZIuFAfZ36z0x1LsUo0jIzYybsKzmxSYsMD5Yi/P+33AUtD+N3XQrGmTHZ/K0MNbNpqQrPGISkWh6By/Pfw5KfyjahEauJBJwD+lwynfpnNjOMjQaJCKE9GiAzzSk0p4Mv9hwZ11rG1yoZDqV9EmVoAOLqu5XoWDy7tJuMFrPmIqVv+V0hdn5R6hUbcYCCPpOUFzDWVMITbgL+lDlpVBVWWeWboC2b83SGzgA6CLffVnAa/F9Xp/4zECPKkimtTzIeYzL/6X9aZBCl/pGAkN+8Y5mMZt6fzX/rEiEzAegdO2T0l/vGvpVKupvgFni3m0pOqQ6igURa1MDpAc9d1o2pyTCoadl4ynO1/pFxEGA/Et4MhL1gENN77hAlwoMOH7rvKMIipjwZCAYm8EdmA1lQrNggRecipZetFfLVRz3x4Zuw2CeZWIuv11/h/COT6Vyi5LZrlNq20xHL10mB0PmT3beNWHv6iBYJpIXPOqRcf4MqsUczO1hsmEwLjuLAEFBXeWUyUKCQAPO9glOSGM2TlpnP0pUZj+11Pfcvb93WDmlqbpQ6XXkzA+6NG5uPP7x39C+xSFcHQ+Ed05mNlv0jLo+IqYUdIQqHYDYza9OPtzNmNKjROu7C2ahEjkECrAI4sGnEXxLhucFwEIIDGeb6pRgb0rp9ASThydDHD4xbN3c6YttOrReuFHLvc55+42lH9h5mzhMou3Wi4XHScT8JLst63cVaXnidVmsvdERrNzrIcUwTMLQ8CA9XWH7nFKMBFVYMx17eItShAM1lAWgy9ZOGefKMNN+xGPuQERFxGPMuwnSEE9nneom/ir/ftntaHbP4wpxkNMQHwjS89ejbI3+B+fsN7Ncsh6PAFDSNZ+UU4aD02lso9ee2l055qQY/yGwaKaVjFcbcaYSncI9IqyREXxLW6USr8Lv1fJfjiQ47YvC0KzoW5u4pxwu/Vmo3umupkCs2afXWU1q+/4oUIwMgSZj6tGXUopCgUoNBwFN9ziYNc58WGy6RetG5DvxZp2gxE93jmGOjWux/HWIRvs+lgrHpXJuqxceIjX8exqS5rD73ZDgETjNEKVF0RuK+TK5ZR40HxpWU5ya/2ewk7r99Frsy50LbnGU0QJx++qB+bGx07OvBQPC/4OBTk0IS7kwhso1zAM7XBDBZW5tkALdzzYHMKzX7S2bThMzmmLE6AWYD10jLfkKyh7lIwebrJOEmm3OK12xYM2vYTQjZe1Tr8zbnr8dIyCDqTW2O3ny5FovP0WL1hUrseVbJw3sdHRsBYa8iw8kwmADOxKxcp8XGy/C5VBozWagB1DanFpMeH5nL0feVOHUIKY+nxvbLD4BZcAdj1pifiozf4Mu6zxon/nU63H/9ajJcckhghvMyrsT+DPnJtMKLDJip3NR9AMQ3d25ZNDrtoVl+Yc4yGuJl5yoZv/f1ke+1CG811NLfx7mSKfsxxDmDb57qS7nBQMhtjDhBaDo5pkLtsUzhvAlmH/qfxLBnA2ZjxRXBRSkt1n4Ale6BUhJE17jjFEVYWpuTYsFK7N0sEWrlBuF89JbW776k5JF9ae2IxJuKoxVUSxhMhnmwDxGc6l+2Rom1Fwu9/mIpl66GugoHBpZ0HwtVrMW7LyLHb0wKRjqeQ4XCUHr/DJPbrmimYG4MYlVDEbB7pfpPkYEkU56Cp6vJlpmLybBXZl/GU78Co/nL27Z3Hq1+T/1vcQ5SoKlAu/ui1p7H9sb/BnGCzoM3xy2pLOcAPh2Ne4GTfcJbviCERH8O+JH1hJ/amM+/GD+cuTRID6PQwfOp4Zlu0OsMTAYniBBGSutAfbLQTG9L+0uHANV7BGyByOIStsAZiDng4cjl64VeBO1m1VYtPn5XiQ9fV+LIPkcM9cD9Cc6KYDrGwJGPMhTraoa5UIPmif6OxVovX6/lqq1Cn3u+lIvPNR5ypsfFGQyGB1o6YTabQ9oM4GjmqBPyGBkASCw4OMKLnmWIwCwaYIbAOqBkUJeFUwfBMqHJeHo0WtjDDJv/B12V/BqOZ7xVl4OpQKfmPKMhjG7e3PDhg3uGvwbXo2VwDtg23Tkg7Yl2ctD1lnWFoATIM55MFQByJavgBMYi4wqTYyBSiJFUcLV5wZCCaYI2w4KLuJJ9rEZddAiQfccd7aZ0el/DslUjRIBkhSLp/Zslq4RYu11AO9Li8HtaHtuvRe8RKYaxj0PzHFgOmY6haeOMhxAngTQFf+BykeZzrJtZIsNw1W1boMXCFfR8c8SKdUIsPBd7RYulCDelD0XYMJjMkGg26z+mZM+RuWU2Gx+fDgY9ms9QCs1RHYI+Dy1GNAShx5BH1WnhNMFUUKcHU3potMChTGrRWgxi//ivo4G2xzGk8UlVpwObQbfOCkZD+Ny+pfVXj+wZ/VowFPhbaDYrcdZmCtigxchBJB3CFFZLukKK8ZHqVbPhRI6Q2eBvzNU66eWJ/EoiCG0GnHPuTWAS35E+hqNRsq2rdFxlGE4QvkqLzxOCGs7qbVoPnJJy4KQSvUc93XPU0UOnXTnSH9SJqJKpFCyW8BpyUwFqitA0NDQWMK2GoG5u82RLtxadC6XoXi509zIp2hc6+PCwJWgI9VAihDy/tIIXheg7mRKJaMC0V9rr9f008JA2ncE50uBkanc5caHJqwjABwbDzJgEhwHJ1Cfr49d4x+Bh5un+Ic/JZ4o3+WUcmUTYrP+RVO6P7t4qp57DqI/hVKwXZw2jgb1UwTng4Vg0thRz9S8cJ9Cm6PkzqSAUt/P/t/clAHIV5bpVdU5vs2eZycIadpJLWBKQNQsgO6Ji8N3lIT7vxXvx4UJwQe/V0fuuioKoKC7gVVS8ShQXlE2QEDZZwhIIBMy+J5PJLD0zPd19TtX7/tPTk57pMzM93ef0nJ6uA5PuPkvVX3/Vqa/+v/5lf9xGfCRoVqaEafYe/wSWU56fX7NgAwWS8+alcgwdDtRLqjOEGDdIpz/JsIZa3RvnHOouDhNnR6o40PDCv2UBhyavuin0x+TBx3Ce6lestxNhWnu46u2mvRHFEFFPUcaJVAIb2BEy6JMqHM3smcTqoNOp45xABZ8D+yiZeYfApQiAGdIIAJ3bRDzkngr9QYYAjjFAPv3kH0P7MRQgE4tAZ6jn3xWsMwj7b8NfJi2sUSzMEOsTQ8n+ua2S33vPydM7g9UE76mpGqAh1pFxwB/XqHu46D0IzsPLMQ2H1LAJWiIN9D7k7TYMy57WQEMbI91lpeV9VxRXInwIWC3ePwHrbXLspPVy7nKP/EagZso9VVxFgXsKTUonxb4Na5NG/azwlKYGp43D+3NcZB8AA64ohlqkhh4feEdgSCIpACJGjY34j9gjIDElY2pMVTsiy0B1xUkuAw/nfVDpKlrnOHzlXZwMJ2hL34mCkVkM0fuGxaBjVUZZaMMUKz/A+zHZLiCa4zBjdizMLGeXL3tpyCdZctuW/SCch752+UnTdwy5OEl/4GWpruOy+bxD2eK7kGZ+4Yxfl0WShXSqSKsqOrrhJQmPh6AvpLC97RgJZA0FBmUXvLBYBwo4w8GsZ/DspOlwDlXKfT+727rxU59id//0Z7Krswu46tGQzkohg5/IzEiFg5+OtIJoWoq+Y050eDt4H0kv3vGaquzs6lJPvPK6kcLc5aDppOlBNAS8gtQNPTD0uzRecQa+MbIOedBqQgbH94oAGeqYnoStdiG8TDI1Qth/NDcE/2ls/j9r29YXLz4x+tZk6srR2lJVEk2WEZecWLP9j6/Fb8bORTNWF5dYaXLmPDA50MucTiMmGsJ4Qxiwm+rJoXOIoJAtKjCfjmMnfNZIdoGCR6Usym5NW9lQ/00mv4tcjqNdr7+2ht+z9nH+9Kon2Btr16rly29gLS0tiLs5/r2Q3KLdv2OMHBgm7rd4dNaBFPTfK6+8Kn/y05+xHS+uEqcviGVGYZlo8KgpYxZDloAYpyoMPTAMXSjEP0VeDvw7l20YUQrLVbW73eLwmXEIz17L/YQhEuHqWmWnWi87sXFSef7nttPtu0fLP7eig30OxgFvAmC+iJnjaRoAww8aLcmUMiAGi65e6EpgJDDiCBr+8AT9Jvpow7QWIk4Ui238xLw4kFTKw1X2BDUvv1o0cEokFE6l02zj5s38rh/9iH/9lltlTw/y4nol2eTX6vsZoh36e/Wb+36rPvPZm9iPf/xjvnXTBk5q0knZjcJI1oRMJ38Mxi3txdC8RMM38AfhYSIJh8z9MGMeDWSQgBAS2xbLSnxpW3L943huki0XRu+qqgUaYstlJza8ACuiVmjHXh8ZbCR8bNIENqRCq4jBgei1DB7TjjoN0TmUdPKXjD4QKvIqpqLpMSeWDLZMDBbv6eF3/+Qn4lvfvl319cFKrALBhmiOx3vUd7/3ffmlL32JrVz5hIj39vH6aDhNWxmT74DqLNbQEUXwVwpxi/ZVTCNpYQdvfxuLUYVAvSOuQ2lPRnG5106n/l9vPH7/hxcuHGryOvk6Na9FVQ00BByRPbUrkY+7VSm5yQ1siGOZ6AFImtYLS4EKARtHlQbppiYMZRpym0zKpTBgf0ZNCNImd/RkBDad3d38jjvuELd981uQbHoBNqO5ZuS9DxN6gmjds2evuvnmm9Wtt94q3ly3Dk3DbIa/5phpVc4UPA42wtTTnn4I8geN6kMzjgLLc2sWZHa1p1ncyZLp7g5tYB0EO4ZOO21/1Yokf3XVmYckykNhsGqpaqChrli6lFt7a/f9yVb2lyDa7nLLzkmDqh8bfJBsODJ0kptvRUg2RHeEtpemzYIOrSJIHt/bgTYd1hDl1MZs8whs2vbt43d89w6DJuy2tjYYCAQfbIjGDRs2yC+0trIf3nkn37V7N7bHB+hG181piE5OqzPYpafgx1RJwie9V9jDVbsQWgaLT3KBwJn8Y6D/euBVfYth2HdfcVxzPP+u6jhT9UBD3fzBOXP6e1nfr6VKfxkzcvtIgWShi+UO2PTC4cbZZw/+IKE3wK6fPmCGG3x6x0WhBNDUh/lU+EtS7Lfs4YBN+z7+gzvvFP/x+c+zdevWOZKNIx1kbwrIJ9FEILN69Yvyc//+7+yXv/wlh5XZAZABnbhHHd0YOdDAgNDuBRnwI5CQaBydmRfl+V2GAzJwkt6932LdPXJEkKGQ/9AE9ilp345omXdeNK9xv9+0Bbl8DTQDvXPVvJaeWE3dz6FGuxWnuknkdTuyYAOdLKlrgv/yg0q7fhqiA1CIj+CT68bzkc4RtkyLhfhRTVFFoXhyDwKbzs5O/j+YuD9z003q4YcfRvBueNAFSLrJ0MLVgw8+KG/67Of4/X/8o0j09zv7Tdm2UKuQyoIdNyU26SwBHDHAjKSs+ulRxwEs2+iAfhLIYE9GEsh09ljkX+cqyQyATD8sH2+34Epx4Yn1ewPapLKR5T6blq36YFW0dA7vfOBv8bvsfiuC1AKfwmQVg/VPHpGJlOQ7oUabqULphloHkYIbQQAzlV03lYJJMk5JtlxfjbwmVsyJMCzs3jGjTq3a3p1HM4FNPybuhx95ROzYsYO99vpr8v1XvZ8fcsghzgILq828Z8pxIrPvAv+Yzk4JCUbBWk68vnat0zPk25V7kKQ2qzYsj2xEbDY/LLZzKyv3d7QN0RSSsqYRUUzLXfn46hsAGZtApqvHwvvu/jz1H/Zx07Yt72Qy8Z3LT5pWFQ6Z7tw4cFYDzQFeON8uObq+Ddk5v29bKmqY/KNYncSkG9gkpdjVnqIIinZjLYnJQQ1XA6ueaD1X0VrGexDpgt6YSXUotvSgBv6tV3bRu5/XOnrxaeX56po1bNeuXWL16pfVlVe+R55/7nm8aQpCzuAoF+BkAUZicD33/HPqnl/8gj3wpz+J7Tt3wtgM5uh51GORAPXgvKlRNa0mFNjFTNHDCU6usrYJQczqADQjzNxFF+7dg9QtcMJ0JJlubPyPRCoMs6kPATLWXZY0b3vXidO2e0dFZZekgcal/y6dV7f7/lf6oFuluGfGR6Ewz5NsaIYiPxvs2eA2ZU1pQIJ3HJjUXEqcwFOgR0VrlIrVI0R1R2XYZ4+HXWjfgpk14rD6iNwYT2JtkA+kNIGTdLO3rY3/4f4/8LWvv6Yee+wv7IJ3vlOeffZZrLm5ZUCMQN9h8vOqC6lebMAMtibR16teX/uGevTRR9WDDz0k1rz2GoMZ9pD9mMGbB75Q9y06qJGZkNzUeDOsDi8saL/Ba7t+KsxsRAOfIOlyLJZQHyYQ24nC/ZN12YjqMoAMZci0pH2n6rdvfdep9ZvGKruarmugGaG3Lz+pZsf9bwFs0gQ25kcxT+WBDT3qmD53WBSuH7HREDMDe7teTVQjkDa+0yBGImy9jDViykKysMqyIh2zrZir2DTYcL/zsEb7e6/uoYQlIz5DYEOq0HVvv823bNvGnn3mGXbSySepM844U5566kJ2zNFHs/q6+oyna7YUqmDgGL6IcIAke5FAZZheEukoVNu+drV161b5xptvitcALC+9/BJ/a91bfH9HBx7PAGC2iOGfNI7qw4Y672DEcQvUoBpOaZG/0Sa7cQZMbLAOKLIIPx+jLiWPf0pc1pNwkia6Di5nT4bxfshnAJn0Ny87tWmjn3RVYtkaaEbptcuPBdhAsuHIHYblysfc1Gg0GJNpaeztwNYf5vTmRqypEeMySPMCJdix65uc1fooza3YS+THeOWRU/jdb+xTaWTepA4Y6chO7slkkr0BP5X1GzeyVaueZIcdfjibe/zx6vjjj7ePPOIIPmfO4Wz69OmssaEB0gTcXmnvJEc6ofKpFvhfOV78KM/u6OwysO9iA1jE9u3b5ZYtW8TGTZvYtm3bxB6YK+9rb2e9fb3OQoRAb6wD0X/ZwpZaNW9aDF63AZOUxyK+kOvEu4ZmcjQJ1DEwfOCEabO9HTbrTVAwVfeD+hFjCklv1bd5mn8fILPZ/c7qPquBZoz+dySbV/q+g7QusPXnH8PAypNs6D2xEBZtHzyEsR1gT28UiiJpDF8Bj1GVf5fx5sj6af6VP8El0yR86sx6fvrMOvn49i6EaBx75soCjmVZfDsMBXbs3MlefvllB1iap0/nzS3NbEbLDOmATVMja2xqsqKRqKyJxZy9lL5EAr4U8Kvq6gp1d3ex7ngc0ss+1rG/g+9vb+cdHR0C53j2PmIRgRXp8Qs9IIKqK46comrhKIR0qoU+Vjn3AaXtuibEzQwOyVmQ6eyhUP+WICvTkahzLFM5jyN773cTPcnvXnm63pMZiVcaaEbiTM75DNjs+w4XUc5N83osYmrcrNEo6vO+jrQhLcNqnhpiSAQYDLDBq2LVTcNMpQqf5XLaH/ivpGLCZHzN3Gb25M5uwvfRhJohzckCDp2EhRqnPRM4SzqgQJJMOBRyIu5GIhEItAaL4DcAgFvobAIpgA1LpVI8baHT8Rt/2T5H0dCj4q8Q6WUIUfhB5tqwNlNXHNE06cyaqa3O7C2EBR+vNOFMEGCUQAZsVx1IWra3K81TCJdNtLod5GuH3u2wpX2bbfX/95WnV0e4fzdeFHJOA00hXMI9lDfiN6+2f6dG8X5oxj6BgdaAFKx5T0OE5u1x24DaQ82YGrLDIQKbvNvKewKvC0ycSfdT3nrLWRukmovnNPLTZtTJZ3b1FCTVDCdvOCgMAAdD4DRMQEgTAKHE7Rk6h2dh1YqRQSo2Dw6yNnvXnCZ5RFOMvFE9KDF4RSBznLJrp1hBMG2mviNHq31dUrV3pUVqlHwyFD0ECb73Slt+Na16fnHFSTOwOaiP0TjgzVsxWg2T6NqVMFcMSfU9rGK+ipej3cTq1u3AZo2A6C127ktRZFcLKreJnSlQO5mRTtp0AegEEmPgvCk+Mn8mwu54YwlMk08WPEgqcfvLqMPcTZPdxkYh50iaQVvkNXNbELF5ci4OIDjALgWNi9Uj13ghXPHvHpJkKEs3WZC2dY4OMiGK9M7ZJjstP2/L1E+uOEGDTCE9o4GmEC7l3HP+CXV7eFrdBbD5T5ze6Qy8nOvZr3h5OKIHiF37LEZRBDCYkXIje7XMn9BL2LVNlN+e1P5lrrx81dHK/6I5TeKiQxskNFvlq9jjmkiaWXbUFHlSS+3kNAIAv5xXQZhShiKUZ3zCDloEJpOKHDGRgllyUn+P9JpS0jKMqtchyXzOCtf84rL5TR0TRniFVayBpogOu+SU+jalrJ8CbP4DK+kNo4FNb79t7NqX4p1xuOXDKo1WyOU+SJ6SNU0DYWjKXXsZ60M7myIGv2HBLD6rLoT988oDG7I0I5+gfz1hhkBTsDwpI//KXBWyCqYZvTwT0EZHWoUg3N1jqx30fvbanNTebm8n3etEdlfqaezFfSbe3f67K47jVRsgs5hhooGmGK7hGVrNxFjvvYiN9lmICa/SasftIMkG6jMnikBbl0XhtkZOXOFWgBfnQISK1HAVCk9Of4wcHg1YoEGFNgOzRvD8Z3NIzftKwiZeSPVvoP346ZNXmsk0HGMyHE2qUBRf8ljh6wlCE7yHqr3bkhSBuQfmyxg3bhgD1SnUorAUxILyTzD6uGlH8s1HqjXUfymdooGmBO4tRSDOvfv2/QEhRT6NkbiS9mxGklhSaSbaOi2BJEmk1qE8yyXUPP5HCWRUBGFoyv1Wj5/Ukp8Ig7cfnNfCLzu8Cc70ZZ7FSqCeaH3noY3y6uOni0lvpUPdYkZsaYbLanBGrx2F+IcTptqbMV8ecQ4kR0zswaWZsu+GjeG/Xzq//qlqTFpWwpAefHREJg/eob+MyoEPLp3TH2174TEkqb8JK9L7yH3GLUIwDXDytWnvTBs72y2FsBY26YfLgzfQ2ZGlTLQWq8eyvtej8s63i+iImbUh/tnTZrO/mxZDzqnggw32otmcxoh906kH8Zm1k1/yhODGVCgCg/vyRBWn94ySFvb1S3vnvjTb323DJH3k129g0QgbNHWbtOSXEZbqFZKQfRuzk7xgDTQedPDSpUut84+PPQdz51ZM43ci5lH/SGkGMJ/wbpg/02BHemgbdk3l2bcxw0pGahHIy4MGV0ARpEI7GZvpracfDH+UECIGBLfhZGVWj5iZnz11Nj9tVt2kNQAYMmyoOxAeECKD76I9gQy6X+3vttSONictu7MfM4SenB8hAkDFtgAMv2Bbfd++9KSGt3Mu669FcEADTRFMc3uEVjuXzq97Tdr8ZhgJ3IxB2h4ayfwZ4QOwsnIydu7tTMOIhfZtfHzf8NYgjgqzw9FJ6fzn1h90jgY3WaF99rSDVGMYfrQBBBtKA4A9f/V/T5wh33v0NIGptzoOtFuaEZhBctNPS0jSGlAOmb1Qle3pSNN+6YgcpneQNv2xH/O8tNOfjsSSd5P/XHV0iL+t1EDjMX8vmx/dCPOy7yFywOcwr70dCkdc923wnvFEvzRo32b3/rREGHJHleYxOYPFYauT9mjwkgV3ZT9IrFdf0NQoZpp/OG46h0pKIkClRJAgr0ovuRwCGRzqQ/Oa5b+dOFM0hhC4ITjkldy+sQqAX5dAc32Zgwg08D/FK5OkPWjvsnky7b7hT3Q6gTGFE6LwPttKfSq2b9/vl86Zgrwa+vCCA750sheEVXIZV8DXxgr3/wIBnT8JYWWloKRjwwIyUvtIiKF9m44uC/s2Tv5xysQ1suK4RKaQMUDVHZjMMYHzD85rNqCakg0AmyCo0TIgw9U1xzerGxfMFgfVVMO+TO7oI4ghnPE+XIXzXtlKtnUCZNpSAn5sI5ouE0UDjtdxmKLdbqfTrc/fV/fkUuy95lKrv5fGgUlv3FIae4p/+orjmuMvvqge3BXr3m3y8HWwXvlfeLMiSIqUVygkH94D507EzVJTG01raj1CcgrmeeiaqgQa4jbAZhpiocESjULTqK+/uEvt7k1PmNc97clEoNL5P/Na5MdOniUOr49Ulh123ggu4gR4gPQVFmAmRPtpXhwEMGRjALW0bO+0eDfMlm04YI5UdlZVJqW9AYnZb4da4beXL5y6daT79fniOaCBpnjejfnkwoU8jZue/9Mr3Z0iZGyCkcCH4Z82K51O5T0LvTDvRxC/vR1p1o9sftMaDCuGOI4k9+Ba3v3FnIDfgi8ryGJoKfszA2DzgbktbFrUVLe+uFu91t4nkE/MkSzLRQ9ZwDXXmJL8fK6e2ywOrUOKZo/6t1xt8KweYZAJpCdalawUA8doePhboh+vGKRGB3vc6B3IhknxzR7D5t13UnZq5XsWTtWqMjdmeXBOA40HTByrCLJaeXh9/HsyoTZALX09RPXTKCCnG4A4qrRuC6Aj5ZQ6Q06pN5Hm15s00SpaB9Wcqt4+x4TeBJHmfUdNY1BVse++ukf+cUsnhyqNh3w2fiIpBqtmdUpLjcTGPwKAThXNUWRpq1aQGeulKfA6SSV4jxRyxsj2LotT7hiAuSPFjCTKkKoMDpu9qOJnnNt39RibX7tq/rz81V+BNOjbxuZA9U46Y/PG0zsuPKp+7zPb1G+69/dvYSH2b9izuVIYPOwWARpzDxkKQJWmIN0oSeq0WJiXLN3AZ6EKnGjG6DYwNwozr8UHN7CW2jCb3xyTP13Xzjd3JUldSRZgYxQwvsuEI2TtNjVqIOT/FPWBec18QXMtjyGHhAaZ8fEy9+5sN+Edkft7LOQDsgU2+x0pJve+3O+DqjIbqjKm7kAX/PbC42o35d6jv/vDAQ00/vDVtdQzD+EJLL6eeuS1eBssbt7Atv+1sNk/xLJSedINgQ0cylgHXqAEgQ1UaY01BhnHFL934/Oq3bXRQTyJyZ/0NfOmxngLrL0WzqhT977dLh/e2sXa+ixIkIyXCjgDEgyrhX/M+Qc3yPcfO42fhZTMc+opbgEOQiB9FMWBASlGdvVK1Rm3yFXACYY5WmEDOYGQBlc+xKW8Q6n00xfO00ExR+OZl9c00HjJzQLKwktCM8y6B16K/4CH+ZuwSoN0w8+j5bRbMjWI+I50szstYTBgqykNplUXhSxEBY1zsoInNqQifQxyAPxrjob4hYc28WOmxNRFCFnzwOZO+cT2brazN022rgQ6AKWx93GoK8gbFuoxsqNSLbEQO31Grbzw8CZ++qx6cWxTlEVpQ2icfTZIq/7i7KWBfQrSvtwfp6jotoCPzJgiKDlgSmXvk7a6Wwnr59uT69bqUDLlHVAaaMrL78HaKAL02rXq/k1W32ZD8H/Ehf+NF2K6u3SjIN0w3oVIs9i7UQ01pt1UJ3g0QtNg4YAjDVMDzWAPDHzBzEUpX45qjPJD68JswYw6/v6j++XTO+PqhT098q3OBGvvh1rGcrSO7pMa4CNmCjYlYsrjpsTYyc01SMBWz4+bHhOHo8xa7AuROZQGmeHML+w31lQEMgq+ZrKjx2bdiLSchOMl7CqyGjTXgrIb/liQPYfIS99LyMRjV56g0y27MsvnkxpofGbwaMXPm8dpA3L1717r2xtm8hUE7/sXLKHPptlM2uRSc+Cgc5gTeX+SQMdivf1cNdaZdmONEOEwbGVxbWwJx32ePFBLFX8DA8FGfnRjlB1ZHxYLZtaynT1pvjOekhtgJ7s9nlR7+yyjI2mnei0b9woWg50GLNhCSFJmHQpv0MPqo2w2np1ZY7LpkdCA+bQGmGJHFaEICe5gt+zsIT8zyWjvknLGUJmjjWbKPmBLGcc9/wNI+ok1NfbqlbNjfcXSop8rjQMaaErjnydPv/uEmm33v7jz17ZZu84MGZBujH9ARIHpFsyg3cADvgGir1+pJDZxeno5q68z7MZag4cw8RUGOJ6QPTkLAQMpJ/NMqL7o76RpUdFj1bFexAnqTUnWL5WZwlKa/HFM3IecMazG5EYddpZroNCECjQz/6EcLcEUN0RIgiEJEGpISZ79nT3OPgwAhlg6uqqMVNC0kYn7XsJy7YfMEI9cfFzNpuIo0U95xQENNF5xssRyLl84m1Zbz9+/dv9uQ8VWI8ryBzFrLaYkwW5OngQoliV5N/w/+zABwuFTNdQKuz4mMoCD54aDFE+nSEzS6rNC+oqAAgeBDqIJsAYGU+SYc8qNf1BhErDg+sBzzp36n3FxwEFo/AMjPbu3z0bQWYxrkmCwPzmWmowqIikGzpdxjPtfWen0T+1I8hVynB4XEfpmXziggcYXthZf6OXzpm69/0X1a6O2b61k/H1YNf8DXqBDLQtpMUaYxCDYiHivrfqSUnUh/1o99nDqazKAg3kSry52UEESt4BIGmjG3zkO5jj/jP9Z/cSYHMiRYJyNfuzDwC/GFrQvmc166YDQCCU5ccrIAkOxFzHWf2RZ4hHkjtmEJYLutBF4Vu7TGmjKzfEC6rt8ISfpZvVDb/TulII9C9Hkakg3l5jCiLkBDr2E5AVtwwInjVgEiaSF1SBXtTFIONGM0QDgxhuvzwLo17doDhTCAUCDs5vvSDAJGwEwFSwrLZGCWb+NVRaN69EAhgDKNCHFwKIMZd1ry+QvGsz6NWfP02mWC+F/Oe/RQFNObo+zrovm1u76AeKlHRLrWc+ZsQpOAP+Il+s0sqZxU6dlX8q0RRumHMnVIOFA41MTEaq20bBrE71kpTZOKvTtmgP+cMCGFrcnwdLdnWnWl3RMlUUhEgxRYyCRHwxmECZN/gWSzE+QsvbJS+fVbyWNsT/U6lJL4YAGmlK4V4ZnP5yJl/bGb1/u2BkRkefhQfMeYMWyUDg8xyZzHDnUOi1LEtRs2NuBtgzKbfgaqC7LFo1dvWqqxpksi/TnRHIAIsiuhuOiSERmWJDA4eOC7bCxl0GQ7CHFmAQymzD4f5GW7D6W7lo3sMc5kS3SdY/CAQ00ozAnSJfec7KTG+Ovv3+pd2soolYyJZbhxXxXOByZhqjP0E+7R5chXCGnT2zPICxBmMyp3Tazg9RUTcsk5wDZ4qfD9XLX7IWRFCQZDt2Zoycbpd2OmsyJUSax2S//oGz1C5ijrz7/hNo9ozymLwWEAxpoAtIRhZJxxSm1Ox9/XO3tbun+W8g2HuNcvg9LwfONUKSOokKPZDBAgGOHYlqtUCij9X3+cUBZrGfqHLtnymEwEneXyHMrJzUZ1MbAF/kUpPmfwUbgiZr2mo1Ll/L8nBu5D+rvgeGABprAdEXhhAy8YOvvfWbbjobGlleg10b8JvtKLoxzTENEYdrpCji2CGGPRh+aAxPMATjIdMw4wbbNaEhYyRGJIWsy2o/E4ult2E3+CmrgP9SImnVL5/GeER/SFwLJAQ00geyWwoi66sxDErhz7e+fatvKas3nRDiyCG/le2BgdpYZDoWGA45tRnR/F8ZafZefHMCGffeUOTQWXXcMM2oyePbbVhv0vvdhdbQiqdTrlLnWT7J02f5xQE88/vG2bCVfcbbjlPbKnzeoTXayD+oFvhjmOO+Gn/o7EGkgQoBDh+I6fHPZOkVX5MoBMmlWIiQTtc2SD9tXzAIMxmsfAio9BMHnV2mZfOHy+Y1bcM19E9K1Fn0yaBzQQBO0HimBnnceybvw+EuPv6w2JiN9T2C5eAbCol8B4DkrHDZrVBiu7ZTWRh+aAxPIAcp7qaAWyx4EMLQPY6eRskzJVbAV+BWCyz7Jo3Ub3nV0zci6tWwB+jPwHNBAE/guGj+BS0/mlJL2pQf+ptaLZO9Tti1PlZJfghd6KTOMpvGXqJ/QHPCGA7AvY0KmRTSxXxDgOHlisAmDyGYvQgJfYUv7USvct16HjvGG30EpRQNNUHrCBzouOZp3o9hXH35VrYfy7OmWDas+xkzjw0j56ENtukjNgQI5gFVP05432e6jzmcqbXfCxfJ7cO//HRfp9RfPa9xfYCn6tgrigAaaCuqsYkm98ERO+dHfTH9yyXYntWSxBennNAe84AAsyVp2vGhs6dmzuz/a+F+8n/3mooU1u7woWpcRTA5oc9dg9osvVAlpZ+IP+1K6LlRzoDAOII05q+ndJY599o7nkqnYzy9aWKtBpjDWVexdWqKp2K4rgnCEsy3iKf2I5oDHHHD2adisTU/Meve+pf0eF66LCyAHtEQTwE7xjSSlan0rWxesOTAeDiDsDI65LMGPHc9j+t7K5IAGmsrst6Ko5tJsLOpB/ZDmgMccgJkZ46aoRXTMJR4XrYsLIAc00ASwU/wgSV3z7iZmheZS+kJ9aA4EhAOUBfYitWSJVuEHpEP8IkMDjV+cDVi5dsQ6n7PQnGHO2AGjUpNTVRygRY/iC9lJ/QdXVbursLEaaKqg09U1S6JCqA8xKSIMgT+qoMm6iRXAAXLT5NKYKhP1F1UAuZrEEjiggaYE5lXMo+Ha8+B1fTbinyE5DcU701hTMX03WQmlcJqWSLNESHCbf0Bdf7G2iJysfY12aaCZxJ1LTaMXWAn2cXytc/BFCqCMa9DcSc4J3bxAcUAyyfpDCqlpEH5PnMT6rCsCRZ8mxlMOaKDxlJ0BLCxtXI0X+UxSUziSjDwQzDCA1GqSqoEDtM5JmxazeNYIIMoE/4j61wtaqqH51dhGDTSTuNfVv1x+KgIXfhw5amrwl2kpxBuK1D6Jm62bFnQOkDSTRF7YAY0KMmfimzhJ2vLaoJOu6SuOAxpoiuNb4J9S11wyk4VUK1DlCGdvJkuxxOtNYXP1oTkwARxwRp4tJLNhnpKtH18wRiOCGx9Of/CCc7On9efk4YAGmsnTl4MtoX0ZGeWtUEcsJVQZvOB8wauuDrzjQ6/pX5oD/nLAEawtYaOWoXNPRuI+yDDZl9S/nHeMv1To0svNgaGdXe7adX2ec8Cx3rHEF4VpvF/ZKpavJAPukFSTf8FzWnSBmgOuHEDyGdijDFsAYUQqiNqcn6aU+Iq69sJZrs/qkxXJAQ00Fdlt7kT3/PO7ZjDb+E9miKuVLZsG92WG3E56CjJxznvPh9ylf2gO+MIBZ40jwq7rHBqaioW4MOBXw7+mPnTuYb7QoAstOwc00JSd5f5UqK695IRYSH4LL+j/hiQz1R1kBupWhs585k836FIL4YAapjbLfQZIA8mmhnH1biZC31b/fMGC3Mv6e2VyQC9rK7PfBqmGqiwCM9Er4WN9HZwyT3Ze0oy+e/CevC+GpVg0ofs+jzH6RFk40BfqZ2kjOmpd2ErE//0ImbQGA/W7LCZ+xW9/MDnqM/piYDmgJ5vAds3YhKWuu+jUkDSuQXrmC5ktD4fmwRhVkskWKRAiINoH4We4oUD2Bv2pOeAjBxJmgiXN2JjaW8xOgBsJ0+fNMEt7mNnsJ+yuh18gcxYfqdNF+8ABDTQ+MNXPImnDNP1/33VySKr34W27CJunR+BcY0EAkyWMYzM22oPsUxposizRn2XiAM04CRNRAUwxJtBkSSLpRvBumEBv4lw9wtLsNyzU/hL/4ep09hb9GWwOaKAJdv8MUofAmE0s0nCqNOyLheSLseF/GLPtaY5LzFiqssFScr7EemFgqrdqcjiiv5aDAzTjpAyb9YYIaAqff3CnEw5W8P2QZ7ZJzp8TSj3GuP1X/sNHt5aDdF1H8RwovKOLr0M/WSQH1HXL6phMzAUgnAVB5mwuxHEoahbUZFOKBpgsLdEEFG0INKUPzYEycgDCCVOWkWI9IYqFNP54SIOAI+IwKdjDLLUdAclfxprpeWjZXmUHW5t460qdHrqMfVpIVRpoCuFSme5xEkCdWD+bpax5MEE+Beu9E7GOOwaOl9OhHpuOlVzEIaUYCSa3DRSCJtYvmZnGnk7uBf1dc6AMHJDYd4lHaO4pbf4hlRrDzg3UaihrP5NyH8bzBsnUOmEYa5Hk7y3WJ7bxex6k6/qYQA6U1tETSPhkqFpduyDExCEHMZ4+CsByAt6/eXh1jkIQzBlo3xSoxij1chQWZfgAIngFCrQ1E0nAYyGFL3oITIaxVFFtABKwnggEEW54MqSdIYw3B6sxSDn92NCJw2StS1l2Ny5th3foesHUBoSJfoMZagtr37aTr1ibqiieVTixepYpYweq//Ouemaqg2yhjjc4Px7v27FwZJqDFdk0TPjkYNmAvxhevgGVgofgMqSd6PYQLEXD2lp0CFv0j/JwQHGbxcNpAA0WUT4cpJ/DAeABovEUN3gv1lM9MIHpxvu1XypFezpvCibfxE2vs2h4izaddljm2z8aaHxjLQQQ2mPh/Ycxy57PhPF3iLxxHAb6Ydw0kOSJN2CvpR7V08t2wHG2VLVYoe0x01DE9ev+L5Rf+j4vOWCxHgCNLWhR5f/hjHL6x9ENSAj0Sc6NboBMHFJPByw338alV7EX+iyMFNZoVZv3XaInGo956uyzHFtzJjOM85WyT+LMOBjySSMcz8gEuQ6rrIizke/U65fEMlaj0O1G2obT5vg3Y8cqWl/XHBiTA9xyJBrJywM0bvQ4Ug+Ah4QeQyTw14Vv7cxKb4Ea+3GA0n38rkc2uT2qz42fA9nEQ+N/Uj/hzoHmZsXM3iQ2Ih3Xe0gxUyGyz0b8ppCzH4LcG45IX5alnDuJzmbPaGFARnpMn9cc8IIDmNoxqTvWyl4UV2gZGcEG/9IXAhpnnacsLlUn3tOt2OUhkHnbZnKnkXTuLrRofd8YHNDcHINBxVxWN15Qy6y6Bpa0GiyVnm4yfjQ2KOdiXJ8MqeY4DPQZMFUG8OAgwCF1maNPds6U5x/yoSFfGn1oDpSRA878boskJJoQjF6wTQKRwid1cWarBlMczXL0g+piiizQtjjqMibegKXaJqiwN6awdxOORXpZQvV1xbqTjWZ9n9638W5gaKDxjpeuJSH1mGA9F8RYn1nPLKOJGbLZ5upIQ4m5eAFgxsyOwot2MDyfEUhwoDtywIcKpZ/jPZySqLxsDw+UOVgWrScJaMq+rhxvS/T9k4kDABcYJMtVrCt2L5K9XorhdyrG6PQsEDhtHeeia3Cs08P0g8Y9lSFlGvH/9uDMJhjcvIkXaR3qXo+IGNsYN+MsYcdZfaqPtTUn+IoVlCNHHz5xIDsN+VS8LnY4B9SyZQY7rCvqAA9nMAgQTVhqHYKX4yjYBByBif9IPHMQVl8zAAUNWHkZeEkyL1AWJbKfuYVne5I+IazgJSO3/148D0sb+BowVY+XcAokK1xHLl3E8+A1iHemw9DkclF/95kDHJFnMPi+xLpC32AqPAM50I5A6L2FSOy8ANiAhRcWXZzHnDGfSwsuOkd2MZa9RlIKzMhwug/jey++7IYKbAMub2A2TJqF2Mos1sZiAJVwTZztCPUBVLRpc5Z/ZfrMTk9lqk5XM5wDeH04u2ZJhBmRGhaJQuUma1mI1bAUm8FM2YL7Z+IOrPjENLxQU/ASNeLVIrUbWaxhM1/BvZ/34OVMAFA64ZzQjpd1L7Bpq834XiQEiFtc2aYl6ljIRuZC8R7cvxhABKdNJwyNHgPDO0X/9oUDNNAABLCLkZebtzz5J6qEfMkgVjTW25EmBC6bGjL5wUCOwzBOkfhMZc3+Y7i1Dts6CKepevA+YAcFm/fc7sSaaT+gaxfG9B5m8L0AsW589uKOXhYye1lHNKmlFeL0xB56kplY/rvW7oDPsmUhSD4h1sEBQogIYBvhZMQORawwtnwsgVwdJiQTvG8I+S9hxSNCkFrsNEvLFIuxJLPrEqwFcLWyTTIyUCBQqk3XsJr0LEg8rVjpXaUicbzPOt6Zayfok55zAIsh4ITq4HbqFP7Nv24eXsHgoos1RVlNKsqsVBgOXyGmUgakEhgu4aeZsphEUE6YTTKVTvcoM13HkXagNp1i096R5q2tekAPZ2wAfmugCUAnlJsEdd2lx2NZ+QCvSRyugFH60BwoBwfgOMmQlG8NT9Wepjfay8Hx4NQBqVMfVceBllPfUpKvQEiOqmu6bvAEcgD6XAg1b2mQmcA+mKCqNdBMEOMnslpSL8Cb5w+IfNuHF9/XA9Z0wLPCU4/4SowufGI5QApcxd6aWCJ07RPBAQ00E8H1ANRp9jaswVu/K8+6x0PaCGSglL9P2uoLmGO6SEevjyrmAAENk29XMQeqtukaaKq16++5Jw7rtR1k9ObbQUVL9VvIM3egGsSW8q0mXXDAOeCsMWDqiJh/mwNOqibPBw5ooPGBqZVQJOZ8OB/IjX5KNFCTwDgIJqf1zeSN7axnK4E3mkY/OABDAAlfF9smB0p9VBkHNNBUWYcPaa6w9w357ccP2+xhXdu11YEfvK20MhWD0yScJ/VRdRzQQFN1XZ7TYKV8S3lLqhL4TFhpKftY43StNMthe1V+pRHAWQfbn+ipyvZXeaM10FTzADAoPI2fGi2VUkayn/XoULjVPMyctmcMQfaxH67WjltVOBg00FRhp2ebLBTS3vp2kEjDU2HT6GN9lDJaH1XNgcwI2Eejoqr5UKWN10BTpR2fabaPEk1mYumHsUGC1aU10FT1OEPjIdHgv/3VzoZqbb8GmmrteWq3rxKNYzjdzyJGgiUsDTTBHmeIZ8k6M9ot/wiVTHX5V7ouOcgc0EAT5N7xmzZKIeBjCEL46SAc+5I+VlOvgcbvviyy/AEn2nYsCzaQ1OHbgb1ARILt9K18XXCgOaCBJtDd4zNxXCV9q4EmLYX0BTqarm8s9qRgdBP+36W4estvnyqkjSF/Kn1UIQc00FRhpw82WckuSqPr4zpW54oeZHZAvyBMEMbAHqhRN/o5EKj1yGeRCCgXNFk+c0ADjc8MDnTxnJNu3h8rIGelzDM6+aTeownyOMBSA6GIEI7In5Ew0HSFhEhadRbkceAnbRpo/ORu0MsWMolVLP35dWhViV+c9apcqDgFVzsQj2invz5VSMvHJS1s9FGFHNBAU4WdPthkFbGwivXHgY7AizPtBT7I7AB/UWy3ocROPw1DSFoyuKHHQ4CHgZ+kaaDxk7tBL9uCwyZnCX+sjQhpFHJF6yPQHEBAZdtge5kpOrBXk/bT8IwZCEekj6rkgAaaquz2gUZL5HH2S6Kh0DYURFEfgeWAozG1AS/KaGcp3oP+gsThnx6VKeGjMX1g2awJAwc00FTzMIgl4edCvi4+HeSn4/PBsSJH/HmyZtqnE6uNk9nAFCwHbNNIt7G0TRaCcT9wxrF0h7QEyVlbnY2ziybL7RpoJktPFtOObhOxYbg/QEMWTJz566AnbaZmHs5Yw7StTMo9fkySxbDVy2doknb+vCx0sCwHafpZ2uhmbSsBAtwXoHGqg20zPv3ZDxxsj/4SVA5ooAlqz5SDrpa2FCZn35w2bYWJy8/Dthg/cj5ji65ax6x0pz97TX42YMyySVxLUYQF/PmjduIwQY/09/EVzGZCIT+Rb6ozNMHwpw1jslHfMNEc0EAz0T0wkfW3rk1jK4VUGt5TgYLhn+Ev0NA+UCTG+k+5ZD1T9qQyneUCryZnG2yp/kkq/vf48SduePy6UrcrpNiO2I5KC9LtXn9wxhlf/f19KR+jhXs/hHWJ3nHA45HrHWG6JP85gNefFFyev/zOtCIVM5XPQRQBkCrRy2Ss6RVMxJNrLGdAoNNQ9h+NevEAmvqS5yDg6OQQFmbtEY5Uiy5r82XRQUOZndzTMQAALQ5JREFUQ2IyoOvUR1VyYHK9nFXZhSU2mvsjdUDYsFlI+hqCxln1xzt6w2H2OjdCk3EsK3bGwSneurIfUk27sywosbuHPO6sCHicr1iRAQCl9g657uUPpWxpK71H4yVPK6isyfhyVhD7g0CqD4E1aQITKDfkvbQ0hGOGwXhn2xag2WZlCHPItcny4402Bw6giEQuFxJAPT646siWKDhv8yU6ALWA86QVkp5Lz1na9WewOaCBJtj94zt12GL2wdIIM4viiUSf/0Cj9u1c/2fHLJc2NSbvYQiBUP7eH8rmg0DDOIwBoD/z5YCE22BJLdH4wtzgFzqpX87gsz8IFPrgR+OsYFki1iD89ZugPZpk32tXcT75df+034XMYZ6OGKefDkg0CHrWRkBDpz0/FMbZtJiODOA5YyujQA00ldFP/lGpYN5Km8KeH1Cd9aV9M512yMW0CzlmjeekB7DAFJO9UJ95HCKGAmrmONVCokEd3psgDyw8WOvKyb8gCODYCQJJGmiC0AsTSQOHx7bXByYWmMomWE3IN4nGwUYbYMbF216TH8TywmYEIWIU9jg8XhTIHKdaLqBG5b3eLzxoQIg4/vVWIgtiR2maXDmggcaVLdVzUmA73ZfWKpWAtZR/OnlSm9EGuZXcqlqrIJSSUAQAfZ7iDPkhUbnZgyMMjYKE4zGWOeVJnV0zy+Zq/NRAU429nttm5UcIGgKBHJVMbn1efSeRhrPNrPHZTjZ3mddTo1dUeldOuDMOpnomIToMo41/pQ6E7o/0+RbvDIuCTBI87ziiS6ogDmigqaDO8odU+NHQytbLgzDA7zhnlIJY8r/xVmyRD5gAe9mE4JV1OdRmOaDgAYGZbs8NdLma6kAgVI9xmxYFKse6zQPadRGVxQENNJXVX95Ty6VPQTXFgZWy91TTSpzmw7f8KDqIZfLWVmzSY7KmSdurAwkCmGEMqs4c0OZ8v9c4Q+QKA1EH9FG1HNBAU7VdP9BwKbo9N2nFZCiVzzp5zJFKyaoBmoHegoWgRwM2Uw6ynsGgIucAfHsPCKSi42pPTjX6a5VxQANNlXV4XnP50Ikm73qxJ7h/OnmaI5VUluRqc7HkVeJzigmPpQ2FPAvmoERDPBFMeh/vjKRPi+2sRJ5rmr3hgAYab/hYwaWIbkzaPtDvYxpnR+fPOkPR8G4fCA9ykbAQ9EqkoWZy5FcF2OQe3PBUonGolfDNEeb23Gr09+rigAaa6urv/NYqH/ZosIIV5Ajq1+HMXnwf644gf0oVHUp6aIruMNFiofTQVA5KIXinhwsPVKMocGsyhFht+qhWDmigqdaez7abY48Gmx3Zn5580jzFbf+MAUii4Wonu/1BfwwZPGGC94UIhVhkXoIAg8WeIYY47NpS7vd0z476SkKNWhfyECS9560u0V8OaKDxl7/BL922Kcumt46VzmQohuj+PWUERi0iD2ynxbKn5Qa9MAMWYV4DTcoYwkNDGO1QpQ45VxJbADT4v5vt3+3fwqMkAvXD5eCABppycDnIdcQkrI7gS0ErTw8OpxTHysjwcQXrWLVV3+ayBfNmr2RPp6N4D4slh0qFtqQo0banW0GIPsF/uHqI5OTBUNNFVBAHNNBUUGf5QmqS0wQwxMS11HqwHqa0Z/6tYGnBXY3mstwACHgYXZnDEKDfHCq91EQ7ATKIQODNwoPGEvZo/NuvK3Ww6ufLwgENNGVhc4Ar4RYCUypINB7SKAAzysfsmpCY4GlYbRZnLCXSPWg5qTq9OdwwK5SiMDfe5SgCrYpJDTTe9FjFlqKBpmK7ziPCQ9gMVtw7icZRwQG4mDNheUTksGKwBjdsVl0WZ2CBDBl9CgnlhnGjlJ9JFk4PNW+u3Z/AeEAYGg8PpXQeGg/ZWYlFaaCpxF7zkuaa2ZBokAnTq1Uy0aYQZThkI27WwGHuT8Njw5PJhsikyClMwXmxyo4ooitz7kRxLr3lYCTWBH0sPSzr5WHHUrwzShdQeh1UApVDxgD6qGoOaKCp6u6nxq+woNsACHg1saBIRaqX8AGrs7qptGr2RuVDZBIwhnPC2+NUVRwRg6QNTwDb4ZcC/DdGhuzR8KtW2GAx7dN4eHCvTBg8pEkXVU4OaKApJ7cDWJcTSJHS7Hp1ZFbC3Wzh7AMT4tQYdgM8nGzgz44J11uTbK/a72c5c1eS2gw5aTxFgTyKsQXmrbSohN6jyeNydZ3QQFNd/e3eWo7kZ17NXU45vJ1WxoOV7X8wjU1sSDgeVJJRxcB4IenlXsUgqUH+wq8iI4uyWHB5u/+lpDZtDvLAKgNtGmjKwOSgVwEQGBqGpESCFWdDLMIcqYnCKnp1kESTjB4AMq/KrYRyKM+PB3g9WlMxKXgaWFNgY2m0+vS1yc8BDTSTv48LaaF3QAOJQ7j5uNB+gD5K5gAMITpKLsQpAGjFYQ22tjlP2kBgAHLa9OZwggx4bMXmDWW6lDJyQANNGZkd1KoEF94m1GJ87/C2Ylrr8XslPrzOyfgbLyxSBXgj0tiKpfmKHBXnAMOUEO2exjuTWnU2GcfieNqkgWY83Jqs9yoPvfhpBStdVsRqWDj60ngpGE9V6dhFvDOPDsqG7VaUIXiHZ6kjqAYBK0F9VDUHqvRlreo+z2u8lNITPwdnnY1lMo68zWTJPQpz46hiWIyZsWheQ6rhhGC+W3ClaR/Ig4WBMx6c/qpCU/RqGIvjaKMGmnEwa7LeKkzo0D1KfoaMA/AANPOABiKIJ2Dm9AFnISbt0GTtj9HaBQuIuFd9NVI9IcsgqSntiarTWXf4GMl7pEbo84HigAaaQHXHBBEjnZw0pc8rma0DC6F/84CGcY/09Ji4YFYQTad57QRxa6KrJWmj9L4arRWGTYsCqLtK3wuC8QLC0hm+S2GjNUdfm3gOaKCZ+D6YeAq41eNNnhNMTMimGJGpfCs2heRXHhzOApnjiPRP86C4iivCYOBjRn3oH+1pCkkEf53ScYbiBVnJpDd971+Ddcl+c0ADjd8croTyBanOPMhBQhOTQs6UptSB8DPZ9ivhXeBOjFrEGZiSLbqqPoXdLaX7Jr5nfODJJACiu2SgyTjXYuGh92g865sKLUgDTYV2nLdkm11wsizdAZImFkWGBbED4WcGCJVerZCpPETOMriHez7eMtPv0khaLL2vRqPytmeT6Er0Y4kijfM4+mmah1aNo9GtrwWWAxpoAts15SSsDxKIKt0ElSYWzjt468q8KADISZKvTiuiiVSFo/e3Q21FPF75j3Ce4IL1euVL48YQ8FgqCes2Byjc7ijwnPM81Gaz4vkSboFF6NsmBwc00EyOfiytFYkwpQpARsxSZxYCgXxnTSLO4N6YUDskcppoPSqvNM6V/+n+NKkgfY/zpoSLQce4W0vjiXfxD+s0zuNm3SR7QAPNJOvQopoTk/3Q+nvkua/2uNJgwCzX8sBaylHPkYmv4YmE5ErrGCc5PB0n7OAx7J8AaPwmQbHSw9BkaMy3QJww5umKJ4oDGmgmivNBqrezn6yMADQlzl4ZEHAHGmnCss0Dg4MM3+JsSueEAQ2z5cYJ675Osggjic5fCryKdwYJt3TA8repuvQycEADTRmYHPQq+A9Xwxkck1epB2yP4ZjpCjRpQ0E1p/L2bsZdZQbMulnrat/VR8NpG8DhXkupjwA035wQyaYXQTClNz4uw9uX+1sIRHcoFczAMMGUZyFzcunT3yuLAxpoKqu//KOWsmyWMLE4j8LuFt6UritYyUQc7h+lAw1xgPM21Oe41PjHEJeSDbwunL1oNnb8BZX/itHvMh+ZIJgeGG6MQbficj9M1ce4q4DLXmYELaA6fUswOVD+NyWYfKhqqjBpYkbhkZKmbpr5pbItwV2twSJWCn4ZlMmzxMmLKGVD892Us/O4lH/grWtTgtvPKEuW2priSC9DThqDq05mydKhhmjVR9VzQANN1Q8BMOAH15owGW6AyVip3EibXLlv/nbDCZDz0vcWHP2Vq3quRAQbvemOxs6G0YQdedS5UxnrAMxIQuZrta5EwaQiz0/J9caxTo5qm0Hpl6HqLLV53KMgemO1RV8PNAc00AS6e8pE3JoNDZhQZpRWG2YkDmswZY0QamZ2GkBW+j6QQ6Qalu9mCfnKl+4HNBoDsGmBvZHX2ZHht+i2Nxra9yBx5EZkeRvtKX+ueRTOB5SPHK3BUJ1YfOQlRRt3g5RoGvcz+oFJxwENNJOuS4toUNieg4V5S0kSDc23inWwvvAIq+2diAbM4yVLAFggwy1+iNTEW1tJh1XSHtOYXKPkLYKt5B990Jmc50F9BrfGN0pe8Y9ZscsNwgNJivpLQMIc6ehLdyGiHNpaApBCQpZclbiAGYlAfb6SOKCBppJ6yy9ahTwfEXZDJWnOHN0Scs23rHQHmh+stgBksDwr/nCmPACNEnb+PtCoaqDi66QnHQzFfoyQ7PFhJa0uGTiHFVjYTwS89OKA7caIR8TsA6dLi3eW2fybi3FVAlqNSKG+UEEc0EBTQZ3lB6nquiV1mA/+npHFWCkHphKUs523QsHkcgCHaNop2dEQBgfKlAC04QdH/hS/DlKPKajrpHo5twqLiVeVZSOnW5kPLv3fYCffKgXDjlL2oDCm8PiJ7Iaz55SZQ7q6gHFAA03AOqTc5MiY/BA3xdySU/fSbMuhShrlwKRTmuosM+klIFrkTbSKK5Q9SuWlXALQoOi1bMeTQ/aGTNN6CwBUdoMAJUWn38nPBnyrtsARpujDkZCFmCIF/9eiC9EPTgoOlDCMJkX7q7oR6RvOOU8I/hlmK7MURtD8rpDCGYNpzejlcJg3l3BQRQJRhXvD+XsL0POUUPLojxLAcfYMXzEsavKR/ZCs+IayGwQo2UVAQ+zw84Co9mapXEXCVfi18g9byxf/vZ+06rKDzQENNMHuH9+oU8vPudAQ4keoYAYlQSzpoInYRpBLzl8dtRzKcVJKXTSzUhktbmHnkaHGh8OZzG0k65Hs+eHFU7BITPdrfZ/xh1VsMLGfUmb7XS+we3XJkpMztHiD4Oo76lOLP6laL68Z1hz9swo4oIGmCjo5t4nqExdOVTcuvokJcTfOHwqVmTOX5t4z7u8GFQGQ6e7dPtqzWISXJtFkCo+zlfmmzBjISHE8Wu1FXkPTwKMeQ8nXXUuw5Ut+T/j59UqyuvMmykJ+4YNn0sx+GW3vgPXZ4LlivtBCBiVMxULk86q3+/dq+aL3asAphpOV+0xJKpPKbXb1Ua5uXDQHYHA5UsFfjZj9x2GJXoOJubQZJMtGlILJ6CHS62dP+fPpkNvJV+bnu0F9/ky8tD9jw1+m0dzp1iYREq8oS9mgzPAD59zqZIaJjKiUJoFPBwy63uLFyWj9BdtU/C/PY7xcSJG3SzkcQdaSdShrCUL3nKp6ul+1l5/zayHsB/jXn9lQStn62eBzQANN8PuoKApV67Iw69p5NDNCp2MyOh8v+uncxMQkVQyhU4yiCnV5yFntWkhuZYnfuFz29hRmc0x3Q3xoBivwCjQHCxz4gtU8vEHfFK0r3Z0bVeQtJvv3Y5+muSS14PB6R/vdn+hj4QiMENh0H3GGkX+S+uSie0HKhaORM65r2A+ESq6RG/xMzo1TmC2W2zcuehr+sA9gqbCKf2PVtnGVp2+uCA5ooKmIbiqMSPXxJU1MqJPhJHeuiu89i3FzLjcY6cQj3GIhAIwjEhRWWoF3mSgype5nO6evH/MJuNKPec+YN7iHnQcY9PqiB0bzEJH6pQzGuRB32iPt7LlF6x2ggUFEWY7dh/ayQ/cgujI/yk+JxmlLv7pfhdUWLsRhtC3k1QHjEcw9qg7yYq0w+SxH2hZqr33DoueEEA8iDMPT/JZVm7yqT5czsRzQQDOx/C+59r4bFh0SU+wMKdh5WCm+A2l+DxOGEYZqJQz9ugm1Tsl1jFSAI83YkGYMfmsmqvBIdw6c56oGk+MYN41ymZ4dITo046IkZ1C3Wh1KkRPAFsp9fwYP8atgs3cDrgt2xjCbNLciPTlHvJY3nLOnVMUn9k7G7ozbn9zHl59zBxx6b3b3kCqtSRizHJJMGKATBujUiRA/BCVeriy+Xy4/5wVuGI+xZPpxNuXpv43ko1UaBfrpcnBAA005uOxxHeojZx9jR81FBoNHP2OnspBoFgovq5IhTAZCSQRpKccBIwCZlreJbS2vFVKdULwRU3Mht458z0hAM/ITxV8BsGEy7jNs8fZohUhDvAz++3GMyCzF+eYRLxZICRYlY0YYQB0wcLPuQtSzq7hpLKCI1X4dw0GHmQKSDruImWYX61n0ilqOyAxCPMZqm9/grSu8MCzxqym63GEc0EAzjCFB/KlasV7uXHQsC5kAFus8LAIXGAZDsEIexmrQH5XYGIzgIaS0SskHRCj8zYKkGZJFGJtWUjBfbDTBW6djDNK8u0wzuWI7mLF/12iFCslfg/RoA5cMZ9N7tJsLveagCIKQfmGlzVrzH4I6b0NJ0iEVKZX7vtPw6m57toN/cvEnoDr7A5ximtDW4Xd4/nsI6HBWC4BpwVuwBED3Gd6z93UYtzyKcw+zmuY1GnQ8Z7/nBWqg8Zyl3hSoWpeYrNuaB5XFhaxHnQeN9nxuqHomBUkupBIrdUFbFKFOpSHYElj2Kh6S/8ZvfnTMVTFVtO0bZ0TZDnkoRaYs5nDqxR6IQQm53A/vrc4yFmfr2a1r3OO3ZemwjL+xUHo/Jn6PDQJ4koSqbDVDPrnYSNIF8cX9hiF3u//gYor7haFnUYdStfxZGWfXCYP9kBuiTsGxqFwHwJvDSjIE1WQItNQyg50NVek7kC/nBtaz5zV14zmPIXrnH9m2GWsKXPSUi3RdzwAHNNAEaCg4lmLxvSdiqflOFpfnYsU2Hy9VLYELEm4ZKk1WtBN3OKmLQYG05C+Fnb6Rff3Znezmwug5eBefjS2Bg4qeFWm2y0gNrtKF4BKSjmfGdAcaxcWbVPWBEy7fpjzWxroXb2AmgGaMW12eLu6UUhuw6u8HEEWLqhItwvOz1b3LDH7VijF1rbx1paVa5/3G7prGsY/yDYQtmoGJvqiqi2tw5imnIzKGBGSGEoMRBoxejNPgMfxRdeieF+AU+juYYj+orddK4bL3z2qg8Z6n4ypRfeqsemaHTkSsyAtYfM9ixOw6AbrwKPZasN8CyQW+52WbvFwox0QGsytIIfRpK1LX3CL62M/ZHc/28tvGMc/I0Gkwr64tfiUMArjsTkh7twuZzqzper7Ek7aSo8Zvo+Jpkxr7B2ug2jkdq+7yHEZ6B7fN7eiXo4oyqyb1F2fHsmd2t4BgV/Ae3hDKLKqWzfs1O3L635AS7YuY5C92Fh+QNEuOLjG8sgJ+HwAd28Q4jUHSeifG5yLF7U/DKfkhtO+XDJIYgWQBxelbfORAcXoMHwmqlqJVa6tQyxdfDEHl+8jPfg9UEjfCke0sbppTMH3H8JKYlJMeK0cs2OgPNjmkysEblfnDPEFzL/2BaSX9ZcuhT6ojWy/qxn5QEoD3AlavNzLTvoAlYj/md6zswa3Oe15ofyEzyXtBJJFZ3AG6QN3mHVabux9NcaWO+BTVRo6YMDkb1RBgsADBXhkfRwafLO7L157uQX3rMNkX9bzjrS/EVOgiLxhPAXwF8vBsaHmJC+v9XKn3Y0H0R8BMhzNmoFJ1xuvwMTtk3NL4RU+6/YEQas3gn9s9Q85l34WBJ2BlCRVbLUyx58CQ4EMo6o+qx34QqrV/ckz/x9NQfa+nHNASjafsHEdhra2KXf+Op4VZu4aFrAa4uMwwpQ2HSj4N2u9ZsGKaDtX0DC4oxTKrx3fsz7A6rOprADRRRRKP4+KBdbQCKGV0+cJZYRZCBm2sY/Yn/TdeU4AG1qiMIwsm6+RC7pA234iAm4h1xZ5j/Qi/Ytb3sVseTOHmcQEMkaI+fs4piosLMQkUQpn7PUSk4m8effv6wjaw3Usp/CxxhakuUxibCnkIKQPWGDa4VqYIARl2qOfQe5cVQp/7PZCfGbtOXXv5Cv7D+0ffh8opYGAfJK6uXfBbNrv+AWTHmYNROF9a9glYEs1BqVMwbmoxJuswWmIYV1GM2yhgIYL6aASF8EcMPnDAkALngFT4l47MdeQwQkluB93HVRpgl7mf7iGmII4DnujByHbOcCaOx/lW5JZ4t1q+9E62dfqjeh/HjaH+ntNA4y9/RyzdmShufy6OG+Ksle0y5y57mz26UbBIixDTEpztjAtu1gtWZ3HW1S94pCacCPFoTEZCLKpMbqk6TNzwl7Ej0FzUGQbScpEUpGAwMNaB2QCSSh8cGPrxfuPNtJVhGl3w0kbQSxFnadklzHCa9RsW2w0C4LfhFHn7WAXnX1ffOCOmdvAvAwCxgXxgTsi/s4AzQq0a8S5PnEFzSidZ32bbWeOe/Nw3Obdlv5ohsV6lrHaIhKVlKs0WWMgnIkpjDJAXblHW1dQfkEQWyLqu61FdgbttBwgbCDmUhlXkWsbmvSW6Gu5jRj2CNcN3NoVxG7bCLFKDTfxwyBmbHOOW0vfYsgGoMLihRnGLQsquxTokaiD6JtVgIwYfhPieNDeStKLKOyTuDsHs2cppOrxxOOlmlTnE9Lkfq7go1VtjJdm9K3wPRppHqz6BiUkfE8YBZwFGtbdiIcZW0LdRNfy4KbveY+yLrZytXYsisISe1+Z80ne2k7RaBR6zISjhQDRgZFtpVmzeCkW0DNJVYDEj3aauWRKVO9Wt8Pw+r5SoBI7IZcleYdgrR6oLs0ctYYNnB1XKFZwEoSoq5AjDICC5eCNwuwW4XcgTpd9jypdZ2tiG7jtsYAU//jKhu8UW3Getjy/abn5z1T3jLwBswh4VBpArn5wxS4VmWfJFjGEMsuzYpUsOkCzDOHzjwDh2UAhj0hVk6CE6aLx+YbDkzDn6d9gbEKVzA/WjW7OU0Fl9lIkDGmjKxGgvqnEAYPAlaj3wwjgY5UENXpUDUtQnzzwS/34Fk9gVAJnSxhn2jLBH9Fe2cPbIYW4g1XnAgSFFKBv5WAo8aLK1b2CvwQmyfAYBX32qky1f/DjA7ZpigYYUT1DFNhim+h5ijh0l6mpv460PImCnN4czZqmowXFLE31rfuHFjD16xqWo/MJx5kD9rpf1SX85UNoE4C9tuvQK5IBavmQ6M+x/gvvi9bAyOwQgM+qitKAmYmqCyv2nZgFmuAWVV8hNqBPwVlDEg8HieHkNAmgSt2zrXkOYV4OGogU6xzCAs3rEGLuJxXsvVTee/XPIKA/xbzxVmCHEIAP0F80Bdw5ooHHniz47Dg5gUzjEGmtOgCHDe7DpC+sy4whsmURKUZdlqydrJuwlrDVCvb/PnnP7xCyL8DbeHKQ1g/oriXa8NZ4ShTJeYbZN6s/B/YfxPF/MvYZZu0rJ/lfBp5OLNx0HYgFYsTESgUS2gAnz73DmJvnJxc9yxe+Deu7P/FuP7SmGPv2M5gBxQAONHgdFcQCRC5pYrzoBe7JLsKV8HvJbngiT0hhEDwqJU/TqOo8YLLelkl81bl49ujqHrPO80o84inzVxu2OLXn0jHbCkBtBbjtUUS25xlCjPTLqtQIMHPgtj/TCZ4TMNP571LIKvAhrRgFz9hhYEIWZMPIXIRcNs7bDEfIhZiOZdX3b8wXvWxVYp75t8nNAA83k72NPWhi//pzmOlMch7X6yVLKM1W3nI/V76EiZJoAF1i7IXKBxwEXOfwyYMl1n5HetYLURKM1BBNkC+jx5iCRRqq/sW++UlB4ncFKv7ZyD7vxnE3wf/LGIECNvhc+WG9dz69YT+2H4MNylld9QGbv2Bej+QHOkPxoOO0ermz7Q6xn2moAG3IPqft1GP/BHtBfxuAAKQn0oTkwhAN7W5fUNSfkHKjCkIlTLUB4sr+Dzv54TOQzmGkgcCTMVCXO4m/U2X9IqeP7QY5/cJhcx0PwPv/qys2jPe04v3Y//gT2hM4uRX2UrYMChiLHzrf5N574WPZcoZ/28sX/jRAtH1Rpd/ePQstx/KGkeo2lak/ltz84pu8QJv8zYCX3MCSQer+CXjqTBVnDc55G37TDgGulrfjv+/v5k3V3rHSP2FBog/V9k5oDWqKZ1N07duPUsmUGO3Q7ZeI8RtrqJDi4ncji9rFY0M7CxI1YUpBhJFwaOIAFHpOIt+YU6hfAUOEOyEi1FRPb1ewrK7ewr47VjrXIc6MOHl3mGauMnOvACHj9vZBzpuCvSIWwxhM6wGD8fzBnCcRPgz/PWMeWlufZnL034rbvAKRCfoCN0+dwuQJlGA98NiS39yN/9XtrYvYupGV+Whjizwi2+hzrSWzyP633WAzR14PEAQ00QeoNn2hRn7kUYW06ZyO31EwY4c7AKhRZBhD0HSbBSu29gvHQqQAYZDp0LJcALDBKVpBWBlVhiCLgE225xTqb8CbmMUu+DInpQ6zh3Fc5f2Lsqtv3H4psPDMzO9q5JY7/u0ODlP2G4q+O/2k8YfAXYApGvkgZz8OiCsFUnrE7brJDcj6KGBNoyKkWRhk/Zg01YeSquRVLg3DJDrKj0A76oFqDypRUa0zMIQtDfH8fIkDEWX3tBoTxX4NWrMMihSzXEEtN9mIPz2Bp1WILPo2KNoTRjjTYe1j99K28tfDIBPSsPiqLAxpoKqu/CqIWG/V1LGGdxCy+CJ7qpyur5xgsQmcitEwYuvYBl2xMD5gMgSAUTcDwQuVUEHEuNzmTO1mXSeRVlPbdTNifZ3VP7+atqwrSP9mR1CmGYUQPAKNLJYWeImKU3MJ6+zYU+siQ+0zrbZbiuxGDbBZUi0MujfcHyZEIsYINefZAIc+SFAGw+QFvqN2L+7+GPa7DANoZ0CqkgCLvwTKEQIfM2ENgH8LNsOkYZwvxG3602D2Dmz8AKAE1LGQtEcG4G9hNo9zQZj+Ld25DPLJncPpBJqyV/GtPx4skRT8WUA44ateA0qbJGgcHMKVxtvzsU/Cyvg8z5SWY6I7C6hpBBoErkE5wDnPWiAVmr5RtPDgVUUBIxxnTphjVT2KSupW1ib+wn6xM4kqWphGJzl6wly/6uTDFP3oBNIicTWkQfmbc+sTV2fLH8wmiOYKlPoIV/vml0kP7NADfXVyap/Lb/rKjUDool1GyNzEnxGo+gZAs/wBVZCOmfEz7BDqFluLJfVQrVhD4LxNLM69TnUUGh82iwN6PQho/Kd8CmfeIfvFzBG/V+z6edMPEF6Ilmonvg5IoUK0XN7B436XYoP0A4g8u4hkrMMyWMDF2tlNo6qMqBt5099qcO4ZcGjIh0Q+6Jedkztchz2V/DCkRP+g3zSoD5ykyMnRLG7HafRTRPH9t2uln2faDU4Nx1bLljPGZ+Mi5hwluIWDnWASNUdDgZcyKUj02+HOcX9A8mssfRzvPH+ejebfTPgtAYiaCVV6Hi5/Lu2GEE07uGMXWs49e/AnGu+5ALMv3olGXg7B5KI8ig2e6kiQuh20DvMv+HKHc7OmBLhzsy8z5gbPZsp1PLHAcJMn2+rBHsgUSGJFxCUWjMYz5yL40F06/1yEI5l2IZfYj7cNzgFGV+m1wzFRqA6qVbkwanH36nHOx+vtnKMFOxqSNyLikikBwzdIOwJMiFUijM/1Ix/mQ1CJQ/SNV8YDvFeo3oYUbcfxAh090YJWKbPMcqQYYokIzvgNUb0a8xFeEsF+E0cGbLNTYNSRw5zhpR9iUr2MTejmkhxFpKbRIKKow76ouxH48kd/6ly2FPjf8PnXj0neg6U+hMHNgCh9+S8G/icNgfBdw9OLQLU88W/CDAzci4CUm8Hkm29scZjHrWIiQCyRXp6DrjgSQHYbbpqGKGOgMo/0Ie4df9Je7qMitlBo0AOroY1rKkJhEfQxrNNYLYkntRQXgn4woQ9/Hf8DgANnsMIxeRxTOm/ktz4y77eOvUz/hFwecAeFX4bpc/ziA952zm86byvqwx2LCGz1MGODFgXkiDf0RYkc7paV5NAVDgTBED5yLWsKogUEB7JvNKDCtxnZJKWU4T6pe7IknMdPGES2gE/NYL5PJXmY1SZbcK9nsy23e2loSKKrlixYBb/+EjQwYNZTedsfaLSUpO+OlDuYUWaS6cX6tko0voLzjvdiQd6IjSEy4aXkp/9ZTW4ski2VAZwmApxl/bYK19dWyunAtFFbNFheNyDWB0P6qBsuDiCMMD6vICXcA02Zbqd5MlGUe77fTdtRUcSbD/X223VUTC7sG1xxWVEE/4ykbaW8MozaWTPGvPoUMqvqoVA5ooKnUngPdDtjgE53owTR7gBHZcrNnvtjK+Be+gDqykXdZK6LvLht77FB0XTpasc71mMbk9efMDUX4b7EKP4ZUTF4cNKFjtX41v/WJn5Vann3j4i9j3+imrDl4qeVh7wiJrOUz3A59gN/26MZSy8s+7/Q1+pc6yYmojCjKLCeKcva+wc+5iPKdDYA5bx4ex3N00PhAKV73s0Mfive6XIdm/U/ZOID+04fmQGVxAEEfl0C/8wOoa44GyHgyhp2NdyW3cmUs4LeuLDmLp7rh7BOVEH8FcVEvpC3qIRgYwIKLvQ1l1XVwJn28snpNU1vNHPDkJa1mBuq2l48DlI4XQVE+Dt0//liD48vhUfUUDQDWZv8lbln1HygbC+nSDlJTqfii30F9dnmp1me5lJDBM8jrgdn6d1nI+Cb/sg52mcsf/T2YHNBAE8x+0VTlcEB9+nyY56auhDPGR+FbMg/bRaZXUgJVk5FmEETTFKeNFe4mh6wxv8Jp8VxIXQ9js9xbeumtNQzY7dmboK+6E0YZ/8O/tnL7mATpGzQHJogDGmgmiPG62rE5kFx+3lyTWe9Ddt//BQfAo2ACiwnbG1VZbu1ObDNLfZ7d8sT/80KayZat7oXF3nOLfw03xneXGvssW2bupyPdIKk3nDJ3YxfsQYDaCpZMPM9vf270SNe5hejvmgNl4IAGmjIwWVdROAfUp88+FOndzzWkeA+MY+EXZNRhIqVAnr6MVccAQNprYIi8xA/LpuQnFp0ArdwqSE1NXhktDOemAzgG9m9gLgA+bYCU82f4Fj0Mh91n/WjT8Pr1b82BsTjgy8s7VqX6uuZALgfUJ5YgioFcDCi5GNPlWfDQQSwsBG9EyBIvVWS5ddJ3UplhN6YXpmaX8VueWjn8uhe/QT+XyxdfL0z+Lb/D/DgvM+3hGPClUrBBtxGYlPMn0ciHIBE+o9VrXvSoLqMYDmigKYZr+pmSOKCuWRJlTWIuC1nnYh6+AICyAOorJC6Dd7iNTXQ/0WWAckzAZDNLPq4fY/VPfpe3OkFaSmrXSA+ra68Nsbp1d8HX6WqvzJ1Hqit73nmxoXPMBIDhAB2JsP78RcnlY/BNWcns2JuFpB/Ilqc/NQdK4YAGmlK4p58tiAMUe4v1SuS3kQsRaWQxJvl3wDHwGKitwthbgLmX7avkMpxIwhiKsYY1/1fElpb/GG/Ym+HlFfKbLOYQV+FnLCQuKxfY5NLlACtJOhRgh9JUM76OS/kknHD/wur4Cwhbo+OK5TJMf/eUAxpoPGWnLow4oK6/OMJi/YfDXvhUKfnZSDqAYJ/sSKhvGgAwJLVg3I0a5NM3RjrqMujK8N8X2Uv8K3zlSpfYBv5U3/WJM6Y2GOHvY+9kGQVaKIPg5toQB2jREQxxu8EHEML24MaX8LeSpdmTLBR5g1JEuz6sT2oOFMEBDTRFME0/ks8B9Znzj7Ct/tMNhXTCnJ+JWfQISCw1UIRlgAWb+RM1sRK1zkDHrrxKqz0IFnwj2zLzf8ohyQznFKS7qIyr/xBC3YhNIuSMKSkKz/Dii/o9KO1AZwlph4B3PbSKTwODVhohEwYFKzcXVbB+SHNggAMaaPRQKIoDNGGyOJ+HFDKXCC7OBYycyDkkFuRQwWod89TEAku2Uc4AR1poWGSRo+N9+Pw89mTW+bknk617pM97kdV02eF7zsP+1H9BwloIiYIFAXCIXodfzt4OsnTTZpmUXfhcg72eVSxtPM6i1qvakm2kntXnR+KABpqROKPPD3JAtc4Ls8SUmVa/caww+DHCsE9Ski/ADcfzEEe8TYALTkykxDJILL4MTJYDuW4kFHXqCZz8Fts0409sxQoK81yy539ufcV8B684+8z5DcxKvx/0fQRqxfkO4YiMXA5jiEJpzhhNkCUb/izS97HNkFJfsG3jEcvkz0ZkaLtWsxXKzeq9TwNN9fb9qC3HTMzZJxefjVnvvfh+FiaYowEn9cw0OKSCzFyNz8CAC43kbIh7CmOv1FY4MD6CraB72JbmJ9m9ABiyMgvY4URU7ntXLZOdF4Or/8gVX4xJvdEh08kXQ8ATDKKdyYJ4TCbU6HnkFOoDTzfj2xaoS/8mpPgrXFSf4F/XhgXB6LHgUOGMneCQoykJAgfUJ885BZPJlzAtX8AMSjkJIYDABTPeRM55zmDN/gNtGGjM/FHmSFslcGY9PG+eVpZ4xDAiT7O6M/ex1tYBVAwCZ0emwZFwrlom2Kw9R9hhtggeqlCtidMwoR/iWOdRWwlxssnKBtBnQvuD+sIBHXwhdZujalPbAe7fBLjfPhF7YCNzWF+ZSA7QUNGH5sAgBxCf60OYNL4JyaU2s9cyeMnlC6a58cx0ufeONPKc8/gnez37mybWjFrJwrUOrPx3Ymbbwg31Kiyn1kBP9jqL129ls+/v9yMtgUvjfTuFlnK0gbPE+fWw3JsDdJmPyuYjzdgJMAY/BKyYhd/12N8xIP3gK/4GgOdAf6CUXH4TtcN/07ncw+F17olh3wnsRjqyl+geMqNOpO9gDTOW89YVnuWnGalqfT74HMgOj+BTqin0nQPqhkVnAmS+g/kohpVzGhWOauKKOaUG9wxmkSRtClQoEZyjv6EHqa2Uc38IF5CRESnbaJ/iwEFZOGlSSuF8P650QBShZFf7hOIwv5V7mTB3YlN6B1NmG6s5aD9jP0n5lQflAFkT+w19keERAY9zLKlh3eEpzEzNAMAezIQ9CxLEDNiuzcQN02GsPBW31QJVatE/6BtegyeJ95S3rA5/bnBDZbv1SQJ9mkafDkCMSqCDaVwMHpkrsgf19FEhwLspEHLCCPqJYNhqeTFZQQcL118mDQcGBu+kaY9uSAkcUDdegAkKfnt1IcXau2w2bf2QSSWv6PajQmxao8F2DlypDatOlYg0xeoJTPKPJEdWTnhvSOR0TKt+Z9rL3iX7UoAVqi/NZq+2HQCha8NGKH66TZTZUqrqcxCEqNW5XKEEdV1nROAcakK6iLIeXK9PwUOVx9wY1I802FEZtZAMvH/I9Z5UEuGA0qw3xdlsXFm7OsnmDakpc/sXhp1zEuThEs4DoXIpG1K8/qE5oDmgOaA5oDmgOaA5oDmgOaA5oDmgOaA5oDmgOaA5oDmgOaA5oDmgOaA5oDmgOaA5oDngHwf+P81sWP2vuoEeAAAAAElFTkSuQmCC;sketch=0;opacity=75;" parent="wFLVEbgck72JYmoCqQcz-10" vertex="1">
          <mxGeometry x="20.93" y="35" width="336.67" height="427" as="geometry" />
        </mxCell>
        <mxCell id="wFLVEbgck72JYmoCqQcz-5" value="&lt;font color=&quot;#548c82&quot; face=&quot;Tahoma&quot; size=&quot;1&quot;&gt;&lt;span style=&quot;font-size: 14px&quot;&gt;EKS Cluster&lt;/span&gt;&lt;/font&gt;" style="text;html=1;resizable=0;autosize=1;align=center;verticalAlign=middle;points=[];fillColor=none;strokeColor=none;rounded=0;" parent="wFLVEbgck72JYmoCqQcz-10" vertex="1">
          <mxGeometry x="53" y="20" width="90" height="20" as="geometry" />
        </mxCell>
        <mxCell id="BL0fxwx5DuhP13sKB6l1-7" value="" style="sketch=0;html=1;dashed=0;whitespace=wrap;fillColor=#2875E2;strokeColor=#ffffff;points=[[0.005,0.63,0],[0.1,0.2,0],[0.9,0.2,0],[0.5,0,0],[0.995,0.63,0],[0.72,0.99,0],[0.5,1,0],[0.28,0.99,0]];shape=mxgraph.kubernetes.icon;prIcon=role;opacity=85;" parent="wFLVEbgck72JYmoCqQcz-10" vertex="1">
          <mxGeometry x="134.26" y="75" width="110" height="75.63" as="geometry" />
        </mxCell>
        <mxCell id="wFLVEbgck72JYmoCqQcz-7" value="" style="sketch=0;html=1;dashed=0;whitespace=wrap;fillColor=#2875E2;strokeColor=#ffffff;points=[[0.005,0.63,0],[0.1,0.2,0],[0.9,0.2,0],[0.5,0,0],[0.995,0.63,0],[0.72,0.99,0],[0.5,1,0],[0.28,0.99,0]];shape=mxgraph.kubernetes.icon;prIcon=role;opacity=85;" parent="wFLVEbgck72JYmoCqQcz-10" vertex="1">
          <mxGeometry x="134.26" y="325" width="110" height="75.63" as="geometry" />
        </mxCell>
        <mxCell id="wFLVEbgck72JYmoCqQcz-13" value="&lt;font color=&quot;#333333&quot;&gt;argocd-application-controller&lt;/font&gt;" style="text;html=1;resizable=0;autosize=1;align=center;verticalAlign=middle;points=[];fillColor=none;strokeColor=none;rounded=0;sketch=0;fontFamily=Tahoma;fontSize=14;fontColor=#548C82;opacity=85;" parent="wFLVEbgck72JYmoCqQcz-10" vertex="1">
          <mxGeometry x="86.5" y="400.63" width="200" height="20" as="geometry" />
        </mxCell>
        <mxCell id="wFLVEbgck72JYmoCqQcz-14" value="argocd-server" style="text;html=1;resizable=0;autosize=1;align=center;verticalAlign=middle;points=[];fillColor=none;strokeColor=none;rounded=0;sketch=0;fontFamily=Tahoma;fontSize=14;fontColor=#333333;opacity=85;" parent="wFLVEbgck72JYmoCqQcz-10" vertex="1">
          <mxGeometry x="136" y="150.63" width="110" height="20" as="geometry" />
        </mxCell>
        <mxCell id="OT4UGk9DmzGM-0W16wZx-3" value="deployer" style="sketch=0;outlineConnect=0;fillColor=#82B366;strokeColor=none;dashed=0;verticalLabelPosition=bottom;verticalAlign=top;align=center;html=1;fontSize=12;fontStyle=0;aspect=fixed;pointerEvents=1;shape=mxgraph.aws4.role;shadow=0;opacity=85;" parent="wFLVEbgck72JYmoCqQcz-10" vertex="1">
          <mxGeometry x="852" y="216.79000000000002" width="100" height="56.41" as="geometry" />
        </mxCell>
        <mxCell id="wFLVEbgck72JYmoCqQcz-16" value="" style="edgeStyle=orthogonalEdgeStyle;rounded=0;orthogonalLoop=1;jettySize=auto;html=1;fontFamily=Tahoma;fontSize=14;fontColor=#333333;opacity=80;" parent="BL0fxwx5DuhP13sKB6l1-1" source="BL0fxwx5DuhP13sKB6l1-7" target="wFLVEbgck72JYmoCqQcz-8" edge="1">
          <mxGeometry relative="1" as="geometry">
            <mxPoint x="366.2600000000002" y="147.81500000000005" as="targetPoint" />
          </mxGeometry>
        </mxCell>
        <mxCell id="wFLVEbgck72JYmoCqQcz-17" value="" style="edgeStyle=orthogonalEdgeStyle;rounded=0;orthogonalLoop=1;jettySize=auto;html=1;fontFamily=Tahoma;fontSize=14;fontColor=#333333;opacity=80;" parent="BL0fxwx5DuhP13sKB6l1-1" source="wFLVEbgck72JYmoCqQcz-7" target="wFLVEbgck72JYmoCqQcz-8" edge="1">
          <mxGeometry relative="1" as="geometry" />
        </mxCell>
        <mxCell id="BL0fxwx5DuhP13sKB6l1-2" value="development" style="points=[[0,0],[0.25,0],[0.5,0],[0.75,0],[1,0],[1,0.25],[1,0.5],[1,0.75],[1,1],[0.75,1],[0.5,1],[0.25,1],[0,1],[0,0.75],[0,0.5],[0,0.25]];outlineConnect=0;gradientColor=none;html=1;whiteSpace=wrap;fontSize=12;fontStyle=0;container=1;pointerEvents=0;collapsible=0;recursiveResize=0;shape=mxgraph.aws4.group;grIcon=mxgraph.aws4.group_aws_cloud_alt;strokeColor=#232F3E;fillColor=none;verticalAlign=top;align=left;spacingLeft=30;fontColor=#232F3E;dashed=0;" parent="1" vertex="1">
          <mxGeometry x="-200" y="-40" width="480" height="560" as="geometry" />
        </mxCell>
        <mxCell id="wFLVEbgck72JYmoCqQcz-21" value="" style="fillColor=#E9F3E6;strokeColor=none;dashed=0;verticalAlign=top;fontStyle=0;fontColor=#232F3D;" parent="BL0fxwx5DuhP13sKB6l1-2" vertex="1">
          <mxGeometry x="242" y="40" width="198" height="480" as="geometry" />
        </mxCell>
        <mxCell id="wFLVEbgck72JYmoCqQcz-22" value="" style="sketch=0;points=[[0,0,0],[0.25,0,0],[0.5,0,0],[0.75,0,0],[1,0,0],[0,1,0],[0.25,1,0],[0.5,1,0],[0.75,1,0],[1,1,0],[0,0.25,0],[0,0.5,0],[0,0.75,0],[1,0.25,0],[1,0.5,0],[1,0.75,0]];outlineConnect=0;gradientDirection=north;dashed=0;verticalLabelPosition=bottom;verticalAlign=top;align=center;html=1;fontSize=12;fontStyle=0;aspect=fixed;shape=mxgraph.aws4.resourceIcon;resIcon=mxgraph.aws4.eks;gradientColor=none;fillColor=none;strokeColor=#548C82;" parent="BL0fxwx5DuhP13sKB6l1-2" vertex="1">
          <mxGeometry x="233" y="35" width="60" height="60" as="geometry" />
        </mxCell>
        <mxCell id="wFLVEbgck72JYmoCqQcz-23" value="&lt;font color=&quot;#548c82&quot; face=&quot;Tahoma&quot; size=&quot;1&quot;&gt;&lt;span style=&quot;font-size: 14px&quot;&gt;EKS Cluster&lt;/span&gt;&lt;/font&gt;" style="text;html=1;resizable=0;autosize=1;align=center;verticalAlign=middle;points=[];fillColor=none;strokeColor=none;rounded=0;" parent="BL0fxwx5DuhP13sKB6l1-2" vertex="1">
          <mxGeometry x="287.5" y="54" width="90" height="20" as="geometry" />
        </mxCell>
        <mxCell id="wFLVEbgck72JYmoCqQcz-19" value="" style="sketch=0;html=1;dashed=0;whitespace=wrap;fillColor=#2875E2;strokeColor=#ffffff;points=[[0.005,0.63,0],[0.1,0.2,0],[0.9,0.2,0],[0.5,0,0],[0.995,0.63,0],[0.72,0.99,0],[0.5,1,0],[0.28,0.99,0]];shape=mxgraph.kubernetes.icon;prIcon=c_role;fontFamily=Tahoma;fontSize=14;fontColor=#333333;opacity=85;" parent="BL0fxwx5DuhP13sKB6l1-2" vertex="1">
          <mxGeometry x="294" y="237.99" width="97" height="84" as="geometry" />
        </mxCell>
        <mxCell id="wFLVEbgck72JYmoCqQcz-24" value="Cluster Role" style="text;html=1;resizable=0;autosize=1;align=center;verticalAlign=middle;points=[];fillColor=none;strokeColor=none;rounded=0;sketch=0;fontFamily=Tahoma;fontSize=14;fontColor=#333333;opacity=85;" parent="BL0fxwx5DuhP13sKB6l1-2" vertex="1">
          <mxGeometry x="301" y="321.99" width="90" height="20" as="geometry" />
        </mxCell>
        <mxCell id="wFLVEbgck72JYmoCqQcz-26" value="" style="edgeStyle=orthogonalEdgeStyle;rounded=0;orthogonalLoop=1;jettySize=auto;html=1;fontFamily=Tahoma;fontSize=14;fontColor=#333333;opacity=80;" parent="1" source="OT4UGk9DmzGM-0W16wZx-3" target="wFLVEbgck72JYmoCqQcz-19" edge="1">
          <mxGeometry relative="1" as="geometry">
            <mxPoint x="110" y="243.4949999999999" as="targetPoint" />
            <Array as="points" />
          </mxGeometry>
        </mxCell>
      </root>
    </mxGraphModel>
  </diagram>
</mxfile>
